<svg width="66" height="28" viewBox="0 0 66 28" fill="none" xmlns="http://www.w3.org/2000/svg">
<path d="M12.0475 3.48542C11.2752 4.39857 10.0397 5.1188 8.80412 5.01591C8.64967 3.78123 9.25458 2.46937 9.96246 1.65911C10.7347 0.720234 12.0861 0.0514453 13.1801 0C13.3088 1.28613 12.8068 2.54654 12.0475 3.48542ZM13.1672 5.26028C11.3782 5.15739 9.84662 6.27632 8.99718 6.27632C8.13486 6.27632 6.83494 5.31172 5.4192 5.33745C3.57873 5.36317 1.86696 6.40493 0.927422 8.06404C-1.00314 11.3823 0.425476 16.2953 2.29169 18.9962C3.20549 20.3337 4.29947 21.7999 5.74096 21.7485C7.10522 21.697 7.64578 20.8611 9.29319 20.8611C10.9535 20.8611 11.4297 21.7485 12.8712 21.7228C14.3641 21.697 15.3037 20.3852 16.2175 19.0476C17.26 17.53 17.6847 16.0509 17.7105 15.9738C17.6847 15.948 14.8275 14.8548 14.8017 11.5623C14.776 8.81 17.0541 7.49815 17.157 7.42098C15.87 5.5175 13.8622 5.31172 13.1672 5.26028ZM23.5021 1.5305V21.5813H26.6168V14.7262H30.9284C34.8667 14.7262 37.6339 12.0253 37.6339 8.11549C37.6339 4.20565 34.9182 1.5305 31.0313 1.5305H23.5021V1.5305ZM26.6168 4.1542H30.2076C32.9104 4.1542 34.4549 5.59467 34.4549 8.12835C34.4549 10.662 32.9104 12.1154 30.1948 12.1154H26.6168V4.1542V4.1542ZM43.3226 21.7356C45.2789 21.7356 47.0936 20.7453 47.9173 19.1762H47.9817V21.5813H50.8647V11.6009C50.8647 8.70711 48.548 6.84222 44.9829 6.84222C41.6752 6.84222 39.2298 8.73283 39.1397 11.3308H41.9455C42.1771 10.0961 43.3226 9.28587 44.8928 9.28587C46.7976 9.28587 47.8658 10.1733 47.8658 11.8067V12.9128L43.979 13.1443C40.3624 13.3629 38.4061 14.842 38.4061 17.4142C38.4061 20.0122 40.4267 21.7356 43.3226 21.7356ZM44.1592 19.3563C42.4989 19.3563 41.4435 18.5589 41.4435 17.3371C41.4435 16.0766 42.4603 15.3435 44.4037 15.2278L47.8658 15.0092V16.1409C47.8658 18.0187 46.2699 19.3563 44.1592 19.3563ZM54.7129 27.0345C57.7503 27.0345 59.1789 25.877 60.4274 22.3658L65.8973 7.03514H62.7312L59.0631 18.8804H58.9988L55.3307 7.03514H52.0745L57.3513 21.6327L57.0682 22.5202C56.592 24.0249 55.8198 24.6037 54.4426 24.6037C54.1981 24.6037 53.7219 24.578 53.5288 24.5522V26.9573C53.709 27.0088 54.4812 27.0345 54.7129 27.0345Z" fill="#C9C9C9"/>
</svg>
