<svg width="124" height="51" viewBox="0 0 124 51" fill="none" xmlns="http://www.w3.org/2000/svg">
<path d="M22.5299 6.52306C21.0857 8.23205 18.775 9.57999 16.4642 9.38742C16.1754 7.07667 17.3067 4.6215 18.6305 3.10507C20.0747 1.34794 22.6021 0.0962813 24.6481 0C24.8888 2.40703 23.9501 4.76592 22.5299 6.52306ZM24.624 9.84476C21.2783 9.6522 18.4139 11.7463 16.8253 11.7463C15.2125 11.7463 12.7814 9.94104 10.1337 9.98918C6.69165 10.0373 3.4903 11.987 1.73317 15.0921C-1.87738 21.3022 0.794424 30.4971 4.28462 35.5519C5.99361 38.0552 8.03959 40.7992 10.7355 40.7029C13.2869 40.6066 14.2979 39.0421 17.3789 39.0421C20.4839 39.0421 21.3745 40.7029 24.0704 40.6548C26.8626 40.6066 28.6197 38.1515 30.3287 35.6481C32.2784 32.8078 33.0727 30.0398 33.1209 29.8953C33.0727 29.8472 27.7291 27.8012 27.681 21.6392C27.6328 16.4882 31.8933 14.033 32.0858 13.8886C29.6788 10.3262 25.9238 9.94104 24.624 9.84476ZM43.9525 2.86437V40.39H49.7775V27.5605H57.8411C65.2066 27.5605 70.3817 22.5057 70.3817 15.1884C70.3817 7.87099 65.3029 2.86437 58.0336 2.86437H43.9525ZM49.7775 7.77471H56.4931C61.5479 7.77471 64.4363 10.4706 64.4363 15.2124C64.4363 19.9543 61.5479 22.6742 56.4691 22.6742H49.7775V7.77471ZM81.0208 40.6788C84.6795 40.6788 88.0734 38.8254 89.6139 35.8888H89.7342V40.39H95.126V21.7114C95.126 16.2956 90.7933 12.8054 84.1259 12.8054C77.9398 12.8054 73.3664 16.3437 73.1979 21.2059H78.4453C78.8785 18.8952 81.0208 17.3788 83.9574 17.3788C87.5198 17.3788 89.5176 19.0396 89.5176 22.0966V24.1666L82.2484 24.5999C75.4846 25.0091 71.8259 27.7771 71.8259 32.5912C71.8259 37.4534 75.605 40.6788 81.0208 40.6788ZM82.5854 36.2258C79.4803 36.2258 77.5065 34.7335 77.5065 32.4468C77.5065 30.0879 79.4081 28.7159 83.0427 28.4993L89.5176 28.0901V30.2082C89.5176 33.7225 86.5329 36.2258 82.5854 36.2258ZM102.323 50.5958C108.004 50.5958 110.675 48.4295 113.01 41.8583L123.24 13.1665H117.319L110.459 35.3352H110.338L103.478 13.1665H97.3886L107.257 40.4863L106.728 42.1471C105.837 44.9634 104.393 46.0465 101.818 46.0465C101.36 46.0465 100.47 45.9984 100.109 45.9502V50.4514C100.446 50.5477 101.89 50.5958 102.323 50.5958Z" fill="black"/>
</svg>
