<svg width="69" height="28" viewBox="0 0 69 28" fill="none" xmlns="http://www.w3.org/2000/svg">
<g clip-path="url(#clip0_302_81)">
<path d="M32.7593 13.2071V21.1318H30.2634V1.56137H36.883C37.6731 1.54475 38.4587 1.6859 39.1944 1.9767C39.9301 2.26749 40.6014 2.70215 41.1694 3.25562C41.7432 3.77548 42.1999 4.41303 42.5087 5.12542C42.8175 5.83782 42.9714 6.60855 42.96 7.38582C42.9764 8.16725 42.8249 8.94301 42.5158 9.65994C42.2068 10.3769 41.7475 11.018 41.1694 11.5394C40.0119 12.6512 38.5831 13.2066 36.883 13.2056H32.7593V13.2071ZM32.7593 3.97079V10.8024H36.945C37.4039 10.8161 37.8605 10.7332 38.2858 10.559C38.711 10.3847 39.0955 10.123 39.4145 9.79055C39.732 9.47971 39.9843 9.10792 40.1566 8.69716C40.3288 8.2864 40.4176 7.84501 40.4176 7.39909C40.4176 6.95318 40.3288 6.51179 40.1566 6.10103C39.9843 5.69026 39.732 5.31847 39.4145 5.00763C39.0995 4.66817 38.7164 4.40004 38.2906 4.22102C37.8648 4.042 37.4062 3.95617 36.945 3.96923H32.7593V3.97079Z" fill="#C9C9C9"/>
<path d="M48.7114 7.30469C50.5562 7.30469 52.0124 7.80125 53.08 8.79437C54.1476 9.78749 54.6809 11.1491 54.6799 12.8793V21.1319H52.2925V19.2737H52.184C51.1505 20.804 49.7759 21.5691 48.0603 21.5691C46.5958 21.5691 45.3706 21.1319 44.3846 20.2574C43.9115 19.8561 43.5332 19.3535 43.2773 18.7862C43.0215 18.2189 42.8945 17.6012 42.9057 16.9783C42.9057 15.5927 43.4256 14.4908 44.4653 13.6725C45.505 12.8543 46.893 12.4441 48.6292 12.4421C50.1113 12.4421 51.3318 12.7153 52.2909 13.2619V12.6872C52.2937 12.2625 52.2027 11.8425 52.0244 11.4576C51.8461 11.0728 51.585 10.7327 51.26 10.4621C50.6 9.86226 49.7398 9.53498 48.8509 9.54546C47.4567 9.54546 46.3535 10.1378 45.5411 11.3225L43.3429 9.92803C44.5521 8.17914 46.3416 7.30469 48.7114 7.30469ZM45.4822 17.0329C45.4805 17.3529 45.5548 17.6686 45.6988 17.9538C45.8428 18.239 46.0524 18.4854 46.3101 18.6725C46.8621 19.1099 47.5472 19.3416 48.2494 19.3283C49.3026 19.3266 50.3122 18.9043 51.0569 18.1541C51.8837 17.3702 52.2971 16.4505 52.2971 15.3949C51.5189 14.7703 50.4337 14.458 49.0416 14.458C48.0277 14.458 47.1823 14.7042 46.5054 15.1966C45.8217 15.6963 45.4822 16.3037 45.4822 17.0329V17.0329Z" fill="#C9C9C9"/>
<path d="M68.3842 7.74194L60.0501 27.0344H57.4736L60.5663 20.284L55.0862 7.74194H57.7991L61.76 17.3609H61.8143L65.6666 7.74194H68.3842Z" fill="#C9C9C9"/>
<path d="M22.6733 11.4992C22.6742 10.733 22.6099 9.96821 22.481 9.21313H11.9548V13.5432H17.9838C17.8604 14.2348 17.5993 14.894 17.2161 15.4812C16.833 16.0684 16.3358 16.5714 15.7545 16.9598V19.7705H19.3526C21.4594 17.814 22.6733 14.9205 22.6733 11.4992Z" fill="#C9C9C9"/>
<path d="M11.9547 22.4859C14.9668 22.4859 17.503 21.4897 19.3525 19.772L15.7543 16.9613C14.7529 17.6452 13.4631 18.0356 11.9547 18.0356C9.04332 18.0356 6.57222 16.0587 5.68858 13.3948H1.98193V16.2914C2.91095 18.1535 4.33549 19.7188 6.09651 20.8126C7.85754 21.9065 9.88574 22.4858 11.9547 22.4859V22.4859Z" fill="#C9C9C9"/>
<path d="M5.68863 13.395C5.22148 11.999 5.22148 10.4874 5.68863 9.09143V6.19482H1.98199C1.20047 7.76126 0.793457 9.49008 0.793457 11.2432C0.793457 12.9963 1.20047 14.7251 1.98199 16.2916L5.68863 13.395Z" fill="#C9C9C9"/>
<path d="M11.9547 4.45032C13.5465 4.42412 15.0845 5.02991 16.2365 6.13675L19.4222 2.92784C17.4021 1.01667 14.7259 -0.0325977 11.9547 5.21729e-06C9.88574 0.000100197 7.85754 0.579412 6.09651 1.67326C4.33549 2.76712 2.91095 4.33246 1.98193 6.19453L5.68858 9.09114C6.57222 6.42719 9.04332 4.45032 11.9547 4.45032Z" fill="#C9C9C9"/>
</g>
<defs>
<clipPath id="clip0_302_81">
<rect width="67.5862" height="27.0345" fill="white" transform="translate(0.793213)"/>
</clipPath>
</defs>
</svg>
