<svg width="125" height="50" viewBox="0 0 125 50" fill="none" xmlns="http://www.w3.org/2000/svg">
<g clip-path="url(#clip0_104_1882)">
<path d="M59.1211 24.4268V39.0834H54.5049V2.88805H66.7477C68.2091 2.8573 69.662 3.11837 71.0227 3.65619C72.3834 4.194 73.6248 4.99791 74.6755 6.02154C75.7367 6.98301 76.5812 8.16216 77.1524 9.47972C77.7236 10.7973 78.0082 12.2228 77.987 13.6603C78.0174 15.1055 77.7372 16.5403 77.1656 17.8663C76.594 19.1922 75.7446 20.378 74.6755 21.3424C72.5346 23.3987 69.8921 24.4258 66.7477 24.4239H59.1211V24.4268ZM59.1211 7.34424V19.9793H66.8624C67.7111 20.0046 68.5557 19.8512 69.3422 19.529C70.1286 19.2067 70.8397 18.7227 71.4298 18.1078C72.0169 17.5329 72.4835 16.8453 72.8022 16.0856C73.1208 15.3259 73.285 14.5096 73.285 13.6849C73.285 12.8601 73.1208 12.0438 72.8022 11.2841C72.4835 10.5244 72.0169 9.83677 71.4298 9.26188C70.8471 8.63404 70.1385 8.13814 69.3511 7.80704C68.5637 7.47594 67.7154 7.31721 66.8624 7.34135H59.1211V7.34424Z" fill="#5F6368"/>
<path d="M88.6242 13.5101C92.0362 13.5101 94.7294 14.4285 96.7039 16.2653C98.6784 18.1021 99.6647 20.6204 99.6628 23.8203V39.0834H95.2474V35.6467H95.0467C93.1352 38.4769 90.593 39.892 87.42 39.892C84.7115 39.892 82.4455 39.0834 80.622 37.4661C79.7468 36.7238 79.0472 35.7942 78.574 34.745C78.1008 33.6958 77.866 32.5535 77.8867 31.4013C77.8867 28.8387 78.8481 26.8007 80.7711 25.2874C82.694 23.7741 85.261 23.0155 88.4723 23.0117C91.2133 23.0117 93.4707 23.5171 95.2445 24.5279V23.4651C95.2498 22.6796 95.0814 21.9028 94.7516 21.191C94.4218 20.4792 93.9389 19.8502 93.3379 19.3497C92.1172 18.2403 90.5263 17.635 88.8823 17.6544C86.3037 17.6544 84.2633 18.7499 82.7609 20.941L78.6952 18.362C80.9316 15.1274 84.2413 13.5101 88.6242 13.5101ZM82.6519 31.5024C82.6488 32.0941 82.7862 32.6781 83.0525 33.2056C83.3188 33.733 83.7064 34.1888 84.183 34.5348C85.2039 35.3437 86.4711 35.7722 87.7698 35.7478C89.7178 35.7445 91.585 34.9635 92.9623 33.576C94.4914 32.1262 95.256 30.4252 95.256 28.4729C93.8167 27.3177 91.8097 26.7401 89.2349 26.7401C87.3598 26.7401 85.7962 27.1954 84.5442 28.1061C83.2798 29.0303 82.6519 30.1537 82.6519 31.5024Z" fill="#5F6368"/>
<path d="M125.009 14.3187L109.595 50H104.829L110.549 37.5152L100.414 14.3187H105.432L112.757 32.1088H112.858L119.982 14.3187H125.009Z" fill="#5F6368"/>
<path d="M40.4673 21.2672C40.469 19.8502 40.3501 18.4357 40.1117 17.0392H20.6436V25.0476H31.7941C31.5659 26.3267 31.083 27.546 30.3744 28.632C29.6658 29.718 28.7462 30.6482 27.6711 31.3666V36.565H34.3258C38.2223 32.9463 40.4673 27.5948 40.4673 21.2672Z" fill="#4285F4"/>
<path d="M20.6436 41.5873C26.2145 41.5873 30.9052 39.7447 34.3258 36.5679L27.6711 31.3695C25.8189 32.6345 23.4334 33.3565 20.6436 33.3565C15.2591 33.3565 10.6888 29.7002 9.05453 24.7733H2.19913V30.1306C3.91733 33.5744 6.552 36.4695 9.809 38.4926C13.066 40.5157 16.8171 41.5871 20.6436 41.5873Z" fill="#34A853"/>
<path d="M9.05453 24.7732C8.19054 22.1915 8.19054 19.3957 9.05453 16.8139V11.4567H2.19912C0.753715 14.3538 0.000946045 17.5512 0.000946045 20.7936C0.000946045 24.0359 0.753715 27.2334 2.19912 30.1305L9.05453 24.7732Z" fill="#FBBC04"/>
<path d="M20.6436 8.23083C23.5876 8.18238 26.4323 9.30279 28.5628 11.3499L34.4548 5.41503C30.7186 1.88033 25.769 -0.0602773 20.6436 2.14826e-05C16.8171 0.000197146 13.066 1.07163 9.809 3.0947C6.552 5.11777 3.91733 8.01285 2.19913 11.4567L9.05453 16.814C10.6888 11.887 15.2591 8.23083 20.6436 8.23083Z" fill="#EA4335"/>
</g>
<defs>
<clipPath id="clip0_104_1882">
<rect width="125" height="50" fill="white"/>
</clipPath>
</defs>
</svg>
