<svg width="82" height="49" viewBox="0 0 82 49" fill="none" xmlns="http://www.w3.org/2000/svg">
<g clip-path="url(#clip0_104_1898)">
<path d="M57.4976 49H58.6802L59.9811 48.8819L61.1637 48.7639L62.3463 48.5277L63.6472 48.2916L64.7116 47.9373L65.8942 47.4651L66.9586 47.1108L68.1412 46.6386L69.2056 46.0482L70.1517 45.4578L71.216 44.8675L72.1621 44.159L73.1082 43.4506L73.9361 42.6241L74.8822 41.7976L75.71 40.9711L76.4196 40.0265L77.1291 39.2L77.8387 38.1373L78.43 37.1928L79.0213 36.1301L79.6127 35.0675L80.0857 34.0048L80.5588 32.9422L80.9135 31.7614L81.2683 30.5807L81.5049 29.4L81.7414 28.2193L81.8596 26.9205L81.9779 25.7398V24.441V23.2602L81.8596 21.9614L81.7414 20.7807L81.5049 19.4819L81.2683 18.3012L80.9135 17.2386L80.5588 16.0578L80.0857 14.9952L79.6127 13.8145L79.0213 12.8699L78.43 11.8072L77.8387 10.7446L77.1291 9.8L76.4196 8.97349L75.71 8.02892L74.8822 7.20241L73.9361 6.3759L73.1082 5.5494L72.1621 4.84096L71.216 4.13253L70.1517 3.54217L69.2056 2.95181L68.1412 2.47952L66.9586 1.88916L65.8942 1.53494L64.7116 1.06265L63.6472 0.826506L62.3463 0.472289L61.1637 0.236145L59.9811 0.118072L58.6802 0H57.4976H56.1967L54.8958 0.118072L53.7132 0.236145L52.5305 0.472289L51.3479 0.826506L50.1653 1.06265L48.9827 1.53494L47.9183 1.88916L46.8539 2.47952L45.7896 2.95181L44.7252 3.54217L43.7791 4.13253L42.833 4.84096L41.8869 5.5494L40.9408 6.3759L40.113 7.20241L39.2851 8.02892L38.5756 8.97349L37.866 9.8L37.1564 10.7446L36.4468 11.8072L35.8555 12.8699L35.3825 13.8145L34.9094 14.9952L34.4364 16.0578L34.0816 17.2386L33.7268 18.3012L33.4903 19.4819L33.2537 20.7807L33.0172 21.9614V23.2602L32.899 24.441L33.0172 25.7398V26.9205L33.2537 28.2193L33.4903 29.4L33.7268 30.5807L34.0816 31.7614L34.4364 32.9422L34.9094 34.0048L35.3825 35.0675L35.8555 36.1301L36.4468 37.1928L37.1564 38.1373L37.866 39.2L38.5756 40.0265L39.2851 40.9711L40.113 41.7976L40.9408 42.6241L41.8869 43.4506L42.833 44.159L43.7791 44.8675L44.7252 45.4578L45.7896 46.0482L46.8539 46.6386L47.9183 47.1108L48.9827 47.4651L50.1653 47.9373L51.3479 48.2916L52.5305 48.5277L53.7132 48.7639L54.8958 48.8819L56.1967 49H57.4976Z" fill="#FE9900"/>
<path d="M24.6211 49.0001H25.922L27.1046 48.882L28.2872 48.764L29.5881 48.5278L30.7707 48.2917L31.9533 47.9375L33.0177 47.4652L34.2003 47.111L35.2647 46.6387L36.3291 46.0483L37.2752 45.458L38.3395 44.8676L39.2856 44.1592L40.2317 43.4507L41.0596 42.6242L41.8874 41.7977L42.7152 40.9712L43.5431 40.0266L44.2526 39.2001L44.9622 38.1375L45.5535 37.1929L46.1448 36.1302L46.7362 35.0676L47.2092 34.0049L47.6823 32.9423L48.037 31.7616L48.3918 30.5808L48.6284 29.4001L48.8649 28.2194L48.9831 26.9206L49.1014 25.7399V24.4411V23.2604L48.9831 21.9616L48.8649 20.7808L48.6284 19.482L48.3918 18.3013L48.037 17.2387L47.6823 16.058L47.2092 14.9953L46.7362 13.8146L46.1448 12.87L45.5535 11.8074L44.9622 10.7447L44.2526 9.80012L43.5431 8.97362L42.7152 8.02904L41.8874 7.20253L41.0596 6.37603L40.2317 5.54952L39.2856 4.84109L38.3395 4.13265L37.2752 3.54229L36.3291 2.95193L35.2647 2.47964L34.2003 1.88928L33.0177 1.53506L31.9533 1.06277L30.7707 0.826628L29.5881 0.472411L28.2872 0.236267L27.1046 0.118194L25.922 0.00012207H24.6211H23.3202L22.1376 0.118194L20.8367 0.236267L19.654 0.472411L18.4714 0.826628L17.2888 1.06277L16.1062 1.53506L15.0418 1.88928L13.9774 2.47964L12.9131 2.95193L11.8487 3.54229L10.9026 4.13265L9.95651 4.84109L9.01041 5.54952L8.06431 6.37603L7.23647 7.20253L6.40864 8.02904L5.5808 8.97362L4.87122 9.80012L4.16165 10.7447L3.57034 11.8074L2.97902 12.87L2.50597 13.8146L1.91466 14.9953L1.55987 16.058L1.08682 17.2387L0.850299 18.3013L0.495511 19.482L0.258986 20.7808L0.140723 21.9616L0.0224609 23.2604V24.4411V25.7399L0.140723 26.9206L0.258986 28.2194L0.495511 29.4001L0.850299 30.5808L1.08682 31.7616L1.55987 32.9423L1.91466 34.0049L2.50597 35.0676L2.97902 36.1302L3.57034 37.1929L4.16165 38.1375L4.87122 39.2001L5.5808 40.0266L6.40864 40.9712L7.23647 41.7977L8.06431 42.6242L9.01041 43.4507L9.95651 44.1592L10.9026 44.8676L11.8487 45.458L12.9131 46.0483L13.9774 46.6387L15.0418 47.111L16.1062 47.4652L17.2888 47.9375L18.4714 48.2917L19.654 48.5278L20.8367 48.764L22.1376 48.882L23.3202 49.0001H24.6211Z" fill="#CC0001"/>
<path d="M38.1025 9.4458H51.2296V8.02893H39.2851L38.1025 9.4458Z" fill="#F9B32A"/>
<path d="M36.2103 12.3976H51.2296V10.9807H37.0381L36.2103 12.3976Z" fill="#F9B32A"/>
<path d="M34.7911 15.3495H51.2296V13.9326H35.3824L34.7911 15.3495Z" fill="#F9B32A"/>
<path d="M33.7267 18.3014H51.2295V16.8845H34.1997L33.7267 18.3014Z" fill="#F9B32A"/>
<path d="M34.3181 32.5881H51.2297V31.2893H33.9633L34.3181 32.5881Z" fill="#F9B32A"/>
<path d="M35.619 35.5399H51.2296V34.2411H34.9094L35.619 35.5399Z" fill="#F9B32A"/>
<path d="M37.2746 38.4915H51.2295V37.1927H36.4467L37.2746 38.4915Z" fill="#F9B32A"/>
<path d="M39.758 41.4434H51.2295V40.1447H38.5754L39.758 41.4434Z" fill="#F9B32A"/>
<path d="M33.1354 21.2532H51.2296V19.8363H33.3719L33.1354 21.2532Z" fill="#F9B32A"/>
<path d="M44.1339 29.6362H50.9931V28.3374H44.3704L44.1339 29.6362Z" fill="#F9B32A"/>
<path d="M44.7251 26.6843H50.993V25.2675H44.9616L44.7251 26.6843Z" fill="#F9B32A"/>
<path d="M32.6624 25.2675H34.4363V26.6843H32.7806L32.6624 25.2675Z" fill="#F9B32A"/>
<path d="M29.351 23.7327H29.2328H29.1145L28.9962 23.6147H28.878H28.7597H28.6415H28.5232H28.4049H28.2867H28.0501L27.9319 23.4966H27.8136L27.5771 23.6147H27.3406H27.104H26.9858H26.7493L26.631 23.7327H26.5127L26.3945 23.8508H26.2762L26.1579 23.9689L26.0397 24.0869V24.205V24.3231V24.4412V24.5592L26.1579 24.6773L26.2762 24.7954L26.3945 25.0315L26.631 25.1496L26.8675 25.2677H27.104L27.3406 25.3857L27.5771 25.5038L27.9319 25.6219L28.1684 25.74L28.4049 25.858L28.6415 25.9761L28.878 26.2122L28.9962 26.4484L29.1145 26.8026L29.2328 27.1568V27.6291V28.1014V28.4556L29.1145 28.8098L28.9962 29.164L28.7597 29.4002L28.6415 29.6363L28.4049 29.8725L28.1684 30.1086L27.9319 30.2267L27.5771 30.3448L27.3406 30.4628L27.104 30.5809H26.7493L26.5127 30.699H26.2762H25.9214H25.6849H25.3301H24.9753H24.7388H24.5023H24.1475H24.0292H23.7927L23.5562 30.5809H23.4379H23.2014H23.0831L22.9649 30.4628H22.8466H22.7283L22.4918 30.3448H22.3735L22.7283 28.4556H22.8466L22.9649 28.5737H23.0831H23.2014L23.3196 28.6918H23.5562H23.6744H23.911L24.1475 28.8098H24.2657H24.5023H24.7388H24.9753L25.2118 28.9279H25.4484L25.6849 28.8098H25.9214L26.1579 28.6918H26.2762L26.3945 28.5737L26.5127 28.4556L26.631 28.3375V28.2195V27.9833V27.7472V27.6291L26.5127 27.393L26.2762 27.2749L26.0397 27.1568L25.6849 27.0387L25.3301 26.9207L25.0936 26.8026L24.7388 26.6845L24.384 26.4484L24.1475 26.2122L23.911 25.9761L23.6744 25.74L23.5562 25.2677L23.4379 24.9134V24.3231V23.9689L23.5562 23.7327L23.6744 23.3785V23.1424L23.911 22.9062L24.0292 22.6701L24.1475 22.4339L24.384 22.3159L24.6205 22.1978L24.8571 21.9616L25.2118 21.8436H25.5666L25.9214 21.7255H26.2762L26.7493 21.6074H27.2223H27.5771H27.8136H28.0501H28.2867L28.5232 21.7255H28.7597H28.878H28.9962H29.1145H29.2328H29.351L29.4693 21.8436H29.5876H29.7058H29.8241L29.351 23.7327Z" fill="#FEFEFE"/>
<path d="M31.3615 19.8363H33.6085L33.2537 21.8435H34.6729L34.3181 23.6146H32.899L32.0711 28.2194V28.4556L32.1894 28.5737V28.6917H32.3076L32.4259 28.8098H32.6624L32.7807 28.9279H33.0172H33.2537H33.372L33.4903 28.8098H33.6085H33.7268H33.8451V28.6917H33.9633L33.6085 30.2267V30.3447H33.4903L33.372 30.4628H33.2537H33.1355L33.0172 30.5809H32.899H32.7807H32.6624H32.5442L32.4259 30.699H32.1894H31.5981L31.2433 30.5809H31.0068H30.7702L30.5337 30.4628H30.2972L30.1789 30.3447L30.0607 30.2267L29.9424 30.1086L29.8241 29.9905V29.8724L29.7059 29.7544V29.5182V29.4002V29.164V29.0459V28.8098L31.3615 19.8363Z" fill="#FEFEFE"/>
<path d="M36.4467 26.8026V26.9207V27.0387V27.2749L36.565 27.393V27.511L36.6832 27.7472V27.8653L36.8015 27.9833L36.9198 28.1014L37.038 28.2195L37.1563 28.3375L37.3928 28.4556L37.5111 28.5737L37.6293 28.6918H37.8659H37.9841L38.2207 28.8098H38.4572H38.5754H38.812H39.0485H39.285H39.5215H39.7581H39.9946L40.1129 28.6918H40.3494L40.5859 28.5737H40.8224L41.059 28.4556L41.2955 28.3375L41.532 28.2195L41.1772 30.2267H41.059L40.9407 30.3448H40.8224L40.7042 30.4628H40.5859H40.4676L40.3494 30.5809H40.2311H39.9946H39.8763H39.6398L39.5215 30.699H39.285H39.0485H38.812H38.5754H38.1024L37.7476 30.5809H37.2746L36.9198 30.4628L36.4467 30.3448L36.0919 30.2267L35.7371 29.9906L35.3824 29.7544L35.0276 29.4002L34.791 29.046L34.5545 28.6918L34.318 28.3375L34.1997 27.7472L34.0815 27.2749V26.6845V25.9761L34.1997 25.74V25.3857L34.318 25.0315V24.6773L34.4363 24.3231L34.6728 23.9689L34.791 23.6147L35.0276 23.2604L35.2641 22.9062L35.6189 22.6701L35.9737 22.3159L36.4467 22.0797L36.9198 21.9616L37.3928 21.7255L37.9841 21.6074H38.6937H39.0485L39.4033 21.7255H39.7581L39.9946 21.8436L40.3494 21.9616L40.7042 22.0797L40.9407 22.3159L41.2955 22.552L41.532 22.7881L41.7685 23.1424L41.8868 23.4966L42.0051 23.9689L42.1233 24.4412V25.0315L42.0051 25.6219L41.8868 26.3303V26.8026H35.8554L36.2102 25.1496H39.8763V25.0315V24.7954V24.5592L39.7581 24.4412V24.3231L39.6398 24.205V24.0869L39.5215 23.9689L39.4033 23.8508L39.285 23.7327L39.1668 23.6147H39.0485L38.9302 23.4966H38.812H38.6937H38.4572H38.3389H38.2207H38.1024L37.8659 23.6147H37.7476L37.6293 23.7327L37.5111 23.8508L37.3928 23.9689L37.2746 24.0869L37.1563 24.205V24.3231L37.038 24.4412L36.9198 24.5592V24.7954L36.8015 24.9134V25.0315L36.4467 26.8026Z" fill="#FEFEFE"/>
<path d="M56.1967 22.3158L56.0785 22.1977L55.9602 22.0796H55.7237H55.6054L55.4871 21.9616H55.3689L55.2506 21.8435H55.0141H54.8958L54.7776 21.7254H54.541H54.4228H54.1863H53.9497H53.8315H53.5949H53.3584H53.1219L52.8854 21.8435H52.6488L52.4123 21.9616L52.1758 22.0796L51.9393 22.1977L51.7027 22.4339L51.5845 22.67L51.348 22.9062L51.1114 23.1423L50.9932 23.4965L50.7566 23.9688L50.6384 24.4411L50.5201 24.9134L50.4019 25.2676V25.5037V25.858V26.0941V26.4483L50.5201 26.6845V26.9206L50.6384 27.1568L50.7566 27.3929L50.8749 27.629L51.1114 27.7471L51.2297 27.9833L51.4662 28.1013L51.821 28.2194L52.0575 28.3375L52.4123 28.4555H52.6488H52.7671H52.8854H53.1219H53.2402H53.4767H53.7132H53.9497H54.068L54.3045 28.3375H54.541L54.7776 28.2194L54.8958 28.1013L55.1324 27.9833L55.2506 27.8652L54.8958 29.9905V30.1086H54.7776V30.2266H54.6593L54.541 30.3447H54.4228L54.3045 30.4628H54.1863H53.9497L53.7132 30.5808H53.4767H53.2402L52.8854 30.6989H52.5306H52.0575L51.7027 30.5808H51.2297L50.8749 30.4628L50.5201 30.3447L50.1653 30.2266L49.8105 29.9905L49.4558 29.7543L49.101 29.5182L48.7462 29.164L48.5097 28.8098L48.2731 28.3375L48.0366 27.8652L47.9183 27.3929L47.8001 26.8025V26.2122V25.6218L47.9183 24.9134V24.5592L48.0366 24.2049L48.1549 23.9688V23.6146L48.2731 23.3784L48.3914 23.0242L48.5097 22.7881L48.6279 22.5519L48.7462 22.1977L48.8644 21.9616L48.9827 21.7254L49.2192 21.6074L49.3375 21.3712L49.4558 21.1351L49.6923 21.017L49.8105 20.7809L50.0471 20.6628L50.1653 20.4266L50.4019 20.3086L50.6384 20.1905L50.8749 20.0724L51.1114 19.9543L51.2297 19.8363H51.5845L51.821 19.7182L52.0575 19.6001H52.2941L52.5306 19.4821H52.8854H53.1219H53.4767H53.8315H54.068H54.3045H54.541H54.7776L55.0141 19.6001H55.2506H55.4871L55.7237 19.7182H55.8419L56.0785 19.8363H56.1967H56.315L56.4332 19.9543H56.5515H56.6698L56.1967 22.3158Z" fill="#FEFEFE"/>
<path d="M76.656 30.699H74.2908L74.5273 29.7544V29.6363L74.409 29.8724L74.1725 29.9905L74.0543 30.1086L73.936 30.2267L73.8177 30.3447L73.5812 30.4628H73.4629L73.3447 30.5809H73.2264L72.9899 30.699H72.8716H72.6351H72.5168L72.3986 30.817H72.1621H72.0438L71.5707 30.699H71.216L70.8612 30.4628L70.5064 30.3447L70.2699 30.1086L69.9151 29.7544L69.6785 29.5182L69.5603 29.164L69.3238 28.8098L69.2055 28.3375L69.0872 27.9833V27.511V27.1568V26.6845V26.3303L69.2055 25.858L69.3238 25.3857L69.442 24.9134L69.5603 24.4411L69.7968 24.0869L70.0333 23.7327L70.2699 23.3785L70.5064 23.1423L70.8612 22.7881L71.0977 22.552L71.4525 22.4339L71.689 22.1977L72.0438 22.0797L72.3986 21.9616L72.7534 21.8435H72.9899H73.3447H73.5812H73.8177H74.0543L74.2908 21.9616H74.409L74.6456 22.0797L74.7638 22.1977L74.8821 22.3158H75.0004L75.2369 22.4339V22.552L75.3551 22.67L75.4734 22.7881L75.5917 22.9062V23.0243L75.7099 23.1423L76.183 19.8363H78.5482L76.656 30.699Z" fill="#FEFEFE"/>
<path d="M72.8717 28.6918H73.1082L73.3447 28.5737H73.463L73.6995 28.4556L73.936 28.3376L74.0543 28.2195L74.1726 28.1014L74.2908 27.9834L74.4091 27.7472L74.5274 27.6291L74.6456 27.393L74.7639 27.1569L74.8821 27.0388V26.8026L75.0004 26.5665V26.3303L75.1187 26.0942V25.8581V25.6219V25.3858V25.1496L75.0004 25.0316V24.7954L74.8821 24.5593V24.4412L74.7639 24.3231L74.6456 24.087L74.5274 23.9689H74.4091L74.1726 23.8508H74.0543H73.8178H73.6995H73.463L73.2265 23.9689H73.1082L72.8717 24.087L72.7534 24.205L72.6352 24.3231L72.3986 24.5593L72.2804 24.6773L72.1621 24.9135L72.0438 25.1496V25.2677L71.9256 25.5038L71.8073 25.74V25.9761L71.6891 26.2123V26.5665V27.0388L71.8073 27.393L71.9256 27.7472L72.0438 28.1014L72.2804 28.4556L72.5169 28.5737L72.8717 28.6918Z" fill="#FE9900"/>
<path d="M22.0188 28.8098L21.664 30.699H19.6535V30.3447V29.9905L19.7718 29.7544V29.6363L19.6535 29.7544L19.5352 29.8725L19.417 29.9905L19.1805 30.1086L18.9439 30.2267L18.8257 30.3447L18.5891 30.4628L18.3526 30.5809H18.1161L17.8796 30.699H17.643L17.4065 30.817H17.17H16.9335H16.6969L16.4604 30.699H16.1056L15.8691 30.5809L15.6326 30.4628L15.3961 30.3447L15.2778 30.2267L15.1595 30.1086L14.923 29.8725L14.8047 29.7544V29.5182L14.6865 29.4002L14.5682 29.164V29.0459V28.8098L14.45 28.6917V28.4556V28.3375L14.5682 27.9833V27.6291L14.6865 27.3929L14.8047 27.0387L14.923 26.8026L15.0413 26.5664L15.1595 26.3303L15.3961 26.0941L15.6326 25.9761L15.8691 25.7399L16.1056 25.6218L16.3422 25.5038L16.5787 25.3857L16.8152 25.2676H17.17L17.4065 25.1496H17.5248H17.643H17.7613H17.8796H17.9978L18.1161 25.0315H18.2344H18.3526H18.5891H18.7074H18.8257H18.9439H19.0622H19.1805H19.2987H19.5352H19.7718H19.89H20.0083H20.1266H20.2448L20.3631 24.7953V24.6773V24.4411V24.3231L20.2448 24.205V23.9688L20.0083 23.8508L19.89 23.7327H19.7718L19.5352 23.6146H19.2987H19.0622H18.8257H18.5891H18.3526H17.9978H17.7613L17.5248 23.7327H17.2883H17.0517L16.8152 23.8508H16.5787H16.3422L16.2239 23.9688H15.9874L15.8691 24.0869L16.4604 22.0797L16.5787 21.9616H16.8152L16.9335 21.8435H17.17H17.4065L17.5248 21.7255H17.7613H17.9978H18.2344H18.4709H18.7074H18.9439H19.2987H19.5352H19.7718H20.1266H20.3631H20.5996L20.8361 21.8435L21.0727 21.9616H21.4274L21.664 22.0797L21.9005 22.3158L22.137 22.4339L22.2553 22.552L22.4918 22.7881L22.6101 23.0243L22.7283 23.2604L22.8466 23.4965L22.9649 23.8508V24.0869L22.8466 24.4411L22.0188 28.8098Z" fill="#FEFEFE"/>
<path d="M20.0082 26.6845V26.5664H19.89H19.7717H19.6534H19.5352H19.4169H19.2987H19.1804H19.0621H18.8256H18.7073H18.5891V26.6845H18.4708H18.3526H18.2343L18.116 26.8026H17.9978L17.8795 26.9206H17.7612L17.643 27.0387H17.5247V27.1568L17.4065 27.2748L17.2882 27.3929L17.1699 27.511V27.6291L17.0517 27.7471V27.8652V28.1013V28.3375L17.1699 28.5736L17.2882 28.6917H17.4065L17.5247 28.8098H17.643H17.8795H18.116H18.3526H18.4708L18.7073 28.6917H18.8256L19.0621 28.5736L19.1804 28.4556H19.2987L19.4169 28.3375L19.5352 28.2194V28.1013L19.6534 27.9833L19.7717 27.8652V27.7471V27.6291L19.89 27.3929V27.1568L20.0082 26.9206V26.6845Z" fill="#CC0001"/>
<path d="M4.63423 30.699H2.38724L4.27944 19.8363H8.1821L8.53689 26.2122L11.2569 19.8363H15.2779L13.3857 30.699H11.1387L12.5578 22.552H12.4396L9.1282 30.699H6.52643V30.3447V29.4002L6.40816 28.1014L6.2899 26.6845V25.1496L6.17164 23.8508V22.9062L6.05338 22.552H5.93511L4.63423 30.699Z" fill="#FEFEFE"/>
<path d="M57.4976 22.0796L56.9063 24.0868H57.0245L57.6159 22.0796L57.4976 22.1977V22.0796Z" fill="#FEFEFE"/>
<path d="M61.1637 21.6074H60.9272H60.6906H60.3358H60.0993H59.8628H59.6263H59.3897L59.1532 21.7255H58.9167H58.6802H58.4436L58.3254 21.8436H58.0889L57.8523 21.9616H57.7341L57.4975 22.0797V22.1978L57.7341 22.0797L57.9706 21.9616H58.0889H58.3254L58.5619 21.8436H58.6802H58.9167L59.1532 21.7255H59.3897H59.6263H59.8628H60.0993H60.3358H60.6906H60.9272H61.1637V21.6074Z" fill="#FEFEFE"/>
<path d="M63.174 28.8097L64.0019 24.441H63.8836L63.0558 28.8097H63.174Z" fill="#FEFEFE"/>
<path d="M63.7654 30.699H66.1306L66.9585 25.9761V25.7399V25.6218L67.0767 25.3857V25.2676L67.195 25.0315L67.3132 24.9134L67.4315 24.6773L67.5498 24.5592L67.668 24.4411L67.7863 24.3231L68.0228 24.205L68.2593 24.0869L68.4959 23.9688L68.7324 23.8508H69.0872H69.3237H69.442H69.5602L69.915 21.7255H69.6785H69.442L69.3237 21.8435H69.0872L68.8507 21.9616H68.7324L68.6141 22.0797L68.3776 22.1978L68.2593 22.3158L68.1411 22.4339L68.0228 22.552L67.9046 22.67L67.7863 22.7881L67.5498 23.0243L67.4315 23.1423L67.3132 23.2604L67.668 21.8435H65.3028L63.7654 30.699Z" fill="#FEFEFE"/>
<path d="M41.7687 30.699H44.134L44.9618 25.9761V25.7399L45.0801 25.6218V25.3857L45.1983 25.2676V25.1496L45.3166 24.9134L45.4348 24.7953L45.5531 24.6773L45.6714 24.5592L45.7896 24.4411L46.0262 24.3231L46.1444 24.205L46.3809 24.0869H46.6175H46.9723L47.327 23.9688H47.4453V24.0869H47.5636V23.9688V23.7327L47.6818 23.6146V23.3785L47.8001 23.1423V22.9062L47.9184 22.67V22.552L48.0366 22.3158L48.1549 22.1978L48.2731 22.0797V21.9616L48.3914 21.8435V21.7255H48.2731H48.1549H48.0366H47.8001H47.5636L47.327 21.8435H47.0905L46.9723 21.9616H46.7357L46.6175 22.0797L46.4992 22.1978L46.2627 22.3158L46.1444 22.4339L46.0262 22.552L45.9079 22.67L45.7896 22.7881L45.6714 23.0243L45.5531 23.1423L45.4348 23.2604L45.7896 21.8435H43.3061L41.7687 30.699Z" fill="#FEFEFE"/>
<path d="M29.351 23.7327H29.2328H29.1145L28.9962 23.6147H28.878H28.7597H28.6415H28.5232H28.4049H28.2867H28.0501L27.9319 23.4966H27.8136L27.5771 23.6147H27.3406H27.104H26.9858H26.7493L26.631 23.7327H26.5127L26.3945 23.8508H26.2762L26.1579 23.9689L26.0397 24.0869V24.205V24.3231V24.4412V24.5592L26.1579 24.6773L26.2762 24.7954L26.3945 25.0315L26.631 25.1496L26.8675 25.2677H27.104L27.3406 25.3857L27.5771 25.5038L27.9319 25.6219L28.1684 25.74L28.4049 25.858L28.6415 25.9761L28.878 26.2122L28.9962 26.4484L29.1145 26.8026L29.2328 27.1568V27.6291V28.1014V28.4556L29.1145 28.8098L28.9962 29.164L28.7597 29.4002L28.6415 29.6363L28.4049 29.8725L28.1684 30.1086L27.9319 30.2267L27.5771 30.3448L27.3406 30.4628L27.104 30.5809H26.7493L26.5127 30.699H26.2762H25.9214H25.6849H25.3301H24.9753H24.7388H24.5023H24.1475H24.0292H23.7927L23.5562 30.5809H23.4379H23.2014H23.0831L22.9649 30.4628H22.8466H22.7283L22.4918 30.3448H22.3735L22.7283 28.4556H22.8466L22.9649 28.5737H23.0831H23.2014L23.3196 28.6918H23.5562H23.6744H23.911L24.1475 28.8098H24.2657H24.5023H24.7388H24.9753L25.2118 28.9279H25.4484L25.6849 28.8098H25.9214L26.1579 28.6918H26.2762L26.3945 28.5737L26.5127 28.4556L26.631 28.3375V28.2195V27.9833V27.7472V27.6291L26.5127 27.393L26.2762 27.2749L26.0397 27.1568L25.6849 27.0387L25.3301 26.9207L25.0936 26.8026L24.7388 26.6845L24.384 26.4484L24.1475 26.2122L23.911 25.9761L23.6744 25.74L23.5562 25.2677L23.4379 24.9134V24.3231V23.9689L23.5562 23.7327L23.6744 23.3785V23.1424L23.911 22.9062L24.0292 22.6701L24.1475 22.4339L24.384 22.3159L24.6205 22.1978L24.8571 21.9616L25.2118 21.8436H25.5666L25.9214 21.7255H26.2762L26.7493 21.6074H27.2223H27.5771H27.8136H28.0501H28.2867L28.5232 21.7255H28.7597H28.878H28.9962H29.1145H29.2328H29.351L29.4693 21.8436H29.5876H29.7058H29.8241L29.351 23.7327Z" stroke="#FEFEFE" stroke-width="0.0693333"/>
<path d="M31.3615 19.8363H33.6085L33.2537 21.8435H34.6729L34.3181 23.6146H32.899L32.0711 28.2194V28.4556L32.1894 28.5737V28.6917H32.3076L32.4259 28.8098H32.6624L32.7807 28.9279H33.0172H33.2537H33.372L33.4903 28.8098H33.6085H33.7268H33.8451V28.6917H33.9633L33.6085 30.2267V30.3447H33.4903L33.372 30.4628H33.2537H33.1355L33.0172 30.5809H32.899H32.7807H32.6624H32.5442L32.4259 30.699H32.1894H31.5981L31.2433 30.5809H31.0068H30.7702L30.5337 30.4628H30.2972L30.1789 30.3447L30.0607 30.2267L29.9424 30.1086L29.8241 29.9905V29.8724L29.7059 29.7544V29.5182V29.4002V29.164V29.0459V28.8098L31.3615 19.8363Z" stroke="#FEFEFE" stroke-width="0.0693333"/>
<path d="M36.4467 26.8026V26.9207V27.0387V27.2749L36.565 27.393V27.511L36.6832 27.7472V27.8653L36.8015 27.9833L36.9198 28.1014L37.038 28.2195L37.1563 28.3375L37.3928 28.4556L37.5111 28.5737L37.6293 28.6918H37.8659H37.9841L38.2207 28.8098H38.4572H38.5754H38.812H39.0485H39.285H39.5215H39.7581H39.9946L40.1129 28.6918H40.3494L40.5859 28.5737H40.8224L41.059 28.4556L41.2955 28.3375L41.532 28.2195L41.1772 30.2267H41.059L40.9407 30.3448H40.8224L40.7042 30.4628H40.5859H40.4676L40.3494 30.5809H40.2311H39.9946H39.8763H39.6398L39.5215 30.699H39.285H39.0485H38.812H38.5754H38.1024L37.7476 30.5809H37.2746L36.9198 30.4628L36.4467 30.3448L36.0919 30.2267L35.7371 29.9906L35.3824 29.7544L35.0276 29.4002L34.791 29.046L34.5545 28.6918L34.318 28.3375L34.1997 27.7472L34.0815 27.2749V26.6845V25.9761L34.1997 25.74V25.3857L34.318 25.0315V24.6773L34.4363 24.3231L34.6728 23.9689L34.791 23.6147L35.0276 23.2604L35.2641 22.9062L35.6189 22.6701L35.9737 22.3159L36.4467 22.0797L36.9198 21.9616L37.3928 21.7255L37.9841 21.6074H38.6937H39.0485L39.4033 21.7255H39.7581L39.9946 21.8436L40.3494 21.9616L40.7042 22.0797L40.9407 22.3159L41.2955 22.552L41.532 22.7881L41.7685 23.1424L41.8868 23.4966L42.0051 23.9689L42.1233 24.4412V25.0315L42.0051 25.6219L41.8868 26.3303V26.8026H35.8554L36.2102 25.1496H39.8763V25.0315V24.7954V24.5592L39.7581 24.4412V24.3231L39.6398 24.205V24.0869L39.5215 23.9689L39.4033 23.8508L39.285 23.7327L39.1668 23.6147H39.0485L38.9302 23.4966H38.812H38.6937H38.4572H38.3389H38.2207H38.1024L37.8659 23.6147H37.7476L37.6293 23.7327L37.5111 23.8508L37.3928 23.9689L37.2746 24.0869L37.1563 24.205V24.3231L37.038 24.4412L36.9198 24.5592V24.7954L36.8015 24.9134V25.0315L36.4467 26.8026Z" stroke="#FEFEFE" stroke-width="0.0693333"/>
<path d="M56.1967 22.3158L56.0785 22.1977L55.9602 22.0796H55.7237H55.6054L55.4871 21.9616H55.3689L55.2506 21.8435H55.0141H54.8958L54.7776 21.7254H54.541H54.4228H54.1863H53.9497H53.8315H53.5949H53.3584H53.1219L52.8854 21.8435H52.6488L52.4123 21.9616L52.1758 22.0796L51.9393 22.1977L51.7027 22.4339L51.5845 22.67L51.348 22.9062L51.1114 23.1423L50.9932 23.4965L50.7566 23.9688L50.6384 24.4411L50.5201 24.9134L50.4019 25.2676V25.5037V25.858V26.0941V26.4483L50.5201 26.6845V26.9206L50.6384 27.1568L50.7566 27.3929L50.8749 27.629L51.1114 27.7471L51.2297 27.9833L51.4662 28.1013L51.821 28.2194L52.0575 28.3375L52.4123 28.4555H52.6488H52.7671H52.8854H53.1219H53.2402H53.4767H53.7132H53.9497H54.068L54.3045 28.3375H54.541L54.7776 28.2194L54.8958 28.1013L55.1324 27.9833L55.2506 27.8652L54.8958 29.9905V30.1086H54.7776V30.2266H54.6593L54.541 30.3447H54.4228L54.3045 30.4628H54.1863H53.9497L53.7132 30.5808H53.4767H53.2402L52.8854 30.6989H52.5306H52.0575L51.7027 30.5808H51.2297L50.8749 30.4628L50.5201 30.3447L50.1653 30.2266L49.8105 29.9905L49.4558 29.7543L49.101 29.5182L48.7462 29.164L48.5097 28.8098L48.2731 28.3375L48.0366 27.8652L47.9183 27.3929L47.8001 26.8025V26.2122V25.6218L47.9183 24.9134V24.5592L48.0366 24.2049L48.1549 23.9688V23.6146L48.2731 23.3784L48.3914 23.0242L48.5097 22.7881L48.6279 22.5519L48.7462 22.1977L48.8644 21.9616L48.9827 21.7254L49.2192 21.6074L49.3375 21.3712L49.4558 21.1351L49.6923 21.017L49.8105 20.7809L50.0471 20.6628L50.1653 20.4266L50.4019 20.3086L50.6384 20.1905L50.8749 20.0724L51.1114 19.9543L51.2297 19.8363H51.5845L51.821 19.7182L52.0575 19.6001H52.2941L52.5306 19.4821H52.8854H53.1219H53.4767H53.8315H54.068H54.3045H54.541H54.7776L55.0141 19.6001H55.2506H55.4871L55.7237 19.7182H55.8419L56.0785 19.8363H56.1967H56.315L56.4332 19.9543H56.5515H56.6698L56.1967 22.3158Z" stroke="#FEFEFE" stroke-width="0.0693333"/>
<path d="M76.656 30.699H74.2908L74.5273 29.7544V29.6363L74.409 29.8724L74.1725 29.9905L74.0543 30.1086L73.936 30.2267L73.8177 30.3447L73.5812 30.4628H73.4629L73.3447 30.5809H73.2264L72.9899 30.699H72.8716H72.6351H72.5168L72.3986 30.817H72.1621H72.0438L71.5707 30.699H71.216L70.8612 30.4628L70.5064 30.3447L70.2699 30.1086L69.9151 29.7544L69.6785 29.5182L69.5603 29.164L69.3238 28.8098L69.2055 28.3375L69.0872 27.9833V27.511V27.1568V26.6845V26.3303L69.2055 25.858L69.3238 25.3857L69.442 24.9134L69.5603 24.4411L69.7968 24.0869L70.0333 23.7327L70.2699 23.3785L70.5064 23.1423L70.8612 22.7881L71.0977 22.552L71.4525 22.4339L71.689 22.1977L72.0438 22.0797L72.3986 21.9616L72.7534 21.8435H72.9899H73.3447H73.5812H73.8177H74.0543L74.2908 21.9616H74.409L74.6456 22.0797L74.7638 22.1977L74.8821 22.3158H75.0004L75.2369 22.4339V22.552L75.3551 22.67L75.4734 22.7881L75.5917 22.9062V23.0243L75.7099 23.1423L76.183 19.8363H78.5482L76.656 30.699Z" stroke="#FEFEFE" stroke-width="0.0693333"/>
<path d="M22.0188 28.8098L21.664 30.699H19.6535V30.3447V29.9905L19.7718 29.7544V29.6363L19.6535 29.7544L19.5352 29.8725L19.417 29.9905L19.1805 30.1086L18.9439 30.2267L18.8257 30.3447L18.5891 30.4628L18.3526 30.5809H18.1161L17.8796 30.699H17.643L17.4065 30.817H17.17H16.9335H16.6969L16.4604 30.699H16.1056L15.8691 30.5809L15.6326 30.4628L15.3961 30.3447L15.2778 30.2267L15.1595 30.1086L14.923 29.8725L14.8047 29.7544V29.5182L14.6865 29.4002L14.5682 29.164V29.0459V28.8098L14.45 28.6917V28.4556V28.3375L14.5682 27.9833V27.6291L14.6865 27.3929L14.8047 27.0387L14.923 26.8026L15.0413 26.5664L15.1595 26.3303L15.3961 26.0941L15.6326 25.9761L15.8691 25.7399L16.1056 25.6218L16.3422 25.5038L16.5787 25.3857L16.8152 25.2676H17.17L17.4065 25.1496H17.5248H17.643H17.7613H17.8796H17.9978L18.1161 25.0315H18.2344H18.3526H18.5891H18.7074H18.8257H18.9439H19.0622H19.1805H19.2987H19.5352H19.7718H19.89H20.0083H20.1266H20.2448L20.3631 24.7953V24.6773V24.4411V24.3231L20.2448 24.205V23.9688L20.0083 23.8508L19.89 23.7327H19.7718L19.5352 23.6146H19.2987H19.0622H18.8257H18.5891H18.3526H17.9978H17.7613L17.5248 23.7327H17.2883H17.0517L16.8152 23.8508H16.5787H16.3422L16.2239 23.9688H15.9874L15.8691 24.0869L16.4604 22.0797L16.5787 21.9616H16.8152L16.9335 21.8435H17.17H17.4065L17.5248 21.7255H17.7613H17.9978H18.2344H18.4709H18.7074H18.9439H19.2987H19.5352H19.7718H20.1266H20.3631H20.5996L20.8361 21.8435L21.0727 21.9616H21.4274L21.664 22.0797L21.9005 22.3158L22.137 22.4339L22.2553 22.552L22.4918 22.7881L22.6101 23.0243L22.7283 23.2604L22.8466 23.4965L22.9649 23.8508V24.0869L22.8466 24.4411L22.0188 28.8098Z" stroke="#FEFEFE" stroke-width="0.0693333"/>
<path d="M4.63423 30.699H2.38724L4.27944 19.8363H8.1821L8.53689 26.2122L11.2569 19.8363H15.2779L13.3857 30.699H11.1387L12.5578 22.552H12.4396L9.1282 30.699H6.52643V30.3447V29.4002L6.40816 28.1014L6.2899 26.6845V25.1496L6.17164 23.8508V22.9062L6.05338 22.552H5.93511L4.63423 30.699Z" stroke="#FEFEFE" stroke-width="0.0693333"/>
<path d="M63.1741 28.8098L62.8193 30.5809H60.8088C60.8088 30.5809 60.8088 29.7544 60.8088 29.6363V29.5183V29.6363L60.6906 29.7544L60.5723 29.8725L60.3358 29.9906L60.2175 30.1086L60.0993 30.2267L59.8627 30.3448H59.6262L59.5079 30.4628L59.2714 30.5809H59.0349L58.7984 30.699H58.5618H58.3253H58.0888H57.8523H57.6157L57.3792 30.5809L57.0244 30.4628L56.9062 30.3448L56.6696 30.2267L56.4331 30.1086L56.3149 29.9906L56.1966 29.8725L56.0783 29.6363L55.9601 29.5183V29.2821L55.8418 29.164V28.9279L55.7235 28.8098V28.5737V28.4556V28.2195V27.9833L55.8418 27.6291V27.393L55.9601 27.0387L56.0783 26.8026L56.1966 26.5665L56.4331 26.3303L56.5514 26.0942L56.7879 25.9761L57.0244 25.74L57.261 25.6219L57.4975 25.5038L57.734 25.3857L58.0888 25.2677H58.3253L58.5618 25.1496H58.6801H58.7984H58.9166H59.0349H59.1532H59.2714L59.3897 25.0315H59.5079H59.7445H59.8627H59.981H60.0993H60.2175H60.3358H60.454H60.6906H60.9271H61.0454H61.1636H61.4001H61.5184V24.9134V24.7954V24.6773L61.6367 24.4412C61.6367 24.0869 61.2819 23.8508 60.9271 23.6147H60.6906H60.454H60.3358H59.981H59.7445H59.5079H59.2714H58.9166H58.6801L58.4436 23.7327H58.2071H57.9705L57.734 23.8508H57.4975H57.3792L57.261 23.9689H57.1427L57.0244 24.0869L57.6157 22.0797L57.734 21.9616H57.9705L58.2071 21.8436H58.3253L58.5618 21.7255H58.7984H59.0349H59.1532H59.3897H59.6262L59.8627 21.6074H60.2175H60.454H60.6906L60.9271 21.7255H61.2819H61.5184H61.7549L61.9915 21.8436H62.228L62.4645 21.9616L62.8193 22.0797L63.0558 22.1978L63.2923 22.4339L63.4106 22.552L63.6471 22.7881L63.7654 23.0243L63.8837 23.2604L64.0019 23.4966L64.1202 23.7327V24.0869L64.0019 24.4412L63.1741 28.8098ZM61.1636 26.6845V26.5665H61.0454L60.9271 26.4484H60.8088H60.6906H60.5723H60.454L60.2175 26.5665H60.0993H59.981H59.8627H59.7445H59.6262V26.6845H59.5079H59.3897H59.2714L59.1532 26.8026H59.0349L58.9166 26.9207L58.7984 27.0387L58.6801 27.1568H58.5618L58.4436 27.2749V27.393L58.3253 27.511V27.6291L58.2071 27.8653V28.1014L58.3253 28.3375V28.4556L58.4436 28.5737L58.5618 28.6918L58.6801 28.8098H58.9166H59.0349H59.2714H59.5079L59.7445 28.6918H59.8627L60.0993 28.5737L60.2175 28.4556H60.3358L60.454 28.3375L60.5723 28.2195L60.6906 28.1014L60.8088 27.9833H60.9271V27.8653L61.0454 27.7472V27.6291V27.511V27.2749L61.1636 27.0387V26.8026V26.6845Z" fill="#FEFEFE"/>
<path d="M63.7654 30.699H66.1306L66.9585 25.9761V25.7399V25.6218L67.0767 25.3857V25.2676L67.195 25.0315L67.3132 24.9134L67.4315 24.6773L67.5498 24.5592L67.668 24.4411L67.7863 24.3231L68.0228 24.205L68.2593 24.0869L68.4959 23.9688L68.7324 23.8508H69.0872H69.3237H69.442H69.5602L69.915 21.7255H69.6785H69.442L69.3237 21.8435H69.0872L68.8507 21.9616H68.7324L68.6141 22.0797L68.3776 22.1978L68.2593 22.3158L68.1411 22.4339L68.0228 22.552L67.9046 22.67L67.7863 22.7881L67.5498 23.0243L67.4315 23.1423L67.3132 23.2604L67.668 21.8435H65.3028L63.7654 30.699Z" stroke="#FEFEFE" stroke-width="0.0693333"/>
<path d="M41.7687 30.699H44.134L44.9618 25.9761V25.7399L45.0801 25.6218V25.3857L45.1983 25.2676V25.1496L45.3166 24.9134L45.4348 24.7953L45.5531 24.6773L45.6714 24.5592L45.7896 24.4411L46.0262 24.3231L46.1444 24.205L46.3809 24.0869H46.6175H46.9723L47.327 23.9688H47.4453V24.0869H47.5636V23.9688V23.7327L47.6818 23.6146V23.3785L47.8001 23.1423V22.9062L47.9184 22.67V22.552L48.0366 22.3158L48.1549 22.1978L48.2731 22.0797V21.9616L48.3914 21.8435V21.7255H48.2731H48.1549H48.0366H47.8001H47.5636L47.327 21.8435H47.0905L46.9723 21.9616H46.7357L46.6175 22.0797L46.4992 22.1978L46.2627 22.3158L46.1444 22.4339L46.0262 22.552L45.9079 22.67L45.7896 22.7881L45.6714 23.0243L45.5531 23.1423L45.4348 23.2604L45.7896 21.8435H43.3061L41.7687 30.699Z" stroke="#FEFEFE" stroke-width="0.0693333"/>
</g>
<defs>
<clipPath id="clip0_104_1898">
<rect width="82" height="49" fill="white"/>
</clipPath>
</defs>
</svg>
