<svg width="46" height="28" viewBox="0 0 46 28" fill="none" xmlns="http://www.w3.org/2000/svg">
<path d="M32.0924 27.0345H32.7504L33.4741 26.9693L34.1321 26.9042L34.79 26.7739L35.5138 26.6436L36.1059 26.4482L36.7639 26.1876L37.356 25.9922L38.014 25.7316L38.6062 25.4059L39.1325 25.0802L39.7247 24.7545L40.251 24.3636L40.7774 23.9727L41.238 23.5167L41.7643 23.0607L42.2249 22.6047L42.6197 22.0836L43.0144 21.6276L43.4092 21.0413L43.7382 20.5201L44.0672 19.9339L44.3961 19.3476L44.6593 18.7613L44.9225 18.175L45.1199 17.5236L45.3173 16.8721L45.4489 16.2207L45.5805 15.5693L45.6463 14.8527L45.712 14.2012V13.4847V12.8332L45.6463 12.1167L45.5805 11.4652L45.4489 10.7486L45.3173 10.0972L45.1199 9.51093L44.9225 8.85949L44.6593 8.2732L44.3961 7.62177L44.0672 7.10062L43.7382 6.51433L43.4092 5.92804L43.0144 5.4069L42.6197 4.95089L42.2249 4.42975L41.7643 3.97374L41.238 3.51774L40.7774 3.06174L40.251 2.67088L39.7247 2.28002L39.1325 1.9543L38.6062 1.62858L38.014 1.36801L37.356 1.04229L36.7639 0.846863L36.1059 0.58629L35.5138 0.456003L34.79 0.260573L34.1321 0.130287L33.4741 0.0651433L32.7504 0H32.0924H31.3687L30.6449 0.0651433L29.987 0.130287L29.329 0.260573L28.6711 0.456003L28.0131 0.58629L27.3551 0.846863L26.763 1.04229L26.1708 1.36801L25.5787 1.62858L24.9865 1.9543L24.4602 2.28002L23.9338 2.67088L23.4074 3.06174L22.8811 3.51774L22.4205 3.97374L21.9599 4.42975L21.5652 4.95089L21.1704 5.4069L20.7756 5.92804L20.3808 6.51433L20.0519 7.10062L19.7887 7.62177L19.5255 8.2732L19.2623 8.85949L19.0649 9.51093L18.8675 10.0972L18.736 10.7486L18.6044 11.4652L18.4728 12.1167V12.8332L18.407 13.4847L18.4728 14.2012V14.8527L18.6044 15.5693L18.736 16.2207L18.8675 16.8721L19.0649 17.5236L19.2623 18.175L19.5255 18.7613L19.7887 19.3476L20.0519 19.9339L20.3808 20.5201L20.7756 21.0413L21.1704 21.6276L21.5652 22.0836L21.9599 22.6047L22.4205 23.0607L22.8811 23.5167L23.4074 23.9727L23.9338 24.3636L24.4602 24.7545L24.9865 25.0802L25.5787 25.4059L26.1708 25.7316L26.763 25.9922L27.3551 26.1876L28.0131 26.4482L28.6711 26.6436L29.329 26.7739L29.987 26.9042L30.6449 26.9693L31.3687 27.0345H32.0924Z" fill="#DDDDDD"/>
<path d="M13.8012 27.0345H14.5249L15.1829 26.9693L15.8408 26.9042L16.5646 26.7739L17.2225 26.6436L17.8805 26.4482L18.4726 26.1876L19.1306 25.9922L19.7227 25.7316L20.3149 25.4059L20.8413 25.0802L21.4334 24.7545L21.9598 24.3636L22.4861 23.9727L22.9467 23.5167L23.4073 23.0607L23.8678 22.6047L24.3284 22.0836L24.7232 21.6276L25.118 21.0413L25.4469 20.5201L25.7759 19.9339L26.1049 19.3476L26.3681 18.7613L26.6312 18.175L26.8286 17.5236L27.026 16.8721L27.1576 16.2207L27.2892 15.5693L27.355 14.8527L27.4208 14.2012V13.4847V12.8332L27.355 12.1167L27.2892 11.4652L27.1576 10.7486L27.026 10.0972L26.8286 9.51093L26.6312 8.85949L26.3681 8.2732L26.1049 7.62177L25.7759 7.10062L25.4469 6.51433L25.118 5.92804L24.7232 5.4069L24.3284 4.95089L23.8678 4.42975L23.4073 3.97374L22.9467 3.51774L22.4861 3.06174L21.9598 2.67088L21.4334 2.28002L20.8413 1.9543L20.3149 1.62858L19.7227 1.36801L19.1306 1.04229L18.4726 0.846863L17.8805 0.58629L17.2225 0.456003L16.5646 0.260573L15.8408 0.130287L15.1829 0.0651433L14.5249 0H13.8012H13.0774L12.4195 0.0651433L11.6957 0.130287L11.0377 0.260573L10.3798 0.456003L9.72184 0.58629L9.06389 0.846863L8.47173 1.04229L7.87957 1.36801L7.28741 1.62858L6.69526 1.9543L6.16889 2.28002L5.64253 2.67088L5.11617 3.06174L4.58981 3.51774L4.12924 3.97374L3.66867 4.42975L3.2081 4.95089L2.81333 5.4069L2.41856 5.92804L2.08958 6.51433L1.76061 7.10062L1.49742 7.62177L1.16845 8.2732L0.971062 8.85949L0.707881 9.51093L0.57629 10.0972L0.378904 10.7486L0.247313 11.4652L0.181518 12.1167L0.115723 12.8332V13.4847V14.2012L0.181518 14.8527L0.247313 15.5693L0.378904 16.2207L0.57629 16.8721L0.707881 17.5236L0.971062 18.175L1.16845 18.7613L1.49742 19.3476L1.76061 19.9339L2.08958 20.5201L2.41856 21.0413L2.81333 21.6276L3.2081 22.0836L3.66867 22.6047L4.12924 23.0607L4.58981 23.5167L5.11617 23.9727L5.64253 24.3636L6.16889 24.7545L6.69526 25.0802L7.28741 25.4059L7.87957 25.7316L8.47173 25.9922L9.06389 26.1876L9.72184 26.4482L10.3798 26.6436L11.0377 26.7739L11.6957 26.9042L12.4195 26.9693L13.0774 27.0345H13.8012Z" fill="#C9C9C9"/>
<path d="M21.302 5.21141H28.6053V4.42969H21.96L21.302 5.21141Z" fill="#C9C9C9"/>
<path d="M20.2493 6.83983H28.6053V6.05811H20.7098L20.2493 6.83983Z" fill="#C9C9C9"/>
<path d="M19.4597 8.46849H28.6053V7.68677H19.7887L19.4597 8.46849Z" fill="#C9C9C9"/>
<path d="M18.8674 10.0971H28.6051V9.31543H19.1306L18.8674 10.0971Z" fill="#C9C9C9"/>
<path d="M19.1964 17.9795H28.6051V17.2629H18.999L19.1964 17.9795Z" fill="#C9C9C9"/>
<path d="M19.9202 19.6079H28.6051V18.8914H19.5254L19.9202 19.6079Z" fill="#C9C9C9"/>
<path d="M20.8414 21.2366H28.6053V20.52H20.3809L20.8414 21.2366Z" fill="#C9C9C9"/>
<path d="M22.2231 22.8653H28.6053V22.1487H21.5652L22.2231 22.8653Z" fill="#C9C9C9"/>
<path d="M18.5386 11.7258H28.6053V10.9441H18.6702L18.5386 11.7258Z" fill="#C9C9C9"/>
<path d="M24.6575 16.3509H28.4736V15.6343H24.7891L24.6575 16.3509Z" fill="#C9C9C9"/>
<path d="M24.9863 14.7221H28.4735V13.9404H25.1179L24.9863 14.7221Z" fill="#C9C9C9"/>
<path d="M18.2754 13.9404H19.2623V14.7221H18.3412L18.2754 13.9404Z" fill="#C9C9C9"/>
<path d="M16.433 13.0937H16.3672H16.3014L16.2356 13.0286H16.1698H16.104H16.0382H15.9724H15.9066H15.8408H15.7092L15.6434 12.9634H15.5776L15.446 13.0286H15.3144H15.1828H15.117H14.9855L14.9197 13.0937H14.8539L14.7881 13.1589H14.7223L14.6565 13.224L14.5907 13.2892V13.3543V13.4194V13.4846V13.5497L14.6565 13.6149L14.7223 13.68L14.7881 13.8103L14.9197 13.8754L15.0512 13.9406H15.1828L15.3144 14.0057L15.446 14.0709L15.6434 14.136L15.775 14.2012L15.9066 14.2663L16.0382 14.3314L16.1698 14.4617L16.2356 14.592L16.3014 14.7874L16.3672 14.9829V15.2435V15.504V15.6995L16.3014 15.8949L16.2356 16.0903L16.104 16.2206L16.0382 16.3509L15.9066 16.4812L15.775 16.6115L15.6434 16.6766L15.446 16.7417L15.3144 16.8069L15.1828 16.872H14.9855L14.8539 16.9372H14.7223H14.5249H14.3933H14.1959H13.9985H13.8669H13.7353H13.538H13.4722H13.3406L13.209 16.872H13.1432H13.0116H12.9458L12.88 16.8069H12.8142H12.7484L12.6168 16.7417H12.551L12.7484 15.6995H12.8142L12.88 15.7646H12.9458H13.0116L13.0774 15.8297H13.209H13.2748H13.4064L13.538 15.8949H13.6038H13.7353H13.8669H13.9985L14.1301 15.96H14.2617L14.3933 15.8949H14.5249L14.6565 15.8297H14.7223L14.7881 15.7646L14.8539 15.6995L14.9197 15.6343V15.5692V15.4389V15.3086V15.2435L14.8539 15.1132L14.7223 15.048L14.5907 14.9829L14.3933 14.9177L14.1959 14.8526L14.0643 14.7874L13.8669 14.7223L13.6695 14.592L13.538 14.4617L13.4064 14.3314L13.2748 14.2012L13.209 13.9406L13.1432 13.7452V13.4194V13.224L13.209 13.0937L13.2748 12.8983V12.768L13.4064 12.6377L13.4722 12.5074L13.538 12.3771L13.6695 12.312L13.8011 12.2469L13.9327 12.1166L14.1301 12.0514H14.3275L14.5249 11.9863H14.7223L14.9855 11.9211H15.2486H15.446H15.5776H15.7092H15.8408L15.9724 11.9863H16.104H16.1698H16.2356H16.3014H16.3672H16.433L16.4987 12.0514H16.5645H16.6303H16.6961L16.433 13.0937Z" fill="white"/>
<path d="M17.5515 10.9441H18.8016L18.6042 12.0515H19.3938L19.1964 13.0287H18.4068L17.9463 15.5693V15.6996L18.0121 15.7647V15.8298H18.0779L18.1437 15.895H18.2753L18.341 15.9601H18.4726H18.6042H18.67L18.7358 15.895H18.8016H18.8674H18.9332V15.8298H18.999L18.8016 16.6767V16.7418H18.7358L18.67 16.807H18.6042H18.5384L18.4726 16.8721H18.4068H18.341H18.2753H18.2095L18.1437 16.9373H18.0121H17.6831L17.4857 16.8721H17.3541H17.2225L17.0909 16.807H16.9593L16.8936 16.7418L16.8278 16.6767L16.762 16.6116L16.6962 16.5464V16.4813L16.6304 16.4161V16.2858V16.2207V16.0904V16.0253V15.895L17.5515 10.9441Z" fill="white"/>
<path d="M20.3808 14.7874V14.8526V14.9177V15.048L20.4466 15.1132V15.1783L20.5124 15.3086V15.3737L20.5782 15.4389L20.644 15.504L20.7098 15.5692L20.7756 15.6343L20.9072 15.6995L20.973 15.7646L21.0388 15.8297H21.1704H21.2362L21.3678 15.8949H21.4994H21.5652H21.6968H21.8283H21.9599H22.0915H22.2231H22.3547L22.4205 15.8297H22.5521L22.6837 15.7646H22.8153L22.9469 15.6995L23.0785 15.6343L23.21 15.5692L23.0127 16.6766H22.9469L22.8811 16.7417H22.8153L22.7495 16.8069H22.6837H22.6179L22.5521 16.872H22.4863H22.3547H22.2889H22.1573L22.0915 16.9372H21.9599H21.8283H21.6968H21.5652H21.302L21.1046 16.872H20.8414L20.644 16.8069L20.3808 16.7417L20.1835 16.6766L19.9861 16.5463L19.7887 16.416L19.5913 16.2206L19.4597 16.0252L19.3281 15.8297L19.1965 15.6343L19.1307 15.3086L19.0649 15.048V14.7223V14.3314L19.1307 14.2012V14.0057L19.1965 13.8103V13.6149L19.2623 13.4194L19.3939 13.224L19.4597 13.0286L19.5913 12.8331L19.7229 12.6377L19.9203 12.5074L20.1177 12.312L20.3808 12.1817L20.644 12.1166L20.9072 11.9863L21.2362 11.9211H21.631H21.8283L22.0257 11.9863H22.2231L22.3547 12.0514L22.5521 12.1166L22.7495 12.1817L22.8811 12.312L23.0785 12.4423L23.21 12.5726L23.3416 12.768L23.4074 12.9634L23.4732 13.224L23.539 13.4846V13.8103L23.4732 14.136L23.4074 14.5269V14.7874H20.0519L20.2493 13.8754H22.2889V13.8103V13.68V13.5497L22.2231 13.4846V13.4194L22.1573 13.3543V13.2892L22.0915 13.224L22.0257 13.1589L21.9599 13.0937L21.8941 13.0286H21.8283L21.7626 12.9634H21.6968H21.631H21.4994H21.4336H21.3678H21.302L21.1704 13.0286H21.1046L21.0388 13.0937L20.973 13.1589L20.9072 13.224L20.8414 13.2892L20.7756 13.3543V13.4194L20.7098 13.4846L20.644 13.5497V13.68L20.5782 13.7452V13.8103L20.3808 14.7874Z" fill="white"/>
<path d="M31.3685 12.312L31.3027 12.2468L31.2369 12.1817H31.1053H31.0395L30.9737 12.1165H30.9079L30.8421 12.0514H30.7105H30.6447L30.5789 11.9863H30.4474H30.3816H30.25H30.1184H30.0526H29.921H29.7894H29.6578L29.5262 12.0514H29.3946L29.263 12.1165L29.1314 12.1817L28.9999 12.2468L28.8683 12.3771L28.8025 12.5074L28.6709 12.6377L28.5393 12.768L28.4735 12.9634L28.3419 13.224L28.2761 13.4846L28.2103 13.7451L28.1445 13.9406V14.0708V14.2663V14.3966V14.592L28.2103 14.7223V14.8526L28.2761 14.9829L28.3419 15.1131L28.4077 15.2434L28.5393 15.3086L28.6051 15.4389L28.7367 15.504L28.9341 15.5691L29.0657 15.6343L29.263 15.6994H29.3946H29.4604H29.5262H29.6578H29.7236H29.8552H29.9868H30.1184H30.1842L30.3158 15.6343H30.4474L30.5789 15.5691L30.6447 15.504L30.7763 15.4389L30.8421 15.3737L30.6447 16.5463V16.6114H30.5789V16.6766H30.5132L30.4474 16.7417H30.3816L30.3158 16.8069H30.25H30.1184L29.9868 16.872H29.8552H29.7236L29.5262 16.9372H29.3288H29.0657L28.8683 16.872H28.6051L28.4077 16.8069L28.2103 16.7417L28.0129 16.6766L27.8155 16.5463L27.6182 16.416L27.4208 16.2857L27.2234 16.0903L27.0918 15.8949L26.9602 15.6343L26.8286 15.3737L26.7628 15.1131L26.697 14.7874V14.4617V14.136L26.7628 13.7451V13.5497L26.8286 13.3543L26.8944 13.224V13.0286L26.9602 12.8983L27.026 12.7028L27.0918 12.5725L27.1576 12.4423L27.2234 12.2468L27.2892 12.1165L27.355 11.9863L27.4866 11.9211L27.5524 11.7908L27.6182 11.6605L27.7497 11.5954L27.8155 11.4651L27.9471 11.4L28.0129 11.2697L28.1445 11.2045L28.2761 11.1394L28.4077 11.0743L28.5393 11.0091L28.6051 10.944H28.8025L28.9341 10.8788L29.0657 10.8137H29.1972L29.3288 10.7485H29.5262H29.6578H29.8552H30.0526H30.1842H30.3158H30.4474H30.5789L30.7105 10.8137H30.8421H30.9737L31.1053 10.8788H31.1711L31.3027 10.944H31.3685H31.4343L31.5001 11.0091H31.5659H31.6317L31.3685 12.312Z" fill="white"/>
<path d="M42.7512 16.9373H41.4353L41.5669 16.4161V16.351L41.5011 16.4813L41.3695 16.5464L41.3037 16.6116L41.2379 16.6767L41.1721 16.7418L41.0405 16.807H40.9747L40.9089 16.8721H40.8431L40.7115 16.9373H40.6457H40.5141H40.4483L40.3826 17.0024H40.251H40.1852L39.922 16.9373H39.7246L39.5272 16.807L39.3298 16.7418L39.1982 16.6116L39.0009 16.4161L38.8693 16.2858L38.8035 16.0904L38.6719 15.895L38.6061 15.6344L38.5403 15.439V15.1784V14.983V14.7224V14.527L38.6061 14.2664L38.6719 14.0058L38.7377 13.7453L38.8035 13.4847L38.9351 13.2893L39.0666 13.0938L39.1982 12.8984L39.3298 12.7681L39.5272 12.5727L39.6588 12.4424L39.8562 12.3772L39.9878 12.247L40.1852 12.1818L40.3826 12.1167L40.5799 12.0515H40.7115H40.9089H41.0405H41.1721H41.3037L41.4353 12.1167H41.5011L41.6327 12.1818L41.6985 12.247L41.7643 12.3121H41.8301L41.9616 12.3772V12.4424L42.0274 12.5075L42.0932 12.5727L42.159 12.6378V12.703L42.2248 12.7681L42.488 10.9441H43.8039L42.7512 16.9373Z" fill="white"/>
<path d="M40.6457 15.8296H40.7773L40.9089 15.7644H40.9747L41.1063 15.6993L41.2379 15.6341L41.3037 15.569L41.3695 15.5039L41.4353 15.4387L41.5011 15.3084L41.5669 15.2433L41.6327 15.113L41.6985 14.9827L41.7643 14.9176V14.7873L41.8301 14.657V14.5267L41.8959 14.3964V14.2661V14.1358V14.0056V13.8753L41.8301 13.8101V13.6798L41.7643 13.5496V13.4844L41.6985 13.4193L41.6327 13.289L41.5669 13.2238H41.5011L41.3695 13.1587H41.3037H41.1721H41.1063H40.9747L40.8431 13.2238H40.7773L40.6457 13.289L40.58 13.3541L40.5142 13.4193L40.3826 13.5496L40.3168 13.6147L40.251 13.745L40.1852 13.8753V13.9404L40.1194 14.0707L40.0536 14.201V14.3313L39.9878 14.4616V14.657V14.9176L40.0536 15.113L40.1194 15.3084L40.1852 15.5039L40.3168 15.6993L40.4484 15.7644L40.6457 15.8296Z" fill="#DDDDDD"/>
<path d="M12.3537 15.8949L12.1563 16.9372H11.0378V16.7418V16.5464L11.1036 16.4161V16.3509L11.0378 16.4161L10.972 16.4812L10.9062 16.5464L10.7746 16.6115L10.643 16.6766L10.5773 16.7418L10.4457 16.8069L10.3141 16.8721H10.1825L10.0509 16.9372H9.9193L9.78771 17.0024H9.65612H9.52452H9.39293L9.26134 16.9372H9.06396L8.93237 16.8721L8.80078 16.8069L8.66919 16.7418L8.60339 16.6766L8.53759 16.6115L8.406 16.4812L8.34021 16.4161V16.2858L8.27441 16.2206L8.20862 16.0904V16.0252V15.8949L8.14282 15.8298V15.6995V15.6344L8.20862 15.4389V15.2435L8.27441 15.1132L8.34021 14.9178L8.406 14.7875L8.4718 14.6572L8.53759 14.5269L8.66919 14.3966L8.80078 14.3315L8.93237 14.2012L9.06396 14.1361L9.19555 14.0709L9.32714 14.0058L9.45873 13.9406H9.65612L9.78771 13.8755H9.8535H9.9193H9.98509H10.0509H10.1167L10.1825 13.8103H10.2483H10.3141H10.4457H10.5115H10.5773H10.643H10.7088H10.7746H10.8404H10.972H11.1036H11.1694H11.2352H11.301H11.3668L11.4326 13.6801V13.6149V13.4846V13.4195L11.3668 13.3543V13.2241L11.2352 13.1589L11.1694 13.0938H11.1036L10.972 13.0286H10.8404H10.7088H10.5773H10.4457H10.3141H10.1167H9.98509L9.8535 13.0938H9.72191H9.59032L9.45873 13.1589H9.32714H9.19555L9.12975 13.2241H8.99816L8.93237 13.2892L9.26134 12.1818L9.32714 12.1166H9.45873L9.52452 12.0515H9.65612H9.78771L9.8535 11.9863H9.98509H10.1167H10.2483H10.3799H10.5115H10.643H10.8404H10.972H11.1036H11.301H11.4326H11.5642L11.6958 12.0515L11.8274 12.1166H12.0247L12.1563 12.1818L12.2879 12.312L12.4195 12.3772L12.4853 12.4423L12.6169 12.5726L12.6827 12.7029L12.7485 12.8332L12.8143 12.9635L12.8801 13.1589V13.2892L12.8143 13.4846L12.3537 15.8949Z" fill="white"/>
<path d="M11.2352 14.7226V14.6575H11.1694H11.1036H11.0378H10.972H10.9062H10.8404H10.7746H10.7089H10.5773H10.5115H10.4457V14.7226H10.3799H10.3141H10.2483L10.1825 14.7878H10.1167L10.0509 14.8529H9.9851L9.91931 14.918H9.85351V14.9832L9.78772 15.0483L9.72192 15.1135L9.65613 15.1786V15.2438L9.59033 15.3089V15.374V15.5043V15.6346L9.65613 15.7649L9.72192 15.8301H9.78772L9.85351 15.8952H9.91931H10.0509H10.1825H10.3141H10.3799L10.5115 15.8301H10.5773L10.7089 15.7649L10.7746 15.6998H10.8404L10.9062 15.6346L10.972 15.5695V15.5043L11.0378 15.4392L11.1036 15.374V15.3089V15.2438L11.1694 15.1135V14.9832L11.2352 14.8529V14.7226Z" fill="#C9C9C9"/>
<path d="M2.68175 16.9373H1.43164L2.48437 10.9441H4.65561L4.853 14.4618L6.36629 10.9441H8.60333L7.55061 16.9373H6.3005L7.09004 12.4424H7.02424L5.18197 16.9373H3.73448V16.7418V16.2207L3.66868 15.5041L3.60289 14.7224V13.8755L3.53709 13.159V12.6378L3.4713 12.4424H3.4055L2.68175 16.9373Z" fill="white"/>
<path d="M32.0924 12.1819L31.7634 13.2893H31.8292L32.1582 12.1819L32.0924 12.247V12.1819Z" fill="white"/>
<path d="M34.1319 11.9211H34.0004H33.8688H33.6714H33.5398H33.4082H33.2766H33.145L33.0134 11.9863H32.8818H32.7502H32.6186L32.5529 12.0514H32.4213L32.2897 12.1166H32.2239L32.0923 12.1817V12.2469L32.2239 12.1817L32.3555 12.1166H32.4213H32.5529L32.6844 12.0514H32.7502H32.8818L33.0134 11.9863H33.145H33.2766H33.4082H33.5398H33.6714H33.8688H34.0004H34.1319V11.9211Z" fill="white"/>
<path d="M35.2506 15.8949L35.7112 13.4846H35.6454L35.1848 15.8949H35.2506Z" fill="white"/>
<path d="M35.5796 16.9372H36.8955L37.3561 14.3315V14.2012V14.1361L37.4219 14.0058V13.9406L37.4877 13.8103L37.5535 13.7452L37.6192 13.6149L37.685 13.5498L37.7508 13.4846L37.8166 13.4195L37.9482 13.3543L38.0798 13.2892L38.2114 13.2241L38.343 13.1589H38.5404H38.672H38.7378H38.8036L39.0009 11.9863H38.8694H38.7378L38.672 12.0515H38.5404L38.4088 12.1166H38.343L38.2772 12.1818L38.1456 12.2469L38.0798 12.312L38.014 12.3772L37.9482 12.4423L37.8824 12.5075L37.8166 12.5726L37.685 12.7029L37.6192 12.768L37.5535 12.8332L37.7508 12.0515H36.4349L35.5796 16.9372Z" fill="white"/>
<path d="M23.3416 16.9372H24.6575L25.118 14.3315V14.2012L25.1838 14.1361V14.0058L25.2496 13.9406V13.8755L25.3154 13.7452L25.3812 13.6801L25.447 13.6149L25.5128 13.5498L25.5786 13.4846L25.7102 13.4195L25.776 13.3543L25.9076 13.2892H26.0392H26.2365L26.4339 13.2241H26.4997V13.2892H26.5655V13.2241V13.0938L26.6313 13.0286V12.8983L26.6971 12.768V12.6378L26.7629 12.5075V12.4423L26.8287 12.312L26.8945 12.2469L26.9603 12.1818V12.1166L27.0261 12.0515V11.9863H26.9603H26.8945H26.8287H26.6971H26.5655L26.4339 12.0515H26.3023L26.2365 12.1166H26.105L26.0392 12.1818L25.9734 12.2469L25.8418 12.312L25.776 12.3772L25.7102 12.4423L25.6444 12.5075L25.5786 12.5726L25.5128 12.7029L25.447 12.768L25.3812 12.8332L25.5786 12.0515H24.1969L23.3416 16.9372Z" fill="white"/>
<path d="M16.433 13.0937H16.3672H16.3014L16.2356 13.0286H16.1698H16.104H16.0382H15.9724H15.9066H15.8408H15.7092L15.6434 12.9634H15.5776L15.446 13.0286H15.3144H15.1828H15.117H14.9855L14.9197 13.0937H14.8539L14.7881 13.1589H14.7223L14.6565 13.224L14.5907 13.2892V13.3543V13.4194V13.4846V13.5497L14.6565 13.6149L14.7223 13.68L14.7881 13.8103L14.9197 13.8754L15.0512 13.9406H15.1828L15.3144 14.0057L15.446 14.0709L15.6434 14.136L15.775 14.2012L15.9066 14.2663L16.0382 14.3314L16.1698 14.4617L16.2356 14.592L16.3014 14.7874L16.3672 14.9829V15.2435V15.504V15.6995L16.3014 15.8949L16.2356 16.0903L16.104 16.2206L16.0382 16.3509L15.9066 16.4812L15.775 16.6115L15.6434 16.6766L15.446 16.7417L15.3144 16.8069L15.1828 16.872H14.9855L14.8539 16.9372H14.7223H14.5249H14.3933H14.1959H13.9985H13.8669H13.7353H13.538H13.4722H13.3406L13.209 16.872H13.1432H13.0116H12.9458L12.88 16.8069H12.8142H12.7484L12.6168 16.7417H12.551L12.7484 15.6995H12.8142L12.88 15.7646H12.9458H13.0116L13.0774 15.8297H13.209H13.2748H13.4064L13.538 15.8949H13.6038H13.7353H13.8669H13.9985L14.1301 15.96H14.2617L14.3933 15.8949H14.5249L14.6565 15.8297H14.7223L14.7881 15.7646L14.8539 15.6995L14.9197 15.6343V15.5692V15.4389V15.3086V15.2435L14.8539 15.1132L14.7223 15.048L14.5907 14.9829L14.3933 14.9177L14.1959 14.8526L14.0643 14.7874L13.8669 14.7223L13.6695 14.592L13.538 14.4617L13.4064 14.3314L13.2748 14.2012L13.209 13.9406L13.1432 13.7452V13.4194V13.224L13.209 13.0937L13.2748 12.8983V12.768L13.4064 12.6377L13.4722 12.5074L13.538 12.3771L13.6695 12.312L13.8011 12.2469L13.9327 12.1166L14.1301 12.0514H14.3275L14.5249 11.9863H14.7223L14.9855 11.9211H15.2486H15.446H15.5776H15.7092H15.8408L15.9724 11.9863H16.104H16.1698H16.2356H16.3014H16.3672H16.433L16.4987 12.0514H16.5645H16.6303H16.6961L16.433 13.0937Z" stroke="white" stroke-width="0.486697"/>
<path d="M17.5515 10.9441H18.8016L18.6042 12.0515H19.3938L19.1964 13.0287H18.4068L17.9463 15.5693V15.6996L18.0121 15.7647V15.8298H18.0779L18.1437 15.895H18.2753L18.341 15.9601H18.4726H18.6042H18.67L18.7358 15.895H18.8016H18.8674H18.9332V15.8298H18.999L18.8016 16.6767V16.7418H18.7358L18.67 16.807H18.6042H18.5384L18.4726 16.8721H18.4068H18.341H18.2753H18.2095L18.1437 16.9373H18.0121H17.6831L17.4857 16.8721H17.3541H17.2225L17.0909 16.807H16.9593L16.8936 16.7418L16.8278 16.6767L16.762 16.6116L16.6962 16.5464V16.4813L16.6304 16.4161V16.2858V16.2207V16.0904V16.0253V15.895L17.5515 10.9441Z" stroke="white" stroke-width="0.486697"/>
<path d="M20.3808 14.7874V14.8526V14.9177V15.048L20.4466 15.1132V15.1783L20.5124 15.3086V15.3737L20.5782 15.4389L20.644 15.504L20.7098 15.5692L20.7756 15.6343L20.9072 15.6995L20.973 15.7646L21.0388 15.8297H21.1704H21.2362L21.3678 15.8949H21.4994H21.5652H21.6968H21.8283H21.9599H22.0915H22.2231H22.3547L22.4205 15.8297H22.5521L22.6837 15.7646H22.8153L22.9469 15.6995L23.0785 15.6343L23.21 15.5692L23.0127 16.6766H22.9469L22.8811 16.7417H22.8153L22.7495 16.8069H22.6837H22.6179L22.5521 16.872H22.4863H22.3547H22.2889H22.1573L22.0915 16.9372H21.9599H21.8283H21.6968H21.5652H21.302L21.1046 16.872H20.8414L20.644 16.8069L20.3808 16.7417L20.1835 16.6766L19.9861 16.5463L19.7887 16.416L19.5913 16.2206L19.4597 16.0252L19.3281 15.8297L19.1965 15.6343L19.1307 15.3086L19.0649 15.048V14.7223V14.3314L19.1307 14.2012V14.0057L19.1965 13.8103V13.6149L19.2623 13.4194L19.3939 13.224L19.4597 13.0286L19.5913 12.8331L19.7229 12.6377L19.9203 12.5074L20.1177 12.312L20.3808 12.1817L20.644 12.1166L20.9072 11.9863L21.2362 11.9211H21.631H21.8283L22.0257 11.9863H22.2231L22.3547 12.0514L22.5521 12.1166L22.7495 12.1817L22.8811 12.312L23.0785 12.4423L23.21 12.5726L23.3416 12.768L23.4074 12.9634L23.4732 13.224L23.539 13.4846V13.8103L23.4732 14.136L23.4074 14.5269V14.7874H20.0519L20.2493 13.8754H22.2889V13.8103V13.68V13.5497L22.2231 13.4846V13.4194L22.1573 13.3543V13.2892L22.0915 13.224L22.0257 13.1589L21.9599 13.0937L21.8941 13.0286H21.8283L21.7626 12.9634H21.6968H21.631H21.4994H21.4336H21.3678H21.302L21.1704 13.0286H21.1046L21.0388 13.0937L20.973 13.1589L20.9072 13.224L20.8414 13.2892L20.7756 13.3543V13.4194L20.7098 13.4846L20.644 13.5497V13.68L20.5782 13.7452V13.8103L20.3808 14.7874Z" stroke="white" stroke-width="0.486697"/>
<path d="M31.3685 12.312L31.3027 12.2468L31.2369 12.1817H31.1053H31.0395L30.9737 12.1165H30.9079L30.8421 12.0514H30.7105H30.6447L30.5789 11.9863H30.4474H30.3816H30.25H30.1184H30.0526H29.921H29.7894H29.6578L29.5262 12.0514H29.3946L29.263 12.1165L29.1314 12.1817L28.9999 12.2468L28.8683 12.3771L28.8025 12.5074L28.6709 12.6377L28.5393 12.768L28.4735 12.9634L28.3419 13.224L28.2761 13.4846L28.2103 13.7451L28.1445 13.9406V14.0708V14.2663V14.3966V14.592L28.2103 14.7223V14.8526L28.2761 14.9829L28.3419 15.1131L28.4077 15.2434L28.5393 15.3086L28.6051 15.4389L28.7367 15.504L28.9341 15.5691L29.0657 15.6343L29.263 15.6994H29.3946H29.4604H29.5262H29.6578H29.7236H29.8552H29.9868H30.1184H30.1842L30.3158 15.6343H30.4474L30.5789 15.5691L30.6447 15.504L30.7763 15.4389L30.8421 15.3737L30.6447 16.5463V16.6114H30.5789V16.6766H30.5132L30.4474 16.7417H30.3816L30.3158 16.8069H30.25H30.1184L29.9868 16.872H29.8552H29.7236L29.5262 16.9372H29.3288H29.0657L28.8683 16.872H28.6051L28.4077 16.8069L28.2103 16.7417L28.0129 16.6766L27.8155 16.5463L27.6182 16.416L27.4208 16.2857L27.2234 16.0903L27.0918 15.8949L26.9602 15.6343L26.8286 15.3737L26.7628 15.1131L26.697 14.7874V14.4617V14.136L26.7628 13.7451V13.5497L26.8286 13.3543L26.8944 13.224V13.0286L26.9602 12.8983L27.026 12.7028L27.0918 12.5725L27.1576 12.4423L27.2234 12.2468L27.2892 12.1165L27.355 11.9863L27.4866 11.9211L27.5524 11.7908L27.6182 11.6605L27.7497 11.5954L27.8155 11.4651L27.9471 11.4L28.0129 11.2697L28.1445 11.2045L28.2761 11.1394L28.4077 11.0743L28.5393 11.0091L28.6051 10.944H28.8025L28.9341 10.8788L29.0657 10.8137H29.1972L29.3288 10.7485H29.5262H29.6578H29.8552H30.0526H30.1842H30.3158H30.4474H30.5789L30.7105 10.8137H30.8421H30.9737L31.1053 10.8788H31.1711L31.3027 10.944H31.3685H31.4343L31.5001 11.0091H31.5659H31.6317L31.3685 12.312Z" stroke="white" stroke-width="0.486697"/>
<path d="M42.7512 16.9373H41.4353L41.5669 16.4161V16.351L41.5011 16.4813L41.3695 16.5464L41.3037 16.6116L41.2379 16.6767L41.1721 16.7418L41.0405 16.807H40.9747L40.9089 16.8721H40.8431L40.7115 16.9373H40.6457H40.5141H40.4483L40.3826 17.0024H40.251H40.1852L39.922 16.9373H39.7246L39.5272 16.807L39.3298 16.7418L39.1982 16.6116L39.0009 16.4161L38.8693 16.2858L38.8035 16.0904L38.6719 15.895L38.6061 15.6344L38.5403 15.439V15.1784V14.983V14.7224V14.527L38.6061 14.2664L38.6719 14.0058L38.7377 13.7453L38.8035 13.4847L38.9351 13.2893L39.0666 13.0938L39.1982 12.8984L39.3298 12.7681L39.5272 12.5727L39.6588 12.4424L39.8562 12.3772L39.9878 12.247L40.1852 12.1818L40.3826 12.1167L40.5799 12.0515H40.7115H40.9089H41.0405H41.1721H41.3037L41.4353 12.1167H41.5011L41.6327 12.1818L41.6985 12.247L41.7643 12.3121H41.8301L41.9616 12.3772V12.4424L42.0274 12.5075L42.0932 12.5727L42.159 12.6378V12.703L42.2248 12.7681L42.488 10.9441H43.8039L42.7512 16.9373Z" stroke="white" stroke-width="0.486697"/>
<path d="M12.3537 15.8949L12.1563 16.9372H11.0378V16.7418V16.5464L11.1036 16.4161V16.3509L11.0378 16.4161L10.972 16.4812L10.9062 16.5464L10.7746 16.6115L10.643 16.6766L10.5773 16.7418L10.4457 16.8069L10.3141 16.8721H10.1825L10.0509 16.9372H9.9193L9.78771 17.0024H9.65612H9.52452H9.39293L9.26134 16.9372H9.06396L8.93237 16.8721L8.80078 16.8069L8.66919 16.7418L8.60339 16.6766L8.53759 16.6115L8.406 16.4812L8.34021 16.4161V16.2858L8.27441 16.2206L8.20862 16.0904V16.0252V15.8949L8.14282 15.8298V15.6995V15.6344L8.20862 15.4389V15.2435L8.27441 15.1132L8.34021 14.9178L8.406 14.7875L8.4718 14.6572L8.53759 14.5269L8.66919 14.3966L8.80078 14.3315L8.93237 14.2012L9.06396 14.1361L9.19555 14.0709L9.32714 14.0058L9.45873 13.9406H9.65612L9.78771 13.8755H9.8535H9.9193H9.98509H10.0509H10.1167L10.1825 13.8103H10.2483H10.3141H10.4457H10.5115H10.5773H10.643H10.7088H10.7746H10.8404H10.972H11.1036H11.1694H11.2352H11.301H11.3668L11.4326 13.6801V13.6149V13.4846V13.4195L11.3668 13.3543V13.2241L11.2352 13.1589L11.1694 13.0938H11.1036L10.972 13.0286H10.8404H10.7088H10.5773H10.4457H10.3141H10.1167H9.98509L9.8535 13.0938H9.72191H9.59032L9.45873 13.1589H9.32714H9.19555L9.12975 13.2241H8.99816L8.93237 13.2892L9.26134 12.1818L9.32714 12.1166H9.45873L9.52452 12.0515H9.65612H9.78771L9.8535 11.9863H9.98509H10.1167H10.2483H10.3799H10.5115H10.643H10.8404H10.972H11.1036H11.301H11.4326H11.5642L11.6958 12.0515L11.8274 12.1166H12.0247L12.1563 12.1818L12.2879 12.312L12.4195 12.3772L12.4853 12.4423L12.6169 12.5726L12.6827 12.7029L12.7485 12.8332L12.8143 12.9635L12.8801 13.1589V13.2892L12.8143 13.4846L12.3537 15.8949Z" stroke="white" stroke-width="0.486697"/>
<path d="M2.68175 16.9373H1.43164L2.48437 10.9441H4.65561L4.853 14.4618L6.36629 10.9441H8.60333L7.55061 16.9373H6.3005L7.09004 12.4424H7.02424L5.18197 16.9373H3.73448V16.7418V16.2207L3.66868 15.5041L3.60289 14.7224V13.8755L3.53709 13.159V12.6378L3.4713 12.4424H3.4055L2.68175 16.9373Z" stroke="white" stroke-width="0.486697"/>
<path d="M35.2506 15.8949L35.0532 16.872H33.9347C33.9347 16.872 33.9347 16.416 33.9347 16.3509V16.2857V16.3509L33.8689 16.416L33.8031 16.4812L33.6715 16.5463L33.6057 16.6115L33.5399 16.6766L33.4083 16.7417H33.2767L33.2109 16.8069L33.0793 16.872H32.9477L32.8161 16.9372H32.6846H32.553H32.4214H32.2898H32.1582L32.0266 16.872L31.8292 16.8069L31.7634 16.7417L31.6318 16.6766L31.5002 16.6115L31.4344 16.5463L31.3687 16.4812L31.3029 16.3509L31.2371 16.2857V16.1555L31.1713 16.0903V15.96L31.1055 15.8949V15.7646V15.6995V15.5692V15.4389L31.1713 15.2435V15.1132L31.2371 14.9177L31.3029 14.7874L31.3687 14.6572L31.5002 14.5269L31.566 14.3966L31.6976 14.3314L31.8292 14.2012L31.9608 14.136L32.0924 14.0709L32.224 14.0057L32.4214 13.9406H32.553L32.6846 13.8754H32.7504H32.8161H32.8819H32.9477H33.0135H33.0793L33.1451 13.8103H33.2109H33.3425H33.4083H33.4741H33.5399H33.6057H33.6715H33.7373H33.8689H34.0005H34.0663H34.1321H34.2636H34.3294V13.7452V13.68V13.6149L34.3952 13.4846C34.3952 13.2892 34.1979 13.1589 34.0005 13.0286H33.8689H33.7373H33.6715H33.4741H33.3425H33.2109H33.0793H32.8819H32.7504L32.6188 13.0937H32.4872H32.3556L32.224 13.1589H32.0924H32.0266L31.9608 13.224H31.895L31.8292 13.2892L32.1582 12.1817L32.224 12.1166H32.3556L32.4872 12.0514H32.553L32.6846 11.9863H32.8161H32.9477H33.0135H33.1451H33.2767L33.4083 11.9211H33.6057H33.7373H33.8689L34.0005 11.9863H34.1979H34.3294H34.461L34.5926 12.0514H34.7242L34.8558 12.1166L35.0532 12.1817L35.1848 12.2469L35.3164 12.3771L35.3822 12.4423L35.5138 12.5726L35.5796 12.7029L35.6453 12.8331L35.7111 12.9634L35.7769 13.0937V13.2892L35.7111 13.4846L35.2506 15.8949ZM34.1321 14.7223V14.6572H34.0663L34.0005 14.592H33.9347H33.8689H33.8031H33.7373L33.6057 14.6572H33.5399H33.4741H33.4083H33.3425H33.2767V14.7223H33.2109H33.1451H33.0793L33.0135 14.7874H32.9477L32.8819 14.8526L32.8161 14.9177L32.7504 14.9829H32.6846L32.6188 15.048V15.1132L32.553 15.1783V15.2435L32.4872 15.3737V15.504L32.553 15.6343V15.6995L32.6188 15.7646L32.6846 15.8297L32.7504 15.8949H32.8819H32.9477H33.0793H33.2109L33.3425 15.8297H33.4083L33.5399 15.7646L33.6057 15.6995H33.6715L33.7373 15.6343L33.8031 15.5692L33.8689 15.504L33.9347 15.4389H34.0005V15.3737L34.0663 15.3086V15.2435V15.1783V15.048L34.1321 14.9177V14.7874V14.7223Z" fill="white"/>
<path d="M35.5796 16.9372H36.8955L37.3561 14.3315V14.2012V14.1361L37.4219 14.0058V13.9406L37.4877 13.8103L37.5535 13.7452L37.6192 13.6149L37.685 13.5498L37.7508 13.4846L37.8166 13.4195L37.9482 13.3543L38.0798 13.2892L38.2114 13.2241L38.343 13.1589H38.5404H38.672H38.7378H38.8036L39.0009 11.9863H38.8694H38.7378L38.672 12.0515H38.5404L38.4088 12.1166H38.343L38.2772 12.1818L38.1456 12.2469L38.0798 12.312L38.014 12.3772L37.9482 12.4423L37.8824 12.5075L37.8166 12.5726L37.685 12.7029L37.6192 12.768L37.5535 12.8332L37.7508 12.0515H36.4349L35.5796 16.9372Z" stroke="white" stroke-width="0.486697"/>
<path d="M23.3416 16.9372H24.6575L25.118 14.3315V14.2012L25.1838 14.1361V14.0058L25.2496 13.9406V13.8755L25.3154 13.7452L25.3812 13.6801L25.447 13.6149L25.5128 13.5498L25.5786 13.4846L25.7102 13.4195L25.776 13.3543L25.9076 13.2892H26.0392H26.2365L26.4339 13.2241H26.4997V13.2892H26.5655V13.2241V13.0938L26.6313 13.0286V12.8983L26.6971 12.768V12.6378L26.7629 12.5075V12.4423L26.8287 12.312L26.8945 12.2469L26.9603 12.1818V12.1166L27.0261 12.0515V11.9863H26.9603H26.8945H26.8287H26.6971H26.5655L26.4339 12.0515H26.3023L26.2365 12.1166H26.105L26.0392 12.1818L25.9734 12.2469L25.8418 12.312L25.776 12.3772L25.7102 12.4423L25.6444 12.5075L25.5786 12.5726L25.5128 12.7029L25.447 12.768L25.3812 12.8332L25.5786 12.0515H24.1969L23.3416 16.9372Z" stroke="white" stroke-width="0.486697"/>
</svg>
