<svg width="127" height="28" viewBox="0 0 127 28" fill="none" xmlns="http://www.w3.org/2000/svg">
<path fill-rule="evenodd" clip-rule="evenodd" d="M8.88713 23.5108L0.228516 23.5008L0.238236 14.5684L8.89685 14.5784L8.88713 23.5108Z" fill="#C9C9C9"/>
<path fill-rule="evenodd" clip-rule="evenodd" d="M29.8229 23.8756H25.9512V9.96021H39.8797V23.8756H36.0103V12.6615H29.8229V23.8756ZM41.755 13.5062V27.2843H45.3186V22.5696C46.5128 23.8863 48.4591 23.9867 48.9301 23.9867C52.3293 23.9867 54.4147 21.7829 54.4147 18.5748C54.4147 15.2371 52.3525 13.1282 48.9989 13.1282C48.1555 13.1282 46.5128 13.267 45.1564 14.7172H45.0824L45.1085 13.5062H41.755ZM45.1571 18.5378C45.1571 15.7146 46.8657 15.1615 47.9424 15.1615C48.9989 15.1615 50.7105 15.7146 50.7105 18.5378C50.7105 20.2865 49.9859 21.958 47.9424 21.958C45.857 21.958 45.1564 20.2865 45.1564 18.5378H45.1571ZM63.2542 22.3946C61.9412 23.6504 60.6738 23.9867 59.2689 23.9867C55.4248 23.9867 55.2805 21.0439 55.2805 19.8321V13.5062H58.8457V19.3546C58.8457 21.361 59.5283 21.9588 60.8398 21.9588C63.092 21.9588 63.2542 19.9085 63.2542 19.1718V13.5062H66.8149V23.6064H63.2542V22.3946ZM71.9263 19.3546H74.1076C75.7952 19.3546 76.1489 19.8668 76.1489 20.5441C76.1489 20.9838 75.9141 21.5777 74.1555 21.5777H71.927V19.3546H71.9263ZM68.3657 13.5062V23.6072H75.4431C78.0242 23.6072 79.8053 23.0904 79.8053 21.0285C79.8053 19.4333 78.9364 18.736 76.9669 18.3804V18.3195C78.2552 18.1421 79.382 17.3221 79.382 15.9522C79.382 13.5069 76.5676 13.5069 75.4685 13.5069H68.3657V13.5062ZM71.9263 15.5349H73.8489C74.8598 15.5349 75.7249 15.693 75.7249 16.5291C75.7249 17.4432 74.3663 17.4648 73.7809 17.4648H71.9263V15.5341V15.5349ZM84.3088 16.7683C84.3088 15.2764 85.8506 15.1615 86.4862 15.1615C86.8862 15.1615 88.3644 15.1808 88.4078 16.4929V16.7683C88.339 17.7649 87.4021 17.5605 84.7754 17.9022C82.6159 18.1991 80.3466 18.7576 80.3466 21.0632C80.3466 21.8994 80.695 23.9867 84.4942 23.9867C85.9485 23.9867 87.5412 23.6072 88.4796 22.6113H88.5506L88.8542 23.6064H92.6025V23.4313C91.9251 23.2894 91.8817 22.6113 91.9034 21.5222L91.9737 16.9071C91.9961 15.7346 91.8817 13.1282 86.5086 13.1282C85.2225 13.1282 81.0712 13.2478 80.9074 16.7683H84.3088ZM88.434 19.4326C88.434 21.4612 86.6993 21.9588 85.8274 21.9588C85.1769 21.9588 84.0022 21.7389 84.0022 20.7832C84.0022 19.6501 85.3376 19.4333 86.0891 19.3354C87.4716 19.1333 87.3557 19.1911 88.434 18.7946V19.4326ZM92.3715 15.5341V13.5054H103.813V15.5341H99.8756V23.6072H96.309V15.5341H92.3715Z" fill="#C9C9C9"/>
<path fill-rule="evenodd" clip-rule="evenodd" d="M0.081543 23.6455H9.01008V14.5588H0.081543V23.6455Z" fill="#C9C9C9"/>
<path fill-rule="evenodd" clip-rule="evenodd" d="M18.1906 5.21462V18.8431H16.3736C15.5855 12.1044 11.4245 7.8712 4.80116 7.06821V5.21462H18.1913H18.1906ZM0.081543 0.412109V11.7172H2.4421C8.65192 11.7172 11.8036 14.9222 11.8036 21.2436V23.6448H22.9117V0.412109H0.081543Z" fill="#C9C9C9"/>
<path d="M114.975 20.8988V23.553H105.265C105.371 22.5496 105.686 21.6005 106.212 20.7056C106.737 19.8039 107.776 18.6107 109.327 17.126C110.575 15.926 111.341 15.1124 111.624 14.6853C112.005 14.0955 112.195 13.5124 112.195 12.9362C112.195 12.2989 112.028 11.8107 111.693 11.4718C111.364 11.126 110.907 10.9531 110.323 10.9531C109.744 10.9531 109.284 11.1328 108.942 11.4922C108.601 11.8515 108.403 12.448 108.351 13.282L105.59 12.9972C105.755 11.4244 106.271 10.2956 107.138 9.61081C108.006 8.92607 109.09 8.58374 110.392 8.58374C111.817 8.58374 112.938 8.9803 113.753 9.77349C114.568 10.5668 114.975 11.5532 114.975 12.7328C114.975 13.404 114.857 14.0446 114.621 14.6548C114.39 15.2582 114.022 15.8921 113.516 16.5565C113.181 16.9972 112.576 17.6311 111.702 18.4581C110.828 19.2853 110.273 19.8344 110.036 20.1056C109.807 20.3767 109.619 20.6412 109.475 20.8988H114.975ZM122.289 23.553V20.553H116.375V18.0514L122.644 8.58374H124.971V18.0412H126.765V20.553H124.971V23.553H122.289ZM122.289 18.0412V12.9463L118.968 18.0412H122.289Z" fill="#C9C9C9"/>
</svg>
