<svg width="208" height="45" viewBox="0 0 208 45" fill="none" xmlns="http://www.w3.org/2000/svg">
<path fill-rule="evenodd" clip-rule="evenodd" d="M14.864 38.0183L0.688431 38.0022L0.704345 23.6531L14.8799 23.6692L14.864 38.0183Z" fill="black"/>
<path fill-rule="evenodd" clip-rule="evenodd" d="M49.139 38.6044H42.8004V16.2505H65.6036V38.6044H59.2687V20.5899H49.139V38.6044ZM68.6738 21.9468V44.0801H74.508V36.5064C76.463 38.6216 79.6494 38.7828 80.4206 38.7828C85.9855 38.7828 89.3996 35.2426 89.3996 30.0891C89.3996 24.7274 86.0235 21.3396 80.5332 21.3396C79.1524 21.3396 76.463 21.5626 74.2424 23.8922H74.1212L74.164 21.9468H68.6738ZM74.2436 30.0296C74.2436 25.4944 77.0407 24.6059 78.8035 24.6059C80.5332 24.6059 83.3353 25.4944 83.3353 30.0296C83.3353 32.8387 82.1491 35.5239 78.8035 35.5239C75.3894 35.5239 74.2424 32.8387 74.2424 30.0296H74.2436ZM103.871 36.2253C101.722 38.2426 99.6469 38.7828 97.3467 38.7828C91.0535 38.7828 90.8172 34.0556 90.8172 32.1089V21.9468H96.6539V31.3419C96.6539 34.5648 97.7715 35.5252 99.9187 35.5252C103.606 35.5252 103.871 32.2316 103.871 31.0482V21.9468H109.701V38.1719H103.871V36.2253ZM118.069 31.3419H121.64C124.403 31.3419 124.982 32.1646 124.982 33.2526C124.982 33.9589 124.598 34.913 121.718 34.913H118.07V31.3419H118.069ZM112.24 21.9468V38.1732H123.826C128.052 38.1732 130.968 37.343 130.968 34.0308C130.968 31.4682 129.546 30.3481 126.321 29.7768V29.6789C128.43 29.3939 130.275 28.0767 130.275 25.8761C130.275 21.948 125.668 21.948 123.868 21.948H112.24V21.9468ZM118.069 25.2057H121.217C122.872 25.2057 124.288 25.4597 124.288 26.8029C124.288 28.2713 122.064 28.306 121.105 28.306H118.069V25.2044V25.2057ZM138.341 27.1871C138.341 24.7906 140.865 24.6059 141.906 24.6059C142.561 24.6059 144.981 24.6369 145.052 26.7447V27.1871C144.939 28.788 143.405 28.4596 139.105 29.0086C135.57 29.4856 131.854 30.3828 131.854 34.0865C131.854 35.4297 132.425 38.7828 138.645 38.7828C141.026 38.7828 143.633 38.1732 145.169 36.5735H145.286L145.783 38.1719H151.919V37.8907C150.81 37.6627 150.739 36.5735 150.775 34.8238L150.89 27.4101C150.926 25.5266 150.739 21.3396 141.942 21.3396C139.837 21.3396 133.041 21.5317 132.772 27.1871H138.341ZM145.095 31.467C145.095 34.7259 142.255 35.5252 140.827 35.5252C139.762 35.5252 137.839 35.172 137.839 33.6367C137.839 31.8164 140.025 31.4683 141.256 31.3109C143.519 30.9862 143.329 31.0792 145.095 30.4422V31.467ZM151.541 25.2044V21.9455H170.273V25.2044H163.826V38.1732H157.987V25.2044H151.541Z" fill="#74B027"/>
<path fill-rule="evenodd" clip-rule="evenodd" d="M0.448227 38.2351H15.0657V23.6382H0.448227V38.2351Z" fill="#363636"/>
<path fill-rule="evenodd" clip-rule="evenodd" d="M30.0952 8.62779V30.5207H27.1206C25.8303 19.6957 19.018 12.8954 8.17457 11.6054V8.62779H30.0964H30.0952ZM0.447815 0.912964V19.0737H4.31242C14.4789 19.0737 19.6386 24.2222 19.6386 34.3769V38.2343H37.8244V0.912964H0.447815Z" fill="#74B027"/>
<path d="M188.547 33.8226V38.0864H172.65C172.822 36.4745 173.339 34.9499 174.2 33.5122C175.06 32.0637 176.761 30.147 179.299 27.7619C181.344 25.8342 182.597 24.5273 183.06 23.8412C183.684 22.8938 183.995 21.9571 183.995 21.0313C183.995 20.0077 183.721 19.2235 183.173 18.679C182.635 18.1235 181.887 17.8458 180.93 17.8458C179.982 17.8458 179.23 18.1344 178.67 18.7117C178.111 19.2889 177.788 20.2472 177.702 21.5868L173.182 21.1294C173.452 18.6028 174.296 16.7894 175.716 15.6895C177.136 14.5895 178.913 14.0396 181.043 14.0396C183.377 14.0396 185.212 14.6766 186.545 15.9508C187.879 17.2251 188.547 18.8097 188.547 20.7047C188.547 21.7829 188.353 22.812 187.966 23.7922C187.589 24.7615 186.987 25.7798 186.158 26.8471C185.61 27.555 184.62 28.5733 183.188 29.9019C181.757 31.2306 180.849 32.1128 180.461 32.5484C180.085 32.984 179.778 33.4088 179.542 33.8226H188.547ZM200.521 38.0864V33.2671H190.838V29.2485L201.103 14.0396H204.911V29.2322H207.849V33.2671H204.911V38.0864H200.521ZM200.521 29.2322V21.0477L195.083 29.2322H200.521Z" fill="#363636"/>
</svg>
