<svg width="34" height="34" viewBox="0 0 34 34" fill="none" xmlns="http://www.w3.org/2000/svg">
<path d="M17.1534 33.5115C26.2066 33.5115 33.5456 26.1724 33.5456 17.1193C33.5456 8.06613 26.2066 0.727081 17.1534 0.727081C8.10028 0.727081 0.76123 8.06613 0.76123 17.1193C0.76123 26.1724 8.10028 33.5115 17.1534 33.5115Z" fill="#34AADF"/>
<path d="M7.7883 16.7603C7.7883 16.7603 15.9082 13.3058 18.7243 12.0894C19.8038 11.6029 23.4648 10.0459 23.4648 10.0459C23.4648 10.0459 25.1545 9.36476 25.0137 11.019C24.9667 11.7002 24.5912 14.0842 24.2158 16.663C23.6525 20.3121 23.0423 24.3018 23.0423 24.3018C23.0423 24.3018 22.9485 25.4209 22.1506 25.6155C21.3527 25.8101 20.0384 24.9343 19.8038 24.7397C19.616 24.5937 16.2836 22.4042 15.0633 21.3338C14.7347 21.0419 14.3593 20.4581 15.1102 19.7769C16.7999 18.1713 18.8181 16.1764 20.0384 14.9114C20.6017 14.3275 21.1649 12.9652 18.8181 14.6194C15.4857 17.0036 12.2002 19.2417 12.2002 19.2417C12.2002 19.2417 11.4493 19.7282 10.0412 19.2903C8.63309 18.8525 6.99034 18.2686 6.99034 18.2686C6.99034 18.2686 5.86395 17.5388 7.7883 16.7603Z" fill="white"/>
</svg>
