<svg width="28" height="32" viewBox="0 0 28 32" fill="none" xmlns="http://www.w3.org/2000/svg">
<path fill-rule="evenodd" clip-rule="evenodd" d="M20.401 11.8373C22.4105 13.2659 24.8171 14.0291 27.2826 14.0199V9.13351C26.7979 9.13486 26.3145 9.08297 25.8412 8.97878V12.8716C23.3701 12.876 20.96 12.1039 18.9514 10.6646V20.7142C18.9453 22.3632 18.4931 23.9799 17.6427 25.3928C16.7922 26.8056 15.5753 27.962 14.1209 28.7393C12.6665 29.5166 11.0289 29.8858 9.38168 29.8078C7.73447 29.7298 6.13906 29.2075 4.76465 28.2962C6.03595 29.5825 7.66036 30.4626 9.43218 30.8251C11.204 31.1876 13.0435 31.0161 14.7179 30.3324C16.3922 29.6487 17.826 28.4836 18.8376 26.9845C19.8493 25.4854 20.3934 23.7199 20.401 21.9114V11.8373ZM22.1845 6.85321C21.1626 5.74556 20.5356 4.33113 20.401 2.8301V2.19488H19.0328C19.202 3.149 19.57 4.05686 20.113 4.85942C20.656 5.66199 21.3618 6.34131 22.1845 6.85321ZM7.93264 24.4278C7.45843 23.8077 7.16783 23.0669 7.09389 22.2898C7.01996 21.5127 7.16568 20.7304 7.51445 20.032C7.86323 19.3336 8.40106 18.7471 9.06673 18.3393C9.7324 17.9316 10.4992 17.7188 11.2798 17.7254C11.7108 17.7252 12.1392 17.7912 12.5503 17.9208V12.8716C12.0698 12.808 11.5852 12.7807 11.1006 12.7901V16.7155C10.0998 16.3992 9.01664 16.4711 8.06647 16.917C7.1163 17.3629 6.36879 18.1502 5.97262 19.1221C5.57644 20.0941 5.56063 21.1796 5.92833 22.1627C6.29603 23.1458 7.02029 23.9544 7.95707 24.4278H7.93264Z" fill="#EE1D52"/>
<path fill-rule="evenodd" clip-rule="evenodd" d="M18.9507 10.632C20.9594 12.0714 23.3694 12.8434 25.8405 12.839V8.9462C24.4326 8.64852 23.1536 7.91645 22.1839 6.85321C21.3611 6.34131 20.6553 5.66199 20.1123 4.85942C19.5693 4.05686 19.2013 3.149 19.0322 2.19488H15.4326V21.9114C15.4292 22.7841 15.1526 23.6338 14.6417 24.3413C14.1307 25.0488 13.411 25.5786 12.5836 25.8562C11.7562 26.1338 10.8627 26.1453 10.0284 25.8891C9.19413 25.6329 8.46102 25.1219 7.932 24.4278C7.0936 24.0048 6.42218 23.3117 6.02605 22.4602C5.62993 21.6088 5.53221 20.6487 5.74865 19.7349C5.9651 18.8212 6.48309 18.0069 7.21906 17.4237C7.95502 16.8404 8.86603 16.5221 9.8051 16.5201C10.236 16.5214 10.6642 16.5873 11.0756 16.7155V12.7901C9.29822 12.8328 7.57201 13.3935 6.10883 14.4034C4.64565 15.4133 3.50918 16.8284 2.83892 18.4751C2.16867 20.1217 1.9938 21.9283 2.33577 23.6729C2.67775 25.4176 3.52169 27.0244 4.764 28.2962C6.1387 29.214 7.73662 29.7417 9.38754 29.8232C11.0385 29.9046 12.6805 29.5367 14.1389 28.7586C15.5972 27.9806 16.8172 26.8215 17.6689 25.4049C18.5206 23.9882 18.972 22.3671 18.9752 20.7142L18.9507 10.632Z" fill="black"/>
<path fill-rule="evenodd" clip-rule="evenodd" d="M25.841 8.94586V7.8953C24.548 7.90079 23.2801 7.53932 22.1844 6.85287C23.1516 7.91918 24.4317 8.65185 25.841 8.94586ZM19.0327 2.19454C19.0327 2.00723 18.9757 1.81177 18.9512 1.62446V0.989235H13.9834V20.7139C13.9791 21.8183 13.5368 22.8759 12.7535 23.6546C11.9703 24.4333 10.91 24.8694 9.80558 24.8673C9.15526 24.8705 8.5134 24.7198 7.93248 24.4275C8.4615 25.1216 9.19461 25.6326 10.0289 25.8888C10.8632 26.145 11.7567 26.1334 12.5841 25.8558C13.4115 25.5782 14.1312 25.0485 14.6422 24.341C15.1531 23.6335 15.4297 22.7837 15.433 21.911V2.19454H19.0327ZM11.076 12.7817V11.6659C9.03182 11.3882 6.95381 11.8111 5.18068 12.8656C3.40755 13.9201 2.04385 15.544 1.31183 17.4728C0.579806 19.4016 0.522629 21.5214 1.14961 23.4868C1.7766 25.4522 3.05078 27.1473 4.76449 28.2959C3.53158 27.0211 2.69662 25.4149 2.36163 23.6735C2.02663 21.932 2.2061 20.1306 2.87811 18.4895C3.55011 16.8483 4.68557 15.4384 6.14574 14.432C7.60592 13.4256 9.32761 12.8663 11.1005 12.8224L11.076 12.7817Z" fill="#69C9D0"/>
</svg>
