<svg width="32" height="26" viewBox="0 0 32 26" fill="none" xmlns="http://www.w3.org/2000/svg">
<path d="M31.1767 3.4096C30.186 3.83596 29.1445 4.13285 28.0779 4.29294C28.5766 4.20746 29.3103 3.30987 29.6024 2.94656C30.0461 2.39855 30.3842 1.77295 30.5997 1.10153C30.5997 1.05167 30.6495 0.980429 30.5997 0.944811C30.5746 0.931094 30.5464 0.923906 30.5178 0.923906C30.4891 0.923906 30.461 0.931094 30.4358 0.944811C29.2777 1.572 28.045 2.05068 26.7671 2.36955C26.7226 2.38315 26.6752 2.38437 26.63 2.37308C26.5848 2.36178 26.5436 2.3384 26.5107 2.30543C26.4112 2.18699 26.3041 2.07515 26.1901 1.97062C25.6689 1.50363 25.0776 1.12141 24.4377 0.837956C23.574 0.483608 22.641 0.330147 21.7093 0.389164C20.8053 0.446259 19.9226 0.688741 19.1163 1.10153C18.3223 1.53673 17.6244 2.12797 17.0647 2.83971C16.4759 3.57227 16.0508 4.42243 15.8181 5.333C15.6261 6.19913 15.6043 7.09432 15.7539 7.96876C15.7539 8.11835 15.7539 8.13973 15.6257 8.11835C10.5465 7.37037 6.37918 5.56808 2.97406 1.69992C2.82446 1.52895 2.7461 1.52895 2.625 1.69992C1.14328 3.951 1.86277 7.51284 3.71492 9.27239C3.96425 9.50747 4.2207 9.73543 4.4914 9.94914C3.6422 9.88885 2.81374 9.65872 2.05511 9.27239C1.91263 9.17978 1.83427 9.22965 1.82715 9.40062C1.80695 9.63764 1.80695 9.87596 1.82715 10.113C1.97579 11.2489 2.42345 12.325 3.12437 13.2312C3.82528 14.1374 4.7543 14.8411 5.81641 15.2705C6.07532 15.3814 6.34511 15.465 6.62138 15.5199C5.83523 15.6746 5.02894 15.6987 4.23495 15.5911C4.06398 15.5555 3.99987 15.6481 4.06398 15.8119C5.11116 18.6614 7.38362 19.5305 9.05056 20.0149C9.27851 20.0505 9.50647 20.0505 9.76293 20.1075C9.76293 20.1075 9.76293 20.1075 9.72018 20.1502C9.22865 21.0478 7.24114 21.6533 6.32931 21.9668C4.66499 22.5646 2.89051 22.7931 1.12903 22.6364C0.851204 22.5937 0.787091 22.6008 0.715854 22.6364C0.644618 22.672 0.715854 22.7504 0.794215 22.8216C1.1504 23.0567 1.50658 23.2633 1.87701 23.4628C2.97979 24.0642 4.14565 24.5421 5.35337 24.8875C11.608 26.6114 18.6462 25.3434 23.3407 20.6774C27.0307 17.0158 28.3272 11.9651 28.3272 6.90733C28.3272 6.71499 28.5623 6.60101 28.6977 6.50128C29.6312 5.77388 30.4543 4.91483 31.1411 3.951C31.26 3.80733 31.321 3.6244 31.312 3.4381C31.312 3.33124 31.312 3.35261 31.1767 3.4096Z" fill="#33CCFF"/>
</svg>
