<svg width="26" height="28" viewBox="0 0 26 28" fill="none" xmlns="http://www.w3.org/2000/svg">
<path d="M6.97756 24.3612C6.97756 23.9163 6.97756 23.4713 6.97756 23.0264C6.98074 23.0082 6.98009 22.9896 6.97567 22.9716C6.97124 22.9537 6.96312 22.9368 6.95182 22.9221C6.94051 22.9074 6.92626 22.8951 6.90994 22.886C6.89363 22.877 6.87559 22.8713 6.85696 22.8694C5.73732 22.5561 4.7039 21.9979 3.83373 21.2365C3.19971 20.6684 2.67182 19.9952 2.27408 19.2474C1.71346 18.1671 1.34037 17.0021 1.17026 15.8005C0.959492 14.2933 0.886293 12.7705 0.951541 11.2504C0.96585 10.5417 1.00264 9.84106 1.08441 9.13237C1.21481 7.78564 1.55971 6.46754 2.10646 5.2265C2.78159 3.70059 4.00636 2.47489 5.54464 1.78571C6.59252 1.3134 7.69492 0.968597 8.82747 0.758912C9.93812 0.551707 11.0626 0.42453 12.1921 0.378392C13.2101 0.342931 14.2294 0.357714 15.246 0.422685C16.7009 0.483175 18.1427 0.720534 19.5386 1.12937C20.5735 1.42321 21.558 1.86769 22.4596 2.4481C23.338 3.04206 24.0485 3.84647 24.5241 4.78558C25.0833 5.88242 25.4634 7.05923 25.6504 8.27268C25.7719 8.9931 25.8518 9.71974 25.8896 10.4491C25.9427 11.3531 25.9366 12.2611 25.9019 13.1611C25.8671 14.061 25.7894 14.9348 25.677 15.8166C25.5349 17.1402 25.1218 18.4217 24.4628 19.5836C23.605 21.0535 22.2308 22.1634 20.5995 22.7043C19.484 23.089 18.3322 23.3629 17.1613 23.5217C16.3048 23.6384 15.4463 23.723 14.5837 23.7572C13.9234 23.7874 13.2632 23.7794 12.6029 23.7693C12.2289 23.7693 11.8568 23.7331 11.4848 23.7009C11.4483 23.6941 11.4105 23.6981 11.3763 23.7124C11.3421 23.7268 11.313 23.7508 11.2927 23.7814C10.5404 24.6713 9.75958 25.537 8.9726 26.3987C8.82925 26.5559 8.66328 26.6916 8.47997 26.8014C8.35965 26.8791 8.22245 26.9279 8.07945 26.9438C7.93645 26.9597 7.79165 26.9423 7.65676 26.8929C7.52187 26.8435 7.40066 26.7636 7.30291 26.6596C7.20517 26.5555 7.13363 26.4303 7.09407 26.294C7.01617 26.0519 6.97754 25.7991 6.9796 25.5451C6.97756 25.1464 6.97756 24.7538 6.97756 24.3612ZM7.88718 26.0504L7.98326 25.9618L9.69008 24.0955C10.3469 23.3774 11.0031 22.6586 11.6586 21.9392C11.6908 21.8953 11.7342 21.8606 11.7845 21.8387C11.8348 21.8168 11.8901 21.8084 11.9447 21.8144C12.1675 21.8365 12.3903 21.8446 12.6152 21.8466C13.392 21.8466 14.1687 21.8466 14.9455 21.7922C15.6507 21.7379 16.3539 21.6533 17.0529 21.5446C17.8056 21.4155 18.5507 21.2468 19.2851 21.0392C20.9204 20.6064 22.1857 19.6802 22.9808 18.1803C23.4503 17.2581 23.7447 16.2592 23.8496 15.2328C23.9738 14.2653 24.0482 13.2923 24.0724 12.3175C24.1086 11.0928 24.0237 9.86765 23.8189 8.65924C23.6769 7.78373 23.4214 6.9298 23.0585 6.11841C22.5965 5.11174 21.9424 4.27822 20.9347 3.74267C19.3894 2.92123 17.7173 2.55481 15.9941 2.36757C15.5056 2.31522 15.017 2.28703 14.5264 2.26891C13.5219 2.2179 12.5153 2.22328 11.5114 2.28502C10.7894 2.33779 10.0713 2.43326 9.36098 2.57091C8.31635 2.75847 7.30577 3.09772 6.36228 3.57758C5.81531 3.8498 5.31907 4.21127 4.89462 4.64666C4.20671 5.40395 3.70211 6.30503 3.41877 7.28212C3.08265 8.42006 2.89917 9.59644 2.873 10.7813C2.80723 11.9661 2.82225 13.154 2.91797 14.3368C2.97752 15.0408 3.09718 15.7385 3.27569 16.4227C3.54127 17.4888 4.0565 18.4789 4.78015 19.3138C5.56141 20.1656 6.57116 20.7826 7.69299 21.0936C7.83404 21.1359 7.8974 21.1842 7.8974 21.3412C7.88514 21.9211 7.8974 22.5009 7.8974 23.0808L7.88718 26.0504Z" fill="#754A91"/>
<path d="M6.45681 8.06747C6.4425 7.62655 6.68575 7.30643 6.9801 7.01853C7.36832 6.65224 7.79603 6.32885 8.25562 6.05414C8.46519 5.92684 8.71438 5.87833 8.95736 5.91754C9.20034 5.95675 9.42079 6.08104 9.57816 6.26755C10.1342 6.84327 10.6319 7.47105 11.0642 8.14197C11.2783 8.44377 11.4399 8.77852 11.5425 9.13253C11.5835 9.27068 11.5862 9.41713 11.5503 9.55664C11.5143 9.69614 11.4411 9.82361 11.3381 9.92578C11.1023 10.1538 10.851 10.3657 10.5859 10.56C10.4523 10.6648 10.353 10.806 10.3003 10.9661C10.2476 11.1261 10.2439 11.2978 10.2895 11.4599C10.4532 12.2211 10.8242 12.9241 11.3627 13.4934C12.017 14.2802 12.86 14.8939 13.8156 15.2792C14.0504 15.3982 14.3194 15.4344 14.578 15.3819C14.7197 15.3439 14.8455 15.2629 14.9378 15.1504C15.0809 14.9712 15.2362 14.798 15.365 14.6068C15.532 14.3682 15.7871 14.2033 16.0758 14.1473C16.3644 14.0912 16.6639 14.1485 16.9104 14.3068C17.6033 14.7028 18.2574 15.1611 18.8645 15.6759C19.0076 15.7967 19.1568 15.9134 19.2999 16.0363C19.4692 16.1634 19.5915 16.3418 19.648 16.544C19.7045 16.7462 19.6921 16.9611 19.6127 17.1557C19.4864 17.4829 19.3023 17.7855 19.0689 18.0496C18.7789 18.4466 18.4096 18.7809 17.9835 19.0321C17.7798 19.1499 17.551 19.2191 17.3153 19.2341C17.0796 19.2491 16.8436 19.2096 16.6262 19.1187C14.9724 18.4628 13.4271 17.5678 12.0413 16.4631C10.6859 15.364 9.50131 14.0752 8.52544 12.6377C7.70431 11.4477 7.05104 10.1534 6.58355 8.79026C6.53377 8.62539 6.49283 8.45805 6.4609 8.28894C6.45181 8.21545 6.45044 8.14124 6.45681 8.06747Z" fill="#754A91"/>
<path d="M13.5141 5.9252C14.8978 5.9504 16.2286 6.45312 17.2746 7.34572C18.3205 8.23831 19.0152 9.46416 19.2376 10.8096C19.3271 11.2987 19.375 11.7944 19.3807 12.2914C19.3807 12.4081 19.35 12.4927 19.2233 12.5048C19.0965 12.5169 19.0638 12.4102 19.0638 12.3034C19.0828 11.2981 18.8733 10.3014 18.4506 9.38613C18.0946 8.63408 17.5673 7.97306 16.9096 7.4545C16.252 6.93595 15.4817 6.57383 14.6588 6.39632C14.2237 6.29711 13.7788 6.24579 13.3322 6.24331C13.2887 6.24405 13.2453 6.23862 13.2034 6.2272C13.1677 6.21729 13.1373 6.19412 13.1186 6.16257C13.0999 6.13102 13.0944 6.09356 13.1032 6.05808C13.1035 6.04125 13.1071 6.02464 13.114 6.00922C13.1208 5.9938 13.1307 5.97987 13.1431 5.96825C13.1555 5.95663 13.1701 5.94756 13.186 5.94155C13.202 5.93554 13.219 5.93272 13.2361 5.93326C13.3281 5.92118 13.4221 5.9252 13.5141 5.9252Z" fill="#754A91"/>
<path d="M17.4598 11.3853C17.453 10.8259 17.3131 10.276 17.0515 9.77948C16.7899 9.28299 16.4137 8.8538 15.9533 8.52633C15.4159 8.15453 14.7912 7.92379 14.1381 7.85589C14.0278 7.8418 13.9174 7.83576 13.805 7.82368C13.6925 7.8116 13.6251 7.76529 13.6353 7.65255C13.6455 7.5398 13.7171 7.49953 13.8397 7.50758C15.6508 7.6163 17.192 8.62499 17.6663 10.5034C17.753 10.8656 17.7962 11.2366 17.795 11.6087C17.795 11.643 17.795 11.6772 17.795 11.7094C17.795 11.8101 17.7296 11.8765 17.6295 11.8745C17.6073 11.8738 17.5854 11.8686 17.5653 11.8593C17.5452 11.8499 17.5272 11.8367 17.5125 11.8203C17.4978 11.8039 17.4866 11.7847 17.4796 11.7639C17.4727 11.7431 17.4701 11.7212 17.4721 11.6993C17.4557 11.6047 17.4598 11.5081 17.4598 11.3853Z" fill="#754A91"/>
<path d="M14.2869 9.14257C15.2804 9.20901 15.9733 9.68818 16.1634 10.7291C16.1865 10.8624 16.2028 10.9968 16.2125 11.1317C16.2125 11.2405 16.1879 11.3331 16.0673 11.3331C15.9467 11.3331 15.9059 11.2525 15.9018 11.1317C15.9006 10.7327 15.7758 10.3436 15.544 10.0164C15.3005 9.71997 14.9508 9.52685 14.567 9.47678C14.4812 9.46097 14.3945 9.45022 14.3074 9.44457C14.1643 9.44457 14.0846 9.3741 14.103 9.26538C14.1214 9.15666 14.2072 9.13653 14.2869 9.14257Z" fill="#754A91"/>
</svg>
