<svg width="26" height="28" viewBox="0 0 26 28" fill="none" xmlns="http://www.w3.org/2000/svg">
<path d="M6.97756 24.3613C6.97756 23.9163 6.97756 23.4714 6.97756 23.0265C6.98074 23.0083 6.98009 22.9896 6.97567 22.9717C6.97124 22.9538 6.96312 22.9369 6.95182 22.9222C6.94051 22.9075 6.92626 22.8952 6.90994 22.8861C6.89363 22.877 6.87559 22.8713 6.85696 22.8694C5.73732 22.5561 4.7039 21.998 3.83373 21.2366C3.19971 20.6685 2.67182 19.9952 2.27408 19.2474C1.71346 18.1672 1.34037 17.0021 1.17026 15.8006C0.959492 14.2934 0.886293 12.7706 0.951541 11.2505C0.96585 10.5418 1.00264 9.84112 1.08441 9.13243C1.21481 7.7857 1.55971 6.4676 2.10646 5.22656C2.78159 3.70065 4.00636 2.47495 5.54464 1.78577C6.59252 1.31346 7.69492 0.968658 8.82747 0.758973C9.93812 0.551768 11.0626 0.424591 12.1921 0.378453C13.2101 0.342992 14.2294 0.357775 15.246 0.422746C16.7009 0.483236 18.1427 0.720595 19.5386 1.12943C20.5735 1.42327 21.558 1.86775 22.4596 2.44816C23.338 3.04212 24.0485 3.84653 24.5241 4.78564C25.0833 5.88248 25.4634 7.0593 25.6504 8.27274C25.7719 8.99316 25.8518 9.7198 25.8896 10.4492C25.9427 11.3531 25.9366 12.2612 25.9019 13.1611C25.8671 14.0611 25.7894 14.9349 25.677 15.8167C25.5349 17.1403 25.1218 18.4217 24.4628 19.5837C23.605 21.0535 22.2308 22.1635 20.5995 22.7043C19.484 23.0891 18.3322 23.3629 17.1613 23.5217C16.3048 23.6385 15.4463 23.7231 14.5837 23.7573C13.9234 23.7875 13.2632 23.7794 12.6029 23.7694C12.2289 23.7694 11.8568 23.7331 11.4848 23.7009C11.4483 23.6941 11.4105 23.6982 11.3763 23.7125C11.3421 23.7268 11.313 23.7508 11.2927 23.7815C10.5404 24.6713 9.75958 25.5371 8.9726 26.3988C8.82925 26.556 8.66328 26.6917 8.47997 26.8015C8.35965 26.8792 8.22245 26.928 8.07945 26.9439C7.93645 26.9598 7.79165 26.9423 7.65676 26.893C7.52187 26.8436 7.40066 26.7636 7.30291 26.6596C7.20517 26.5556 7.13363 26.4304 7.09407 26.2941C7.01617 26.0519 6.97754 25.7992 6.9796 25.5451C6.97756 25.1465 6.97756 24.7539 6.97756 24.3613ZM7.88718 26.0505L7.98326 25.9619L9.69008 24.0955C10.3469 23.3774 11.0031 22.6587 11.6586 21.9393C11.6908 21.8954 11.7342 21.8607 11.7845 21.8388C11.8348 21.8168 11.8901 21.8084 11.9447 21.8144C12.1675 21.8366 12.3903 21.8446 12.6152 21.8466C13.392 21.8466 14.1687 21.8466 14.9455 21.7923C15.6507 21.7379 16.3539 21.6534 17.0529 21.5446C17.8056 21.4156 18.5507 21.2469 19.2851 21.0393C20.9204 20.6064 22.1857 19.6803 22.9808 18.1804C23.4503 17.2582 23.7447 16.2593 23.8496 15.2328C23.9738 14.2654 24.0482 13.2924 24.0724 12.3175C24.1086 11.0929 24.0237 9.86772 23.8189 8.6593C23.6769 7.78379 23.4214 6.92986 23.0585 6.11847C22.5965 5.1118 21.9424 4.27828 20.9347 3.74273C19.3894 2.92129 17.7173 2.55487 15.9941 2.36763C15.5056 2.31528 15.017 2.28709 14.5264 2.26897C13.5219 2.21797 12.5153 2.22334 11.5114 2.28508C10.7894 2.33785 10.0713 2.43332 9.36098 2.57097C8.31635 2.75853 7.30577 3.09778 6.36228 3.57764C5.81531 3.84986 5.31907 4.21133 4.89462 4.64672C4.20671 5.40401 3.70211 6.30509 3.41877 7.28218C3.08265 8.42013 2.89917 9.5965 2.873 10.7814C2.80723 11.9662 2.82225 13.154 2.91797 14.3369C2.97752 15.0408 3.09718 15.7386 3.27569 16.4227C3.54127 17.4888 4.0565 18.479 4.78015 19.3139C5.56141 20.1656 6.57116 20.7826 7.69299 21.0937C7.83404 21.1359 7.8974 21.1843 7.8974 21.3413C7.88514 21.9211 7.8974 22.501 7.8974 23.0808L7.88718 26.0505Z" fill="white"/>
<path d="M6.45681 8.0676C6.4425 7.62668 6.68575 7.30656 6.9801 7.01865C7.36832 6.65236 7.79603 6.32897 8.25562 6.05426C8.46519 5.92696 8.71438 5.87846 8.95736 5.91767C9.20034 5.95687 9.42079 6.08116 9.57816 6.26768C10.1342 6.84339 10.6319 7.47117 11.0642 8.14209C11.2783 8.44389 11.4399 8.77864 11.5425 9.13265C11.5835 9.2708 11.5862 9.41725 11.5503 9.55676C11.5143 9.69627 11.4411 9.82374 11.3381 9.9259C11.1023 10.1539 10.851 10.3658 10.5859 10.5601C10.4523 10.665 10.353 10.8062 10.3003 10.9662C10.2476 11.1262 10.2439 11.298 10.2895 11.4601C10.4532 12.2213 10.8242 12.9242 11.3627 13.4935C12.017 14.2803 12.86 14.8941 13.8156 15.2794C14.0504 15.3983 14.3194 15.4345 14.578 15.382C14.7197 15.344 14.8455 15.263 14.9378 15.1505C15.0809 14.9713 15.2362 14.7982 15.365 14.6069C15.532 14.3683 15.7871 14.2034 16.0758 14.1474C16.3644 14.0914 16.6639 14.1486 16.9104 14.3069C17.6033 14.7029 18.2574 15.1612 18.8645 15.676C19.0076 15.7968 19.1568 15.9136 19.2999 16.0364C19.4692 16.1636 19.5915 16.3419 19.648 16.5441C19.7045 16.7463 19.6921 16.9612 19.6127 17.1558C19.4864 17.483 19.3023 17.7857 19.0689 18.0497C18.7789 18.4467 18.4096 18.781 17.9835 19.0322C17.7798 19.15 17.551 19.2192 17.3153 19.2342C17.0796 19.2493 16.8436 19.2097 16.6262 19.1188C14.9724 18.463 13.4271 17.5679 12.0413 16.4632C10.6859 15.3642 9.50131 14.0753 8.52544 12.6379C7.70431 11.4479 7.05104 10.1535 6.58355 8.79038C6.53377 8.62551 6.49283 8.45817 6.4609 8.28906C6.45181 8.21558 6.45044 8.14136 6.45681 8.0676Z" fill="white"/>
<path d="M13.5141 5.92533C14.8978 5.95052 16.2286 6.45324 17.2746 7.34584C18.3205 8.23843 19.0152 9.46429 19.2376 10.8097C19.3271 11.2988 19.375 11.7945 19.3807 12.2915C19.3807 12.4083 19.35 12.4928 19.2233 12.5049C19.0965 12.517 19.0638 12.4103 19.0638 12.3036C19.0828 11.2983 18.8733 10.3015 18.4506 9.38625C18.0946 8.6342 17.5673 7.97319 16.9096 7.45463C16.252 6.93607 15.4817 6.57395 14.6588 6.39645C14.2237 6.29723 13.7788 6.24591 13.3322 6.24343C13.2887 6.24417 13.2453 6.23875 13.2034 6.22733C13.1677 6.21742 13.1373 6.19424 13.1186 6.16269C13.0999 6.13115 13.0944 6.09369 13.1032 6.05821C13.1035 6.04138 13.1071 6.02476 13.114 6.00934C13.1208 5.99392 13.1307 5.97999 13.1431 5.96837C13.1555 5.95675 13.1701 5.94768 13.186 5.94167C13.202 5.93566 13.219 5.93284 13.2361 5.93338C13.3281 5.9213 13.4221 5.92533 13.5141 5.92533Z" fill="white"/>
<path d="M17.4598 11.3854C17.453 10.8261 17.3131 10.2761 17.0515 9.77966C16.7899 9.28317 16.4137 8.85398 15.9533 8.52652C15.4159 8.15472 14.7912 7.92397 14.1381 7.85607C14.0278 7.84198 13.9174 7.83594 13.805 7.82386C13.6925 7.81178 13.6251 7.76548 13.6353 7.65273C13.6455 7.53998 13.7171 7.49971 13.8397 7.50777C15.6508 7.61649 17.192 8.62517 17.6663 10.5036C17.753 10.8658 17.7962 11.2368 17.795 11.6089C17.795 11.6432 17.795 11.6774 17.795 11.7096C17.795 11.8103 17.7296 11.8767 17.6295 11.8747C17.6073 11.874 17.5854 11.8688 17.5653 11.8594C17.5452 11.8501 17.5272 11.8369 17.5125 11.8205C17.4978 11.8041 17.4866 11.7849 17.4796 11.7641C17.4727 11.7433 17.4701 11.7213 17.4721 11.6995C17.4557 11.6049 17.4598 11.5083 17.4598 11.3854Z" fill="white"/>
<path d="M14.2869 9.14251C15.2804 9.20895 15.9733 9.68812 16.1634 10.729C16.1865 10.8624 16.2028 10.9967 16.2125 11.1317C16.2125 11.2404 16.1879 11.333 16.0673 11.333C15.9467 11.333 15.9059 11.2525 15.9018 11.1317C15.9006 10.7327 15.7758 10.3435 15.544 10.0163C15.3005 9.71991 14.9508 9.52679 14.567 9.47672C14.4812 9.46091 14.3945 9.45016 14.3074 9.44451C14.1643 9.44451 14.0846 9.37404 14.103 9.26532C14.1214 9.1566 14.2072 9.13647 14.2869 9.14251Z" fill="white"/>
</svg>
