<svg width="82" height="28" viewBox="0 0 82 28" fill="none" xmlns="http://www.w3.org/2000/svg">
<path fill-rule="evenodd" clip-rule="evenodd" d="M71.6022 7.6716L73.3024 16.0823C73.3471 16.3596 73.4813 17.0066 73.5261 17.3301H68.202L69.8574 12.4777C70.1706 11.6921 70.439 10.8603 70.7074 10.0747L71.3338 8.27236C71.3785 8.13373 71.4233 8.08751 71.468 7.94887L71.6022 7.6716ZM58.0012 26.6188H64.8912C65.0254 26.3878 65.1149 26.0181 65.2491 25.6946C65.3834 25.2787 66.1887 23.0605 66.2334 22.7832H74.6446C74.6446 23.1529 75.3604 26.2491 75.4499 26.6188H81.5346C81.4451 26.434 81.2661 25.3711 81.1766 25.0014C80.4608 21.8589 79.9239 18.3468 79.2081 15.2043L78.537 11.877C78.4028 11.3686 78.3133 10.8141 78.179 10.2595L76.5237 1.98742C76.4342 1.5253 76.3447 0.462402 76.0763 0.462402H71.3785C70.5732 0.462402 69.8574 0.554828 69.2758 0.785892C67.8888 1.47908 67.5756 3.09653 66.9493 4.62155L58.0012 26.6188Z" fill="#C9C9C9"/>
<path fill-rule="evenodd" clip-rule="evenodd" d="M0.465576 1.24794L4.13427 2.31083C4.98434 2.58811 6.77394 3.32751 7.40031 3.78964C8.33985 4.52904 8.51881 5.823 8.83199 7.16317C9.14517 8.50334 9.50309 9.75109 9.81628 11.0913C10.89 15.5739 12.1428 20.149 13.2165 24.6316C13.306 25.0937 13.6639 26.2953 13.6639 26.6188H20.5539C20.7329 26.6188 21.1803 25.371 21.2698 25.0937L25.9675 13.5405C26.4149 12.4314 26.8623 11.4148 27.3097 10.2594C28.3835 7.67151 29.6809 4.52904 30.6652 1.98734C30.7994 1.66385 30.8889 1.479 31.0231 1.15551C31.0679 0.970659 31.1126 0.924446 31.2021 0.739595C31.2468 0.600956 31.3363 0.462318 31.0679 0.462318H24.5358C24.2674 0.462318 24.1331 1.01687 23.9989 1.43279C23.5068 2.9116 22.4777 5.40709 21.8961 6.97832L18.0485 17.0065C17.8695 17.3762 17.6905 17.8383 17.6011 18.1618C17.5116 18.0232 17.4668 17.7459 17.4221 17.33L16.2141 10.814C15.9904 9.56624 15.7667 8.36471 15.543 7.11696C15.3193 5.86921 15.0956 4.66768 14.8719 3.41994C14.335 0.0464029 11.6506 0.462318 9.23465 0.462318C6.37128 0.462318 3.50791 0.462318 0.644537 0.462318C0.599797 0.693382 0.555057 1.06308 0.465576 1.24794Z" fill="#C9C9C9"/>
<path fill-rule="evenodd" clip-rule="evenodd" d="M42.3869 8.27238C42.3869 10.1209 42.5658 10.9989 43.6843 12.4777C44.4002 13.4482 45.5634 14.3263 46.5477 14.927L47.6662 15.5278C47.9347 15.6664 48.1584 15.8051 48.4268 15.9437C49.4558 16.452 51.4691 17.5611 51.4691 18.8089C51.4691 19.8256 51.1112 20.4726 50.3059 20.8885C48.8742 21.6279 48.1584 21.5354 46.5924 21.5354C45.4739 21.5354 44.3554 21.2582 43.4606 20.9809C43.0132 20.8423 42.6106 20.7036 42.1632 20.5188C41.8947 20.3801 41.1341 19.9642 40.8657 19.9642L39.6577 25.6484C42.6106 27.1272 48.2926 27.4969 51.7823 26.3878C52.9008 26.0181 54.1088 25.4635 55.0483 24.7703C56.8379 23.384 57.9565 21.6741 58.2696 19.3634C58.4486 18.2081 58.4486 17.1914 58.0907 16.0823C56.9274 12.6164 53.4824 11.4611 50.8428 9.84361C50.2164 9.4277 49.1874 8.68829 49.1874 7.81025C49.1874 5.96174 51.6481 5.49961 53.214 5.49961C55.0036 5.49961 57.2406 6.10038 58.4039 6.74735C58.5381 6.42387 59.4776 1.4791 59.6118 1.15561C58.8065 0.970756 58.1354 0.647266 56.7932 0.36999C54.1535 -0.184564 51.7823 -0.0921383 49.2321 0.554841C47.6662 0.970756 46.4582 1.66395 45.295 2.5882C43.7291 3.78974 42.3869 6.1928 42.3869 8.27238Z" fill="#C9C9C9"/>
<path fill-rule="evenodd" clip-rule="evenodd" d="M28.6069 26.6188H35.2285L36.5707 20.1028C37.376 15.805 38.4945 11.1838 39.2998 6.88598L40.4631 1.15559C40.5526 0.878317 40.7315 0.462402 40.4183 0.462402H34.1995C33.9758 0.462402 34.0205 0.647253 33.8863 1.15559L32.723 6.88598C32.3204 9.05798 31.7835 11.2762 31.3361 13.4482C30.7545 16.6831 29.9491 20.1028 29.3228 23.3377C29.1886 23.8923 29.0991 24.4006 28.9649 24.9552C28.9201 25.2787 28.8754 25.5097 28.7859 25.787C28.7412 26.0181 28.6964 26.4802 28.6069 26.6188Z" fill="#C9C9C9"/>
</svg>
