<svg width="160" height="51" viewBox="0 0 160 51" fill="none" xmlns="http://www.w3.org/2000/svg">
<g clip-path="url(#clip0_104_1875)">
<path fill-rule="evenodd" clip-rule="evenodd" d="M140.372 14.4718L143.726 30.3385C143.814 30.8616 144.079 32.0821 144.167 32.6923H133.664L136.93 23.5385C137.547 22.0564 138.077 20.4872 138.607 19.0052L139.842 15.6052C139.931 15.3436 140.019 15.2564 140.107 14.9949L140.372 14.4718ZM113.54 50.2154H127.132C127.397 49.7795 127.574 49.0821 127.839 48.4718C128.103 47.6872 129.692 43.5026 129.78 42.9795H146.374C146.374 43.677 147.786 49.518 147.963 50.2154H159.966C159.79 49.8667 159.437 47.8616 159.26 47.1641C157.848 41.2359 156.789 34.6103 155.377 28.6821L154.053 22.4052C153.788 21.4462 153.611 20.4 153.347 19.3539L150.081 3.74875C149.904 2.87695 149.728 0.871826 149.198 0.871826H139.931C138.342 0.871826 136.93 1.04619 135.782 1.48208C133.046 2.78977 132.428 5.84106 131.193 8.71798L113.54 50.2154Z" fill="#24449B"/>
<path fill-rule="evenodd" clip-rule="evenodd" d="M0.0337677 2.35381L7.27133 4.35894C8.94833 4.88202 12.4788 6.27689 13.7145 7.14869C15.5681 8.54356 15.9211 10.9846 16.5389 13.5128C17.1568 16.041 17.8629 18.3948 18.4807 20.923C20.599 29.3795 23.0704 38.0102 25.1887 46.4666C25.3652 47.3384 26.0713 49.6051 26.0713 50.2154H39.6638C40.0169 50.2154 40.8995 47.8615 41.076 47.3384L50.3437 25.5436C51.2263 23.4513 52.1089 21.5333 52.9915 19.3538C55.1099 14.4718 57.6695 8.54356 59.6113 3.74869C59.8761 3.13843 60.0526 2.78971 60.3174 2.17946C60.4056 1.83074 60.4939 1.74356 60.6704 1.39484C60.7587 1.1333 60.9352 0.871763 60.4056 0.871763H47.5192C46.9897 0.871763 46.7249 1.91792 46.4601 2.70253C45.4892 5.49228 43.4591 10.2 42.3117 13.1641L34.7211 32.082C34.3681 32.7795 34.015 33.6513 33.8385 34.2615C33.662 34 33.5737 33.4769 33.4854 32.6923L31.1023 20.4C30.661 18.0461 30.2197 15.7795 29.7784 13.4256C29.3371 11.0718 28.8958 8.8051 28.4544 6.45125C27.3953 0.087148 22.0995 0.871763 17.3333 0.871763C11.6845 0.871763 6.03565 0.871763 0.38682 0.871763C0.298557 1.30766 0.210294 2.0051 0.0337677 2.35381Z" fill="#222965"/>
<path fill-rule="evenodd" clip-rule="evenodd" d="M82.7362 15.6051C82.7362 19.0923 83.0892 20.7487 85.2958 23.5384C86.708 25.3692 89.0028 27.0256 90.9446 28.159L93.1512 29.2923C93.6808 29.5538 94.1221 29.8154 94.6517 30.0769C96.6817 31.0359 100.654 33.1282 100.654 35.482C100.654 37.4 99.9474 38.6205 98.3587 39.4051C95.5343 40.8 94.1221 40.6256 91.0329 40.6256C88.8263 40.6256 86.6197 40.1025 84.8545 39.5795C83.9718 39.3179 83.1775 39.0564 82.2948 38.7077C81.7653 38.4461 80.2648 37.6615 79.7352 37.6615L77.3521 48.3846C83.1775 51.1743 94.3869 51.8718 101.271 49.7795C103.478 49.082 105.861 48.0359 107.715 46.7282C111.245 44.1128 113.452 40.8872 114.07 36.5282C114.423 34.3487 114.423 32.4308 113.716 30.3384C111.422 23.8 104.625 21.6205 99.4179 18.5692C98.1822 17.7846 96.1521 16.3897 96.1521 14.7333C96.1521 11.2461 101.007 10.3743 104.096 10.3743C107.626 10.3743 112.039 11.5077 114.334 12.7282C114.599 12.1179 116.453 2.78973 116.717 2.17947C115.129 1.83076 113.805 1.2205 111.157 0.697422C105.949 -0.348731 101.271 -0.174372 96.2404 1.04614C93.1512 1.83076 90.7681 3.13845 88.4733 4.88204C85.384 7.1487 82.7362 11.682 82.7362 15.6051Z" fill="#233B86"/>
<path fill-rule="evenodd" clip-rule="evenodd" d="M55.5512 50.2154H68.6141L71.262 37.9231C72.8507 29.8154 75.0573 21.0975 76.646 12.9898L78.9409 2.17952C79.1174 1.65644 79.4704 0.871826 78.8526 0.871826H66.584C66.1427 0.871826 66.231 1.22054 65.9662 2.17952L63.6714 12.9898C62.877 17.0872 61.8178 21.2718 60.9352 25.3693C59.7878 31.4718 58.1991 37.9231 56.9634 44.0257C56.6986 45.0718 56.5221 46.0308 56.2573 47.077C56.169 47.6872 56.0808 48.1231 55.9042 48.6462C55.816 49.0821 55.7277 49.9539 55.5512 50.2154Z" fill="#233275"/>
</g>
<defs>
<clipPath id="clip0_104_1875">
<rect width="160" height="51" fill="white"/>
</clipPath>
</defs>
</svg>
