<svg width="28" height="28" viewBox="0 0 28 28" fill="none" xmlns="http://www.w3.org/2000/svg">
<path d="M0.631592 27.5551L2.57597 20.2834C1.00788 17.4507 0.509679 14.1452 1.17279 10.9734C1.83591 7.80164 3.61586 4.97637 6.18602 3.01603C8.75617 1.0557 11.9441 0.0918106 15.1649 0.301233C18.3857 0.510655 21.4232 1.87934 23.7202 4.15614C26.0171 6.43294 27.4193 9.46513 27.6695 12.6963C27.9198 15.9275 27.0012 19.1409 25.0824 21.7468C23.1636 24.3528 20.3732 26.1765 17.2234 26.8834C14.0736 27.5903 10.7755 27.1328 7.93449 25.595L0.631592 27.5551ZM8.28662 22.8739L8.73827 23.1429C10.7961 24.3677 13.1996 24.8745 15.5743 24.5844C17.9489 24.2943 20.1613 23.2236 21.8666 21.5391C23.572 19.8546 24.6745 17.6509 25.0024 15.2715C25.3303 12.8921 24.8651 10.4706 23.6794 8.3844C22.4936 6.29817 20.654 4.66441 18.447 3.73771C16.24 2.81101 13.7898 2.64342 11.478 3.26106C9.16631 3.87871 7.12299 5.24689 5.66649 7.15239C4.20999 9.05789 3.42213 11.3937 3.42568 13.7958C3.42374 15.7875 3.97229 17.7406 5.01027 19.4379L5.2935 19.9068L4.20649 23.9654L8.28662 22.8739Z" fill="white"/>
<path fill-rule="evenodd" clip-rule="evenodd" d="M19.2483 15.663C18.9835 15.4486 18.6735 15.2976 18.3419 15.2217C18.0102 15.1458 17.6657 15.1468 17.3346 15.2248C16.837 15.4324 16.5155 16.2164 16.194 16.6085C16.1262 16.7024 16.0265 16.7684 15.9138 16.7938C15.801 16.8193 15.6829 16.8026 15.5816 16.7468C13.7599 16.0304 12.233 14.7166 11.2488 13.0187C11.1649 12.9128 11.1251 12.7783 11.138 12.6435C11.1508 12.5087 11.2153 12.3842 11.3177 12.2962C11.6763 11.9397 11.9396 11.4982 12.0832 11.0125C12.1151 10.4767 11.9929 9.94306 11.7311 9.47512C11.5287 8.8191 11.1435 8.23496 10.6211 7.79172C10.3516 7.67002 10.0529 7.62922 9.76083 7.67423C9.4688 7.71924 9.19597 7.84814 8.97526 8.04538C8.5921 8.37733 8.28798 8.79135 8.08528 9.25696C7.88258 9.72257 7.78648 10.2279 7.80404 10.7358C7.80522 11.0209 7.84122 11.3049 7.91121 11.5813C8.08897 12.2454 8.36233 12.8798 8.72264 13.4646C8.98261 13.9125 9.26625 14.3461 9.57235 14.7636C10.5672 16.1349 11.8177 17.2993 13.2544 18.1919C13.9754 18.6456 14.746 19.0144 15.5509 19.2912C16.3871 19.6718 17.3103 19.8179 18.2225 19.7139C18.7423 19.6349 19.2347 19.4289 19.6565 19.1139C20.0784 18.7989 20.4166 18.3846 20.6415 17.9075C20.7737 17.6193 20.8138 17.2971 20.7564 16.9851C20.6186 16.3471 19.7689 15.9705 19.2483 15.663Z" fill="white"/>
</svg>
