<svg width="28" height="28" viewBox="0 0 28 28" fill="none" xmlns="http://www.w3.org/2000/svg">
<path d="M0.631592 27.5552L2.57597 20.2835C1.00788 17.4508 0.509679 14.1453 1.17279 10.9735C1.83591 7.80176 3.61586 4.97649 6.18602 3.01616C8.75617 1.05582 11.9441 0.0919326 15.1649 0.301355C18.3857 0.510777 21.4232 1.87947 23.7202 4.15627C26.0171 6.43306 27.4193 9.46525 27.6695 12.6964C27.9198 15.9276 27.0012 19.141 25.0824 21.747C23.1636 24.3529 20.3732 26.1767 17.2234 26.8835C14.0736 27.5904 10.7755 27.1329 7.93449 25.5951L0.631592 27.5552ZM8.28662 22.874L8.73827 23.143C10.7961 24.3678 13.1996 24.8746 15.5743 24.5846C17.9489 24.2945 20.1613 23.2237 21.8666 21.5392C23.572 19.8547 24.6745 17.651 25.0024 15.2716C25.3303 12.8922 24.8651 10.4707 23.6794 8.38452C22.4936 6.2983 20.654 4.66454 18.447 3.73783C16.24 2.81113 13.7898 2.64354 11.478 3.26119C9.16631 3.87883 7.12299 5.24701 5.66649 7.15251C4.20999 9.05802 3.42213 11.3938 3.42568 13.7959C3.42374 15.7876 3.97229 17.7408 5.01027 19.438L5.2935 19.9069L4.20649 23.9655L8.28662 22.874Z" fill="#00D95F"/>
<path fill-rule="evenodd" clip-rule="evenodd" d="M19.2483 15.6631C18.9835 15.4486 18.6735 15.2977 18.3419 15.2218C18.0102 15.1458 17.6657 15.1469 17.3346 15.2249C16.837 15.4324 16.5155 16.2165 16.194 16.6085C16.1262 16.7025 16.0265 16.7684 15.9138 16.7939C15.801 16.8194 15.6829 16.8027 15.5816 16.7469C13.7599 16.0305 12.233 14.7166 11.2488 13.0188C11.1649 12.9128 11.1251 12.7783 11.138 12.6435C11.1508 12.5088 11.2153 12.3843 11.3177 12.2962C11.6763 11.9398 11.9396 11.4983 12.0832 11.0125C12.1151 10.4768 11.9929 9.94312 11.7311 9.47518C11.5287 8.81916 11.1435 8.23502 10.6211 7.79178C10.3516 7.67008 10.0529 7.62928 9.76083 7.67429C9.4688 7.7193 9.19597 7.8482 8.97526 8.04544C8.5921 8.37739 8.28798 8.79141 8.08528 9.25702C7.88258 9.72263 7.78648 10.228 7.80404 10.7358C7.80522 11.021 7.84122 11.305 7.91121 11.5814C8.08897 12.2454 8.36233 12.8799 8.72264 13.4646C8.98261 13.9126 9.26625 14.3462 9.57235 14.7637C10.5672 16.135 11.8177 17.2993 13.2544 18.192C13.9754 18.6456 14.746 19.0145 15.5509 19.2912C16.3871 19.6718 17.3103 19.8179 18.2225 19.714C18.7423 19.635 19.2347 19.4289 19.6565 19.1139C20.0784 18.799 20.4166 18.3847 20.6415 17.9076C20.7737 17.6194 20.8138 17.2972 20.7564 16.9852C20.6186 16.3472 19.7689 15.9705 19.2483 15.6631Z" fill="#00D95F"/>
</svg>
