<svg width="35" height="24" viewBox="0 0 35 24" fill="none" xmlns="http://www.w3.org/2000/svg">
<path d="M33.6878 3.74741C33.2961 2.27468 32.1372 1.11286 30.6628 0.714683C27.9969 0.000137589 17.3006 0.000137329 17.3006 0.000137329C17.3006 0.000137329 6.60966 0.000137589 3.9383 0.714683C2.46932 1.10741 1.31046 2.26923 0.913288 3.74741C0.200562 6.42014 0.200562 12.0001 0.200562 12.0001C0.200562 12.0001 0.200562 17.5801 0.913288 20.2529C1.30502 21.7256 2.46388 22.8874 3.9383 23.2856C6.60966 24.0001 17.3006 24.0001 17.3006 24.0001C17.3006 24.0001 27.9969 24.0001 30.6628 23.2856C32.1318 22.8929 33.2907 21.731 33.6878 20.2529C34.4006 17.5801 34.4006 12.0001 34.4006 12.0001C34.4006 12.0001 34.4006 6.42014 33.6878 3.74741Z" fill="#FF3000"/>
<path d="M13.8838 17.1438L22.7684 12.0001L13.8838 6.8565V17.1438Z" fill="white"/>
</svg>
