<svg width="28" height="28" viewBox="0 0 28 28" fill="none" xmlns="http://www.w3.org/2000/svg">
<path d="M9.32155 13.7946C9.32155 11.2552 11.3808 9.19603 13.9218 9.19603C16.4627 9.19603 18.5231 11.2552 18.5231 13.7946C18.5231 16.334 16.4627 18.3932 13.9218 18.3932C11.3808 18.3932 9.32155 16.334 9.32155 13.7946ZM6.83416 13.7946C6.83416 17.7067 10.0073 20.878 13.9218 20.878C17.8363 20.878 21.0094 17.7067 21.0094 13.7946C21.0094 9.88245 17.8363 6.71124 13.9218 6.71124C10.0073 6.71124 6.83416 9.88245 6.83416 13.7946ZM19.6336 6.43038C19.6335 6.75778 19.7305 7.07786 19.9124 7.35015C20.0943 7.62245 20.3529 7.83472 20.6555 7.96013C20.9581 8.08554 21.2911 8.11846 21.6124 8.05471C21.9338 7.99097 22.229 7.83343 22.4607 7.60202C22.6924 7.37061 22.8503 7.07571 22.9143 6.75463C22.9784 6.43355 22.9457 6.1007 22.8205 5.79818C22.6952 5.49565 22.483 5.23703 22.2107 5.05503C21.9384 4.87303 21.6182 4.77582 21.2906 4.77569H21.29C20.8508 4.77589 20.4298 4.95027 20.1192 5.26052C19.8086 5.57077 19.634 5.99153 19.6336 6.43038ZM8.34541 25.0231C6.99968 24.9618 6.26824 24.7378 5.78216 24.5485C5.13773 24.2978 4.67793 23.9992 4.1945 23.5167C3.71107 23.0342 3.41182 22.5751 3.16204 21.9311C2.97256 21.4455 2.7484 20.7143 2.68722 19.3694C2.62031 17.9153 2.60695 17.4785 2.60695 13.7947C2.60695 10.1109 2.62141 9.67531 2.68722 8.22003C2.74851 6.87512 2.97432 6.14533 3.16204 5.65832C3.41292 5.01428 3.71173 4.55475 4.1945 4.07161C4.67727 3.58847 5.13663 3.2894 5.78216 3.03978C6.26802 2.8504 6.99968 2.62638 8.34541 2.56524C9.80034 2.49837 10.2374 2.48501 13.9218 2.48501C17.6061 2.48501 18.0436 2.49947 19.4998 2.56524C20.8455 2.62649 21.5757 2.85217 22.063 3.03978C22.7075 3.2894 23.1673 3.58913 23.6507 4.07161C24.1341 4.55409 24.4323 5.01428 24.6831 5.65832C24.8726 6.14389 25.0968 6.87512 25.158 8.22003C25.2249 9.67531 25.2382 10.1109 25.2382 13.7947C25.2382 17.4785 25.2249 17.9141 25.158 19.3694C25.0967 20.7143 24.8714 21.4453 24.6831 21.9311C24.4323 22.5751 24.1335 23.0347 23.6507 23.5167C23.1679 23.9987 22.7075 24.2978 22.063 24.5485C21.5772 24.7379 20.8455 24.9619 19.4998 25.0231C18.0448 25.0899 17.6078 25.1033 13.9218 25.1033C10.2357 25.1033 9.7999 25.0899 8.34541 25.0231ZM8.23112 0.0835401C6.76172 0.150416 5.75764 0.383269 4.88078 0.724271C3.97266 1.07642 3.20389 1.54886 2.43568 2.3154C1.66747 3.08193 1.19596 3.85145 0.843602 4.75903C0.502395 5.63592 0.269403 6.63884 0.202487 8.10736C0.134466 9.57819 0.118896 10.0484 0.118896 13.7946C0.118896 17.5408 0.134466 18.011 0.202487 19.4818C0.269403 20.9505 0.502395 21.9533 0.843602 22.8302C1.19596 23.7372 1.66758 24.5076 2.43568 25.2738C3.20378 26.04 3.97266 26.5118 4.88078 26.8649C5.7593 27.2059 6.76172 27.4388 8.23112 27.5056C9.70361 27.5725 10.1733 27.5892 13.9218 27.5892C17.6702 27.5892 18.1407 27.5736 19.6124 27.5056C21.0819 27.4388 22.0853 27.2059 22.9628 26.8649C23.8703 26.5118 24.6396 26.0403 25.4079 25.2738C26.1761 24.5073 26.6466 23.7372 26.9999 22.8302C27.3411 21.9533 27.5752 20.9503 27.641 19.4818C27.708 18.0099 27.7235 17.5408 27.7235 13.7946C27.7235 10.0484 27.708 9.57819 27.641 8.10736C27.5741 6.63873 27.3411 5.63537 26.9999 4.75903C26.6466 3.852 26.1748 3.08315 25.4079 2.3154C24.6409 1.54764 23.8703 1.07642 22.9639 0.724271C22.0853 0.383269 21.0818 0.149313 19.6135 0.0835401C18.1418 0.0166639 17.6713 0 13.9229 0C10.1745 0 9.70361 0.0155603 8.23112 0.0835401Z" fill="#FA8F21"/>
<path d="M9.32155 13.7946C9.32155 11.2552 11.3808 9.19603 13.9218 9.19603C16.4627 9.19603 18.5231 11.2552 18.5231 13.7946C18.5231 16.334 16.4627 18.3932 13.9218 18.3932C11.3808 18.3932 9.32155 16.334 9.32155 13.7946ZM6.83416 13.7946C6.83416 17.7067 10.0073 20.878 13.9218 20.878C17.8363 20.878 21.0094 17.7067 21.0094 13.7946C21.0094 9.88245 17.8363 6.71124 13.9218 6.71124C10.0073 6.71124 6.83416 9.88245 6.83416 13.7946ZM19.6336 6.43038C19.6335 6.75778 19.7305 7.07786 19.9124 7.35015C20.0943 7.62245 20.3529 7.83472 20.6555 7.96013C20.9581 8.08554 21.2911 8.11846 21.6124 8.05471C21.9338 7.99097 22.229 7.83343 22.4607 7.60202C22.6924 7.37061 22.8503 7.07571 22.9143 6.75463C22.9784 6.43355 22.9457 6.1007 22.8205 5.79818C22.6952 5.49565 22.483 5.23703 22.2107 5.05503C21.9384 4.87303 21.6182 4.77582 21.2906 4.77569H21.29C20.8508 4.77589 20.4298 4.95027 20.1192 5.26052C19.8086 5.57077 19.634 5.99153 19.6336 6.43038ZM8.34541 25.0231C6.99968 24.9618 6.26824 24.7378 5.78216 24.5485C5.13773 24.2978 4.67793 23.9992 4.1945 23.5167C3.71107 23.0342 3.41182 22.5751 3.16204 21.9311C2.97256 21.4455 2.7484 20.7143 2.68722 19.3694C2.62031 17.9153 2.60695 17.4785 2.60695 13.7947C2.60695 10.1109 2.62141 9.67531 2.68722 8.22003C2.74851 6.87512 2.97432 6.14533 3.16204 5.65832C3.41292 5.01428 3.71173 4.55475 4.1945 4.07161C4.67727 3.58847 5.13663 3.2894 5.78216 3.03978C6.26802 2.8504 6.99968 2.62638 8.34541 2.56524C9.80034 2.49837 10.2374 2.48501 13.9218 2.48501C17.6061 2.48501 18.0436 2.49947 19.4998 2.56524C20.8455 2.62649 21.5757 2.85217 22.063 3.03978C22.7075 3.2894 23.1673 3.58913 23.6507 4.07161C24.1341 4.55409 24.4323 5.01428 24.6831 5.65832C24.8726 6.14389 25.0968 6.87512 25.158 8.22003C25.2249 9.67531 25.2382 10.1109 25.2382 13.7947C25.2382 17.4785 25.2249 17.9141 25.158 19.3694C25.0967 20.7143 24.8714 21.4453 24.6831 21.9311C24.4323 22.5751 24.1335 23.0347 23.6507 23.5167C23.1679 23.9987 22.7075 24.2978 22.063 24.5485C21.5772 24.7379 20.8455 24.9619 19.4998 25.0231C18.0448 25.0899 17.6078 25.1033 13.9218 25.1033C10.2357 25.1033 9.7999 25.0899 8.34541 25.0231ZM8.23112 0.0835401C6.76172 0.150416 5.75764 0.383269 4.88078 0.724271C3.97266 1.07642 3.20389 1.54886 2.43568 2.3154C1.66747 3.08193 1.19596 3.85145 0.843602 4.75903C0.502395 5.63592 0.269403 6.63884 0.202487 8.10736C0.134466 9.57819 0.118896 10.0484 0.118896 13.7946C0.118896 17.5408 0.134466 18.011 0.202487 19.4818C0.269403 20.9505 0.502395 21.9533 0.843602 22.8302C1.19596 23.7372 1.66758 24.5076 2.43568 25.2738C3.20378 26.04 3.97266 26.5118 4.88078 26.8649C5.7593 27.2059 6.76172 27.4388 8.23112 27.5056C9.70361 27.5725 10.1733 27.5892 13.9218 27.5892C17.6702 27.5892 18.1407 27.5736 19.6124 27.5056C21.0819 27.4388 22.0853 27.2059 22.9628 26.8649C23.8703 26.5118 24.6396 26.0403 25.4079 25.2738C26.1761 24.5073 26.6466 23.7372 26.9999 22.8302C27.3411 21.9533 27.5752 20.9503 27.641 19.4818C27.708 18.0099 27.7235 17.5408 27.7235 13.7946C27.7235 10.0484 27.708 9.57819 27.641 8.10736C27.5741 6.63873 27.3411 5.63537 26.9999 4.75903C26.6466 3.852 26.1748 3.08315 25.4079 2.3154C24.6409 1.54764 23.8703 1.07642 22.9639 0.724271C22.0853 0.383269 21.0818 0.149313 19.6135 0.0835401C18.1418 0.0166639 17.6713 0 13.9229 0C10.1745 0 9.70361 0.0155603 8.23112 0.0835401Z" fill="white"/>
</svg>
