<svg width="34" height="34" viewBox="0 0 34 34" fill="none" xmlns="http://www.w3.org/2000/svg">
<path d="M11.5379 16.9999C11.5379 13.9841 13.9835 11.5387 17.0011 11.5387C20.0187 11.5387 22.4656 13.9841 22.4656 16.9999C22.4656 20.0157 20.0187 22.4611 17.0011 22.4611C13.9835 22.4611 11.5379 20.0157 11.5379 16.9999ZM8.58389 16.9999C8.58389 21.6459 12.3523 25.4121 17.0011 25.4121C21.6499 25.4121 25.4183 21.6459 25.4183 16.9999C25.4183 12.3539 21.6499 8.58775 17.0011 8.58775C12.3523 8.58775 8.58389 12.3539 8.58389 16.9999ZM23.7845 8.25421C23.7843 8.64302 23.8995 9.02315 24.1155 9.34653C24.3315 9.6699 24.6386 9.922 24.998 10.0709C25.3574 10.2199 25.7529 10.259 26.1345 10.1833C26.5161 10.1076 26.8667 9.92046 27.1419 9.64564C27.4171 9.37082 27.6046 9.0206 27.6806 8.63929C27.7567 8.25798 27.7179 7.86269 27.5691 7.50341C27.4204 7.14413 27.1684 6.837 26.845 6.62086C26.5216 6.40471 26.1413 6.28927 25.7523 6.28911H25.7515C25.23 6.28935 24.73 6.49644 24.3611 6.86489C23.9923 7.23335 23.7849 7.73303 23.7845 8.25421V8.25421ZM10.3786 30.3348C8.78047 30.262 7.91181 29.996 7.33454 29.7712C6.56922 29.4734 6.02317 29.1188 5.44905 28.5458C4.87493 27.9728 4.51954 27.4276 4.22291 26.6628C3.99788 26.0861 3.73167 25.2177 3.65902 23.6205C3.57955 21.8937 3.56368 21.3749 3.56368 17C3.56368 12.6252 3.58086 12.1079 3.65902 10.3796C3.7318 8.78238 3.99998 7.91568 4.22291 7.33732C4.52085 6.57246 4.87571 6.02673 5.44905 5.45295C6.02238 4.87918 6.56791 4.52401 7.33454 4.22755C7.91155 4.00265 8.78047 3.7366 10.3786 3.664C12.1065 3.58458 12.6256 3.56872 17.0011 3.56872C21.3766 3.56872 21.8962 3.58589 23.6255 3.664C25.2237 3.73674 26.0909 4.00475 26.6696 4.22755C27.4349 4.52401 27.981 4.87996 28.5551 5.45295C29.1292 6.02594 29.4833 6.57246 29.7812 7.33732C30.0063 7.91398 30.2725 8.78238 30.3451 10.3796C30.4246 12.1079 30.4405 12.6252 30.4405 17C30.4405 21.3749 30.4246 21.8922 30.3451 23.6205C30.2724 25.2177 30.0048 26.0858 29.7812 26.6628C29.4833 27.4276 29.1284 27.9733 28.5551 28.5458C27.9818 29.1183 27.4349 29.4734 26.6696 29.7712C26.0926 29.9961 25.2237 30.2622 23.6255 30.3348C21.8976 30.4142 21.3786 30.43 17.0011 30.43C12.6236 30.43 12.106 30.4142 10.3786 30.3348V30.3348ZM10.2429 0.716742C8.49787 0.796164 7.30543 1.0727 6.26407 1.47767C5.18559 1.89588 4.27261 2.45694 3.36029 3.36728C2.44796 4.27762 1.888 5.19149 1.46954 6.26932C1.06433 7.31071 0.787627 8.50178 0.708158 10.2458C0.627377 11.9925 0.608887 12.551 0.608887 16.9999C0.608887 21.4488 0.627377 22.0073 0.708158 23.754C0.787627 25.4982 1.06433 26.6891 1.46954 27.7305C1.888 28.8077 2.44809 29.7226 3.36029 30.6325C4.27248 31.5425 5.18559 32.1028 6.26407 32.5221C7.3074 32.9271 8.49787 33.2036 10.2429 33.2831C11.9916 33.3625 12.5495 33.3823 17.0011 33.3823C21.4527 33.3823 22.0115 33.3638 23.7593 33.2831C25.5045 33.2036 26.6961 32.9271 27.7381 32.5221C28.8159 32.1028 29.7296 31.5429 30.6419 30.6325C31.5542 29.7222 32.113 28.8077 32.5326 27.7305C32.9379 26.6891 33.2159 25.498 33.294 23.754C33.3735 22.006 33.392 21.4488 33.392 16.9999C33.392 12.551 33.3735 11.9925 33.294 10.2458C33.2146 8.50165 32.9379 7.31006 32.5326 6.26932C32.113 5.19215 31.5528 4.27906 30.6419 3.36728C29.731 2.4555 28.8159 1.89588 27.7394 1.47767C26.6961 1.0727 25.5043 0.794854 23.7606 0.716742C22.0128 0.637321 21.454 0.617531 17.0024 0.617531C12.5508 0.617531 11.9916 0.63601 10.2429 0.716742Z" fill="url(#paint0_radial_303_558)"/>
<path d="M11.5379 16.9999C11.5379 13.9841 13.9835 11.5387 17.0011 11.5387C20.0187 11.5387 22.4656 13.9841 22.4656 16.9999C22.4656 20.0157 20.0187 22.4611 17.0011 22.4611C13.9835 22.4611 11.5379 20.0157 11.5379 16.9999ZM8.58389 16.9999C8.58389 21.6459 12.3523 25.4121 17.0011 25.4121C21.6499 25.4121 25.4183 21.6459 25.4183 16.9999C25.4183 12.3539 21.6499 8.58775 17.0011 8.58775C12.3523 8.58775 8.58389 12.3539 8.58389 16.9999ZM23.7845 8.25421C23.7843 8.64302 23.8995 9.02315 24.1155 9.34653C24.3315 9.6699 24.6386 9.922 24.998 10.0709C25.3574 10.2199 25.7529 10.259 26.1345 10.1833C26.5161 10.1076 26.8667 9.92046 27.1419 9.64564C27.4171 9.37082 27.6046 9.0206 27.6806 8.63929C27.7567 8.25798 27.7179 7.86269 27.5691 7.50341C27.4204 7.14413 27.1684 6.837 26.845 6.62086C26.5216 6.40471 26.1413 6.28927 25.7523 6.28911H25.7515C25.23 6.28935 24.73 6.49644 24.3611 6.86489C23.9923 7.23335 23.7849 7.73303 23.7845 8.25421V8.25421ZM10.3786 30.3348C8.78047 30.262 7.91181 29.996 7.33454 29.7712C6.56922 29.4734 6.02317 29.1188 5.44905 28.5458C4.87493 27.9728 4.51954 27.4276 4.22291 26.6628C3.99788 26.0861 3.73167 25.2177 3.65902 23.6205C3.57955 21.8937 3.56368 21.3749 3.56368 17C3.56368 12.6252 3.58086 12.1079 3.65902 10.3796C3.7318 8.78238 3.99998 7.91568 4.22291 7.33732C4.52085 6.57246 4.87571 6.02673 5.44905 5.45295C6.02238 4.87918 6.56791 4.52401 7.33454 4.22755C7.91155 4.00265 8.78047 3.7366 10.3786 3.664C12.1065 3.58458 12.6256 3.56872 17.0011 3.56872C21.3766 3.56872 21.8962 3.58589 23.6255 3.664C25.2237 3.73674 26.0909 4.00475 26.6696 4.22755C27.4349 4.52401 27.981 4.87996 28.5551 5.45295C29.1292 6.02594 29.4833 6.57246 29.7812 7.33732C30.0063 7.91398 30.2725 8.78238 30.3451 10.3796C30.4246 12.1079 30.4405 12.6252 30.4405 17C30.4405 21.3749 30.4246 21.8922 30.3451 23.6205C30.2724 25.2177 30.0048 26.0858 29.7812 26.6628C29.4833 27.4276 29.1284 27.9733 28.5551 28.5458C27.9818 29.1183 27.4349 29.4734 26.6696 29.7712C26.0926 29.9961 25.2237 30.2622 23.6255 30.3348C21.8976 30.4142 21.3786 30.43 17.0011 30.43C12.6236 30.43 12.106 30.4142 10.3786 30.3348V30.3348ZM10.2429 0.716742C8.49787 0.796164 7.30543 1.0727 6.26407 1.47767C5.18559 1.89588 4.27261 2.45694 3.36029 3.36728C2.44796 4.27762 1.888 5.19149 1.46954 6.26932C1.06433 7.31071 0.787627 8.50178 0.708158 10.2458C0.627377 11.9925 0.608887 12.551 0.608887 16.9999C0.608887 21.4488 0.627377 22.0073 0.708158 23.754C0.787627 25.4982 1.06433 26.6891 1.46954 27.7305C1.888 28.8077 2.44809 29.7226 3.36029 30.6325C4.27248 31.5425 5.18559 32.1028 6.26407 32.5221C7.3074 32.9271 8.49787 33.2036 10.2429 33.2831C11.9916 33.3625 12.5495 33.3823 17.0011 33.3823C21.4527 33.3823 22.0115 33.3638 23.7593 33.2831C25.5045 33.2036 26.6961 32.9271 27.7381 32.5221C28.8159 32.1028 29.7296 31.5429 30.6419 30.6325C31.5542 29.7222 32.113 28.8077 32.5326 27.7305C32.9379 26.6891 33.2159 25.498 33.294 23.754C33.3735 22.006 33.392 21.4488 33.392 16.9999C33.392 12.551 33.3735 11.9925 33.294 10.2458C33.2146 8.50165 32.9379 7.31006 32.5326 6.26932C32.113 5.19215 31.5528 4.27906 30.6419 3.36728C29.731 2.4555 28.8159 1.89588 27.7394 1.47767C26.6961 1.0727 25.5043 0.794854 23.7606 0.716742C22.0128 0.637321 21.454 0.617531 17.0024 0.617531C12.5508 0.617531 11.9916 0.63601 10.2429 0.716742Z" fill="url(#paint1_radial_303_558)"/>
<defs>
<radialGradient id="paint0_radial_303_558" cx="0" cy="0" r="1" gradientUnits="userSpaceOnUse" gradientTransform="translate(4.96449 33.5371) scale(42.7973 42.7716)">
<stop offset="0.09" stop-color="#FA8F21"/>
<stop offset="0.78" stop-color="#D82D7E"/>
</radialGradient>
<radialGradient id="paint1_radial_303_558" cx="0" cy="0" r="1" gradientUnits="userSpaceOnUse" gradientTransform="translate(20.4912 35.0049) scale(33.7302 33.7099)">
<stop offset="0.64" stop-color="#8C3AAA" stop-opacity="0"/>
<stop offset="1" stop-color="#8C3AAA"/>
</radialGradient>
</defs>
</svg>
