<svg width="184" height="78" viewBox="0 0 184 78" fill="none" xmlns="http://www.w3.org/2000/svg">
<g clip-path="url(#clip0_102_1142)">
<path fill-rule="evenodd" clip-rule="evenodd" d="M12.446 70.0137C12.446 70.0137 1.86611 59.8089 0.279119 48.8055C-2.18953 31.3242 12.8869 13.2218 22.4088 0C22.4088 0 19.7638 8.69624 26.0236 15.7952C32.1952 22.983 43.3923 24.7577 44.9794 26.1775C45.1557 26.355 42.9515 30.9693 39.2485 33.454C32.1071 38.3345 18.9704 40.3754 12.2697 47.4744C5.12825 55.1945 13.504 71.1672 12.446 70.0137ZM24.4367 22.0956C26.5527 22.8055 27.7869 24.9351 27.6988 25.2901C27.6106 25.645 25.4946 26.5324 23.3787 25.8225C21.2627 25.0239 20.0283 22.8055 20.1165 22.5393C20.2046 22.2731 22.3206 21.2969 24.4367 22.0956ZM6.80342 48.0956C6.97975 28.6622 29.1094 32.8328 41.4527 29.372C41.7173 29.2832 38.0142 32.8328 32.6361 34.1638C23.2023 36.3823 13.1514 38.7782 7.33242 47.2082C6.80342 48.0956 6.80342 48.0956 6.80342 48.0956Z" fill="#E31E24"/>
<path fill-rule="evenodd" clip-rule="evenodd" d="M25.3187 10.6487C27.1701 8.07533 36.1631 1.95246 35.6341 2.12994C35.3696 2.21868 32.372 12.246 32.9891 19.5225C33.0772 19.7887 25.5832 15.1744 25.3187 10.6487Z" fill="#B92322"/>
<path fill-rule="evenodd" clip-rule="evenodd" d="M12.5347 70.1023C12.7992 70.4573 3.80621 55.9044 6.62753 48.7167C11.7411 35.4061 33.8709 37.0034 45.068 26.1775C45.068 26.1775 45.2443 28.1296 40.307 32.6553C35.3697 37.2697 17.6482 41.1741 11.8293 48.0069C6.01036 54.8396 12.5347 70.1023 12.5347 70.1023Z" fill="#B92322"/>
<path d="M43.4806 44.9009L40.7474 52.8872C38.8959 50.4026 36.8681 49.1603 34.4876 49.1603C33.1652 49.1603 32.5479 49.6927 32.5479 50.6688C32.5479 51.0238 32.7243 51.29 33.1652 51.6449C33.606 51.9111 34.664 52.4435 36.4273 53.1534C38.2788 53.8633 39.7775 54.5732 40.8356 55.1944C41.8936 55.8156 42.5989 56.6142 43.1279 57.5902C43.6569 58.5664 43.9214 59.72 43.9214 60.9623C43.9214 63.7131 42.8634 65.7541 40.8356 67.174C38.8077 68.5937 35.8101 69.3036 31.8427 69.3036C27.4344 69.3036 23.6432 68.6824 20.381 67.3514L23.1142 58.9213C23.9077 60.1637 24.8775 61.1398 26.0237 61.9385C27.1698 62.6483 28.316 63.0032 29.374 63.0032C29.903 63.0032 30.3438 62.8257 30.6965 62.5595C31.0492 62.2933 31.2254 61.9385 31.2254 61.5835C31.2254 61.2285 31.0492 60.7849 30.7846 60.5186C30.4319 60.1637 29.4621 59.6312 28.0515 59.0988C26.6408 58.5664 25.5829 58.0339 24.7012 57.5015C23.8196 56.9692 23.026 56.2593 22.4088 55.2831C21.7917 54.307 21.439 53.1534 21.439 51.7337C21.439 48.894 22.4088 46.7643 24.4367 45.3446C26.4646 43.9248 29.4621 43.2148 33.4296 43.2148C37.0444 43.2148 40.3948 43.836 43.4806 44.9009Z" fill="#2B2A29"/>
<path d="M46.9197 68.8598V43.6583H57.6759L62.2607 48.8938L66.7571 43.6583H77.5134V68.8598H66.4044V56.2591L62.2607 61.1396L58.0286 56.2591V68.8598H46.9197Z" fill="#2B2A29"/>
<path d="M82.2739 68.8598V43.6583H93.1184L97.6149 48.8938L102.2 43.6583H112.956V68.8598H101.847V56.2591L97.6149 61.1396L93.3829 56.2591V68.8598H82.2739Z" fill="#2B2A29"/>
<path d="M117.893 45.7887H130.148V48.717H121.156V55.1948H130.148V58.1231H121.156V68.8603H117.893V45.7887Z" fill="#727271"/>
<path d="M139.934 53.5974C142.227 53.5974 144.167 54.3961 145.665 55.9045C147.252 57.3243 147.958 59.2766 147.958 61.495C147.958 63.7134 147.164 65.4882 145.665 66.9967C144.079 68.4165 142.139 69.1264 139.846 69.1264C137.554 69.1264 135.703 68.4165 134.115 66.9079C132.617 65.4882 131.823 63.6247 131.823 61.4062C131.823 59.1879 132.617 57.3243 134.203 55.8158C135.703 54.3961 137.642 53.5974 139.934 53.5974ZM139.846 56.3482C138.348 56.3482 137.202 56.7919 136.231 57.768C135.35 58.7442 134.909 59.8978 134.909 61.4062C134.909 62.8261 135.35 64.0684 136.319 64.9558C137.202 65.8432 138.436 66.3756 139.934 66.3756C141.433 66.3756 142.58 65.8432 143.549 64.9558C144.519 63.9797 144.96 62.8261 144.96 61.3175C144.96 59.8978 144.431 58.7442 143.461 57.768C142.492 56.7919 141.257 56.3482 139.846 56.3482Z" fill="#727271"/>
<path d="M165.503 68.8603H161.711C152.278 57.9456 160.565 67.5292 148.663 53.6863H152.454C160.829 63.3586 153.953 55.3723 165.503 68.8603Z" fill="#727271"/>
<path fill-rule="evenodd" clip-rule="evenodd" d="M125.828 77.9999C145.313 71.7882 156.069 65.7541 165.239 48.0066L163.299 46.7644L170.44 36.8258V50.58L168.854 49.6039C160.742 65.1329 142.844 75.6926 125.828 77.9999Z" fill="#F62834"/>
<path fill-rule="evenodd" clip-rule="evenodd" d="M134.822 75.2495L135.35 75.8707C132.882 76.5806 130.413 77.2018 127.944 77.6454C130.413 76.8468 132.706 76.0482 134.822 75.2495Z" fill="#AA1B23"/>
<path fill-rule="evenodd" clip-rule="evenodd" d="M134.998 75.1607L135.615 75.7819L135.262 75.8706L134.733 75.2495L134.998 75.1607Z" fill="#AA1B23"/>
<path fill-rule="evenodd" clip-rule="evenodd" d="M135.173 75.0721L135.79 75.6933L135.438 75.782L134.909 75.1608L135.173 75.0721Z" fill="#AA1B23"/>
<path fill-rule="evenodd" clip-rule="evenodd" d="M135.438 74.9832L135.967 75.6044L135.702 75.7819L135.085 75.072L135.438 74.9832Z" fill="#AA1B23"/>
<path fill-rule="evenodd" clip-rule="evenodd" d="M135.614 74.8946L136.143 75.6045L135.878 75.6932L135.35 75.0721L135.614 74.8946Z" fill="#AA1B23"/>
<path fill-rule="evenodd" clip-rule="evenodd" d="M135.79 74.8057L136.407 75.5156L136.055 75.6044L135.526 74.9832L135.79 74.8057Z" fill="#AB1B23"/>
<path fill-rule="evenodd" clip-rule="evenodd" d="M135.967 74.8057L136.584 75.4269L136.319 75.5156L135.702 74.8945L135.967 74.8057Z" fill="#AB1B23"/>
<path fill-rule="evenodd" clip-rule="evenodd" d="M136.143 74.7171L136.761 75.3383L136.496 75.5158L135.879 74.8058L136.143 74.7171Z" fill="#AB1B23"/>
<path fill-rule="evenodd" clip-rule="evenodd" d="M136.319 74.6282L136.937 75.3381L136.673 75.4269L136.055 74.717L136.319 74.6282Z" fill="#AB1B23"/>
<path fill-rule="evenodd" clip-rule="evenodd" d="M136.584 74.5394L137.201 75.2493L136.849 75.3381L136.231 74.6282L136.584 74.5394Z" fill="#AB1B23"/>
<path fill-rule="evenodd" clip-rule="evenodd" d="M136.761 74.4509L137.378 75.1607L137.113 75.2494L136.407 74.6282L136.761 74.4509Z" fill="#AB1B23"/>
<path fill-rule="evenodd" clip-rule="evenodd" d="M136.937 74.3619L137.554 75.0718L137.289 75.2493L136.673 74.5394L136.937 74.3619Z" fill="#AB1B23"/>
<path fill-rule="evenodd" clip-rule="evenodd" d="M137.113 74.2728L137.73 75.0715L137.466 75.1602L136.849 74.4503L137.113 74.2728Z" fill="#AB1B23"/>
<path fill-rule="evenodd" clip-rule="evenodd" d="M137.289 74.2728L137.994 74.9827L137.642 75.0715L137.025 74.3616L137.289 74.2728Z" fill="#AC1B23"/>
<path fill-rule="evenodd" clip-rule="evenodd" d="M137.466 74.184L138.171 74.8939L137.906 74.9826L137.201 74.2727L137.466 74.184Z" fill="#AC1B23"/>
<path fill-rule="evenodd" clip-rule="evenodd" d="M137.642 74.0953L138.348 74.8052L138.083 74.894L137.378 74.1841L137.642 74.0953Z" fill="#AC1B23"/>
<path fill-rule="evenodd" clip-rule="evenodd" d="M137.906 74.0065L138.524 74.7164L138.26 74.8939L137.554 74.0953L137.906 74.0065Z" fill="#AC1B23"/>
<path fill-rule="evenodd" clip-rule="evenodd" d="M138.083 73.9179L138.7 74.7166L138.436 74.8053L137.73 74.0066L138.083 73.9179Z" fill="#AC1B23"/>
<path fill-rule="evenodd" clip-rule="evenodd" d="M138.26 73.829L138.965 74.6277L138.612 74.7164L137.995 74.0065L138.26 73.829Z" fill="#AC1B23"/>
<path fill-rule="evenodd" clip-rule="evenodd" d="M138.436 73.7402L139.141 74.5388L138.877 74.6276L138.172 73.9177L138.436 73.7402Z" fill="#AC1B23"/>
<path fill-rule="evenodd" clip-rule="evenodd" d="M138.612 73.6516L139.317 74.4502L139.053 74.5389L138.348 73.829L138.612 73.6516Z" fill="#AC1B23"/>
<path fill-rule="evenodd" clip-rule="evenodd" d="M138.789 73.563L139.494 74.3616L139.229 74.5391L138.524 73.7404L138.789 73.563Z" fill="#AD1B23"/>
<path fill-rule="evenodd" clip-rule="evenodd" d="M138.965 73.563L139.67 74.3616L139.405 74.4503L138.701 73.6518L138.965 73.563Z" fill="#AD1B24"/>
<path fill-rule="evenodd" clip-rule="evenodd" d="M139.141 73.4741L139.846 74.2727L139.582 74.3615L138.877 73.5628L139.141 73.4741Z" fill="#AD1B24"/>
<path fill-rule="evenodd" clip-rule="evenodd" d="M139.317 73.3853L140.11 74.1839L139.758 74.2726L139.053 73.474L139.317 73.3853Z" fill="#AD1B24"/>
<path fill-rule="evenodd" clip-rule="evenodd" d="M139.582 73.2967L140.288 74.0952L140.022 74.184L139.229 73.3854L139.582 73.2967Z" fill="#AD1C24"/>
<path fill-rule="evenodd" clip-rule="evenodd" d="M139.758 73.2078L140.464 74.0064L140.2 74.0952L139.406 73.2965L139.758 73.2078Z" fill="#AD1C24"/>
<path fill-rule="evenodd" clip-rule="evenodd" d="M139.934 73.1193L140.64 73.9179L140.376 74.0954L139.67 73.208L139.934 73.1193Z" fill="#AD1C24"/>
<path fill-rule="evenodd" clip-rule="evenodd" d="M140.11 73.0304L140.816 73.8289L140.552 74.0064L139.846 73.1191L140.11 73.0304Z" fill="#AD1C24"/>
<path fill-rule="evenodd" clip-rule="evenodd" d="M140.288 72.9418L140.993 73.7404L140.728 73.9179L140.022 73.0305L140.288 72.9418Z" fill="#AE1C24"/>
<path fill-rule="evenodd" clip-rule="evenodd" d="M140.464 72.8529L141.169 73.7403L140.905 73.829L140.2 73.0304L140.464 72.8529Z" fill="#AE1C24"/>
<path fill-rule="evenodd" clip-rule="evenodd" d="M140.64 72.7643L141.433 73.6517L141.081 73.7404L140.376 72.9418L140.64 72.7643Z" fill="#AE1C24"/>
<path fill-rule="evenodd" clip-rule="evenodd" d="M140.816 72.6754L141.61 73.5628L141.345 73.6515L140.552 72.8529L140.816 72.6754Z" fill="#AE1C24"/>
<path fill-rule="evenodd" clip-rule="evenodd" d="M140.992 72.5868L141.785 73.4742L141.521 73.5629L140.728 72.7643L140.992 72.5868Z" fill="#AE1C24"/>
<path fill-rule="evenodd" clip-rule="evenodd" d="M141.169 72.4979L141.962 73.3853L141.698 73.4741L140.905 72.6754L141.169 72.4979Z" fill="#AE1C24"/>
<path fill-rule="evenodd" clip-rule="evenodd" d="M141.345 72.4093L142.139 73.2967L141.873 73.3854L141.08 72.5868L141.345 72.4093Z" fill="#AE1C24"/>
<path fill-rule="evenodd" clip-rule="evenodd" d="M141.521 72.3204L142.315 73.2078L142.05 73.2966L141.257 72.4979L141.521 72.3204Z" fill="#AE1C24"/>
<path fill-rule="evenodd" clip-rule="evenodd" d="M141.697 72.2319L142.491 73.1192L142.227 73.2967L141.433 72.4094L141.697 72.2319Z" fill="#AF1C24"/>
<path fill-rule="evenodd" clip-rule="evenodd" d="M141.874 72.143L142.668 73.0304L142.403 73.2079L141.609 72.3205L141.874 72.143Z" fill="#AF1C24"/>
<path fill-rule="evenodd" clip-rule="evenodd" d="M142.051 72.0545L142.844 72.9419L142.579 73.1194L141.785 72.232L142.051 72.0545Z" fill="#AF1C24"/>
<path fill-rule="evenodd" clip-rule="evenodd" d="M142.227 71.9656L143.02 72.8529L142.756 73.0304L141.962 72.1431L142.227 71.9656Z" fill="#AF1C24"/>
<path fill-rule="evenodd" clip-rule="evenodd" d="M142.403 71.877L143.284 72.7644L142.932 72.9419L142.139 72.0545L142.403 71.877Z" fill="#AF1C24"/>
<path fill-rule="evenodd" clip-rule="evenodd" d="M142.58 71.7881L143.461 72.6755L143.108 72.853L142.315 71.9656L142.58 71.7881Z" fill="#AF1C24"/>
<path fill-rule="evenodd" clip-rule="evenodd" d="M142.756 71.6993L143.637 72.5867L143.373 72.764L142.491 71.8768L142.756 71.6993Z" fill="#AF1C24"/>
<path fill-rule="evenodd" clip-rule="evenodd" d="M142.932 71.6107L143.813 72.5868L143.549 72.6755L142.668 71.7881L142.932 71.6107Z" fill="#AF1C24"/>
<path fill-rule="evenodd" clip-rule="evenodd" d="M143.196 71.522L143.989 72.4982L143.725 72.5869L142.844 71.6995L143.196 71.522Z" fill="#B01C24"/>
<path fill-rule="evenodd" clip-rule="evenodd" d="M143.285 71.4332L144.167 72.4093L143.901 72.498L143.108 71.6106L143.285 71.4332Z" fill="#B01C24"/>
<path fill-rule="evenodd" clip-rule="evenodd" d="M143.461 71.3444L144.343 72.3205L144.079 72.4092L143.285 71.5218L143.461 71.3444Z" fill="#B01C24"/>
<path fill-rule="evenodd" clip-rule="evenodd" d="M143.637 71.2557L144.519 72.2319L144.255 72.3206L143.373 71.4332L143.637 71.2557Z" fill="#B01C24"/>
<path fill-rule="evenodd" clip-rule="evenodd" d="M143.813 71.1672L144.695 72.1432L144.431 72.2319L143.549 71.3447L143.813 71.1672Z" fill="#B01C24"/>
<path fill-rule="evenodd" clip-rule="evenodd" d="M143.991 71.0784L144.872 72.0544L144.607 72.1431L143.725 71.2558L143.991 71.0784Z" fill="#B01C24"/>
<path fill-rule="evenodd" clip-rule="evenodd" d="M144.167 70.9894L145.048 71.9655L144.784 72.0542L143.901 71.1669L144.167 70.9894Z" fill="#B01C24"/>
<path fill-rule="evenodd" clip-rule="evenodd" d="M144.343 70.9009L145.224 71.877L144.96 71.9657L144.079 71.0784L144.343 70.9009Z" fill="#B01C24"/>
<path fill-rule="evenodd" clip-rule="evenodd" d="M144.519 70.812L145.4 71.788L145.136 71.8768L144.255 70.9895L144.519 70.812Z" fill="#B11C24"/>
<path fill-rule="evenodd" clip-rule="evenodd" d="M144.696 70.7234L145.577 71.6995L145.312 71.7883L144.431 70.8121L144.696 70.7234Z" fill="#B11C24"/>
<path fill-rule="evenodd" clip-rule="evenodd" d="M144.872 70.6345L145.753 71.6107L145.489 71.6994L144.607 70.7233L144.872 70.6345Z" fill="#B11C24"/>
<path fill-rule="evenodd" clip-rule="evenodd" d="M145.048 70.5459L145.929 71.522L145.665 71.6108L144.784 70.6346L145.048 70.5459Z" fill="#B11C24"/>
<path fill-rule="evenodd" clip-rule="evenodd" d="M145.224 70.457L146.106 71.3444L145.841 71.5219L144.96 70.5458L145.224 70.457Z" fill="#B11C24"/>
<path fill-rule="evenodd" clip-rule="evenodd" d="M145.401 70.3684L146.283 71.2558L146.018 71.4333L145.136 70.4571L145.401 70.3684Z" fill="#B11C24"/>
<path fill-rule="evenodd" clip-rule="evenodd" d="M145.577 70.191L146.459 71.1671L146.195 71.3446L145.312 70.3685L145.577 70.191Z" fill="#B11C24"/>
<path fill-rule="evenodd" clip-rule="evenodd" d="M145.753 70.1021L146.635 71.0782L146.371 71.2557L145.489 70.2796L145.753 70.1021Z" fill="#B11C24"/>
<path fill-rule="evenodd" clip-rule="evenodd" d="M145.929 70.0136L146.811 70.9896L146.547 71.1671L145.665 70.1911L145.929 70.0136Z" fill="#B21C24"/>
<path fill-rule="evenodd" clip-rule="evenodd" d="M146.107 69.9246L146.988 70.9008L146.723 71.0782L145.841 70.1021L146.107 69.9246Z" fill="#B21C24"/>
<path fill-rule="evenodd" clip-rule="evenodd" d="M146.283 69.8361L147.164 70.8123L146.9 70.9897L146.018 70.0136L146.283 69.8361Z" fill="#B21C24"/>
<path fill-rule="evenodd" clip-rule="evenodd" d="M146.459 69.7473L147.34 70.7233L147.076 70.9007L146.195 69.9247L146.459 69.7473Z" fill="#B21C25"/>
<path fill-rule="evenodd" clip-rule="evenodd" d="M146.635 69.6583L147.516 70.6345L147.252 70.8119L146.371 69.7471L146.635 69.6583Z" fill="#B21C25"/>
<path fill-rule="evenodd" clip-rule="evenodd" d="M146.723 69.5698L147.694 70.5459L147.428 70.7234L146.547 69.6585L146.723 69.5698Z" fill="#B21C25"/>
<path fill-rule="evenodd" clip-rule="evenodd" d="M146.9 69.3923L147.87 70.4572L147.605 70.5459L146.635 69.5698L146.9 69.3923Z" fill="#B21C25"/>
<path fill-rule="evenodd" clip-rule="evenodd" d="M147.076 69.3035L148.046 70.3683L147.782 70.4571L146.812 69.4809L147.076 69.3035Z" fill="#B21C25"/>
<path fill-rule="evenodd" clip-rule="evenodd" d="M147.252 69.2148L148.134 70.2797L147.958 70.3685L146.988 69.3923L147.252 69.2148Z" fill="#B31C25"/>
<path fill-rule="evenodd" clip-rule="evenodd" d="M147.428 69.126L148.31 70.1908L148.134 70.2796L147.164 69.3035L147.428 69.126Z" fill="#B31C25"/>
<path fill-rule="evenodd" clip-rule="evenodd" d="M147.605 69.0374L148.487 70.0135L148.222 70.191L147.34 69.1261L147.605 69.0374Z" fill="#B31C25"/>
<path fill-rule="evenodd" clip-rule="evenodd" d="M147.78 68.9485L148.663 69.9246L148.398 70.1021L147.516 69.0372L147.78 68.9485Z" fill="#B31C25"/>
<path fill-rule="evenodd" clip-rule="evenodd" d="M147.87 68.771L148.839 69.8359L148.574 70.0133L147.692 68.9485L147.87 68.771Z" fill="#B31D25"/>
<path fill-rule="evenodd" clip-rule="evenodd" d="M148.046 68.6825L149.015 69.7473L148.751 69.9247L147.87 68.86L148.046 68.6825Z" fill="#B31D25"/>
<path fill-rule="evenodd" clip-rule="evenodd" d="M148.222 68.5936L149.191 69.6584L148.927 69.8359L147.958 68.7711L148.222 68.5936Z" fill="#B31D25"/>
<path fill-rule="evenodd" clip-rule="evenodd" d="M148.398 68.505L149.368 69.5699L149.103 69.6586L148.134 68.6825L148.398 68.505Z" fill="#B31D25"/>
<path fill-rule="evenodd" clip-rule="evenodd" d="M148.575 68.4161L149.544 69.481L149.279 69.5696L148.31 68.5049L148.575 68.4161Z" fill="#B41D25"/>
<path fill-rule="evenodd" clip-rule="evenodd" d="M148.751 68.2387L149.72 69.3036L149.456 69.4811L148.486 68.4162L148.751 68.2387Z" fill="#B41D25"/>
<path fill-rule="evenodd" clip-rule="evenodd" d="M148.839 68.1501L149.897 69.215L149.632 69.3924L148.663 68.3276L148.839 68.1501Z" fill="#B41D25"/>
<path fill-rule="evenodd" clip-rule="evenodd" d="M149.015 68.0612L149.985 69.1261L149.809 69.3036L148.839 68.2387L149.015 68.0612Z" fill="#B41D25"/>
<path fill-rule="evenodd" clip-rule="evenodd" d="M149.191 67.9726L150.162 69.0375L149.897 69.2149L148.927 68.0613L149.191 67.9726Z" fill="#B41D25"/>
<path fill-rule="evenodd" clip-rule="evenodd" d="M149.368 67.7952L150.338 68.9487L150.074 69.1262L149.103 67.9727L149.368 67.7952Z" fill="#B41D25"/>
<path fill-rule="evenodd" clip-rule="evenodd" d="M149.544 67.7062L150.514 68.8598L150.25 68.9486L149.28 67.8837L149.544 67.7062Z" fill="#B41D25"/>
<path fill-rule="evenodd" clip-rule="evenodd" d="M149.632 67.6174L150.69 68.6823L150.426 68.8598L149.456 67.7949L149.632 67.6174Z" fill="#B41D25"/>
<path fill-rule="evenodd" clip-rule="evenodd" d="M149.809 67.5289L150.867 68.5936L150.602 68.7711L149.632 67.6176L149.809 67.5289Z" fill="#B51D25"/>
<path fill-rule="evenodd" clip-rule="evenodd" d="M149.986 67.3514L151.043 68.505L150.779 68.6825L149.72 67.5289L149.986 67.3514Z" fill="#B51D25"/>
<path fill-rule="evenodd" clip-rule="evenodd" d="M150.162 67.2626L151.131 68.4161L150.955 68.5935L149.897 67.4401L150.162 67.2626Z" fill="#B51D25"/>
<path fill-rule="evenodd" clip-rule="evenodd" d="M150.338 67.174L151.307 68.3276L151.131 68.505L150.074 67.3514L150.338 67.174Z" fill="#B51D25"/>
<path fill-rule="evenodd" clip-rule="evenodd" d="M150.426 66.9965L151.485 68.2388L151.219 68.3275L150.25 67.1739L150.426 66.9965Z" fill="#B51D25"/>
<path fill-rule="evenodd" clip-rule="evenodd" d="M150.602 66.9076L151.661 68.0612L151.395 68.2387L150.338 67.0851L150.602 66.9076Z" fill="#B51D25"/>
<path fill-rule="evenodd" clip-rule="evenodd" d="M150.779 66.819L151.837 67.9726L151.573 68.1501L150.514 66.9964L150.779 66.819Z" fill="#B51D25"/>
<path fill-rule="evenodd" clip-rule="evenodd" d="M150.955 66.7301L152.013 67.8837L151.749 68.0612L150.691 66.8188L150.955 66.7301Z" fill="#B51D25"/>
<path fill-rule="evenodd" clip-rule="evenodd" d="M151.043 66.5527L152.101 67.795L151.925 67.8838L150.867 66.7301L151.043 66.5527Z" fill="#B61D25"/>
<path fill-rule="evenodd" clip-rule="evenodd" d="M151.219 66.4641L152.278 67.6176L152.101 67.7951L150.955 66.6416L151.219 66.4641Z" fill="#B61D25"/>
<path fill-rule="evenodd" clip-rule="evenodd" d="M151.396 66.3753L152.454 67.5288L152.19 67.7063L151.131 66.5527L151.396 66.3753Z" fill="#B61D25"/>
<path fill-rule="evenodd" clip-rule="evenodd" d="M151.485 66.1978L152.63 67.4402L152.366 67.6176L151.307 66.3753L151.485 66.1978Z" fill="#B61D25"/>
<path fill-rule="evenodd" clip-rule="evenodd" d="M151.661 66.1092L152.806 67.3515L152.542 67.529L151.484 66.2867L151.661 66.1092Z" fill="#B61D25"/>
<path fill-rule="evenodd" clip-rule="evenodd" d="M151.837 65.9317L152.983 67.174L152.718 67.3515L151.573 66.1092L151.837 65.9317Z" fill="#B61D25"/>
<path fill-rule="evenodd" clip-rule="evenodd" d="M152.013 65.8428L153.071 67.0852L152.895 67.2627L151.749 66.0203L152.013 65.8428Z" fill="#B61D25"/>
<path fill-rule="evenodd" clip-rule="evenodd" d="M152.102 65.7542L153.247 66.9966L152.983 67.174L151.925 65.9317L152.102 65.7542Z" fill="#B61D25"/>
<path fill-rule="evenodd" clip-rule="evenodd" d="M152.278 65.5765L153.423 66.9076L153.159 67.0851L152.013 65.754L152.278 65.5765Z" fill="#B71D25"/>
<path fill-rule="evenodd" clip-rule="evenodd" d="M152.454 65.4879L153.601 66.7303L153.335 66.9077L152.19 65.6654L152.454 65.4879Z" fill="#B71D25"/>
<path fill-rule="evenodd" clip-rule="evenodd" d="M152.542 65.399L153.689 66.6414L153.511 66.8189L152.366 65.5765L152.542 65.399Z" fill="#B71D25"/>
<path fill-rule="evenodd" clip-rule="evenodd" d="M152.718 65.2216L153.865 66.5526L153.689 66.7301L152.454 65.399L152.718 65.2216Z" fill="#B71D25"/>
<path fill-rule="evenodd" clip-rule="evenodd" d="M152.895 65.1331L154.041 66.3753L153.777 66.5528L152.63 65.3105L152.895 65.1331Z" fill="#B71D25"/>
<path fill-rule="evenodd" clip-rule="evenodd" d="M152.983 64.9556L154.217 66.2867L153.953 66.4641L152.807 65.133L152.983 64.9556Z" fill="#B71D26"/>
<path fill-rule="evenodd" clip-rule="evenodd" d="M153.159 64.8667L154.306 66.1977L154.129 66.3752L152.895 65.0442L153.159 64.8667Z" fill="#B71D26"/>
<path fill-rule="evenodd" clip-rule="evenodd" d="M153.335 64.6893L154.481 66.1091L154.305 66.2866L153.07 64.9555L153.335 64.6893Z" fill="#B71D26"/>
<path fill-rule="evenodd" clip-rule="evenodd" d="M153.423 64.6006L154.658 65.9317L154.394 66.1092L153.247 64.7781L153.423 64.6006Z" fill="#B81D26"/>
<path fill-rule="evenodd" clip-rule="evenodd" d="M153.6 64.5118L154.834 65.8429L154.569 66.0203L153.335 64.6893L153.6 64.5118Z" fill="#B81D26"/>
<path fill-rule="evenodd" clip-rule="evenodd" d="M153.689 64.3343L154.922 65.7541L154.746 65.9316L153.513 64.5118L153.689 64.3343Z" fill="#B81D26"/>
<path fill-rule="evenodd" clip-rule="evenodd" d="M153.865 64.2458L155.098 65.5768L154.922 65.7542L153.688 64.4233L153.865 64.2458Z" fill="#B81D26"/>
<path fill-rule="evenodd" clip-rule="evenodd" d="M154.041 64.0683L155.275 65.4881L155.011 65.6656L153.777 64.2458L154.041 64.0683Z" fill="#B81D26"/>
<path fill-rule="evenodd" clip-rule="evenodd" d="M154.129 63.9794L155.452 65.3991L155.186 65.5766L153.953 64.1569L154.129 63.9794Z" fill="#B81D26"/>
<path fill-rule="evenodd" clip-rule="evenodd" d="M154.305 63.8019L155.54 65.2218L155.363 65.3992L154.041 64.0682L154.305 63.8019Z" fill="#B81D26"/>
<path fill-rule="evenodd" clip-rule="evenodd" d="M154.393 63.7133L155.716 65.1331L155.452 65.3106L154.217 63.8908L154.393 63.7133Z" fill="#B81D26"/>
<path fill-rule="evenodd" clip-rule="evenodd" d="M154.57 63.5356L155.892 65.0442L155.628 65.2217L154.393 63.8019L154.57 63.5356Z" fill="#B91D26"/>
<path fill-rule="evenodd" clip-rule="evenodd" d="M154.746 63.447L155.98 64.8668L155.804 65.0443L154.481 63.6245L154.746 63.447Z" fill="#B91D26"/>
<path fill-rule="evenodd" clip-rule="evenodd" d="M154.834 63.2695L156.157 64.7781L155.98 64.9556L154.658 63.5357L154.834 63.2695Z" fill="#B91D26"/>
<path fill-rule="evenodd" clip-rule="evenodd" d="M155.01 63.1807L156.333 64.6892L156.069 64.8667L154.746 63.3581L155.01 63.1807Z" fill="#B91D26"/>
<path fill-rule="evenodd" clip-rule="evenodd" d="M155.098 63.0032L156.421 64.5117L156.245 64.6892L154.922 63.2694L155.098 63.0032Z" fill="#B91E26"/>
<path fill-rule="evenodd" clip-rule="evenodd" d="M155.275 62.9147L156.597 64.4231L156.421 64.6006L155.01 63.0922L155.275 62.9147Z" fill="#B91E26"/>
<path fill-rule="evenodd" clip-rule="evenodd" d="M155.364 62.7372L156.774 64.2458L156.509 64.4232L155.186 63.0034L155.364 62.7372Z" fill="#B91E26"/>
<path fill-rule="evenodd" clip-rule="evenodd" d="M155.54 62.6484L156.95 64.1568L156.685 64.3343L155.363 62.8259L155.54 62.6484Z" fill="#B91E26"/>
<path fill-rule="evenodd" clip-rule="evenodd" d="M155.628 62.4709L157.038 64.0682L156.862 64.2457L155.452 62.6484L155.628 62.4709Z" fill="#BA1E26"/>
<path fill-rule="evenodd" clip-rule="evenodd" d="M155.804 62.3823L157.214 63.8908L156.95 64.0683L155.628 62.5597L155.804 62.3823Z" fill="#BA1E26"/>
<path fill-rule="evenodd" clip-rule="evenodd" d="M155.892 62.2048L157.302 63.8021L157.126 63.9796L155.716 62.3822L155.892 62.2048Z" fill="#BA1E26"/>
<path fill-rule="evenodd" clip-rule="evenodd" d="M156.069 62.0274L157.48 63.6246L157.302 63.8021L155.892 62.2936L156.069 62.0274Z" fill="#BA1E26"/>
<path fill-rule="evenodd" clip-rule="evenodd" d="M156.157 61.9384L157.656 63.5357L157.39 63.7132L155.981 62.1159L156.157 61.9384Z" fill="#BA1E26"/>
<path fill-rule="evenodd" clip-rule="evenodd" d="M156.333 61.7611L157.744 63.447L157.568 63.6245L156.157 62.0273L156.333 61.7611Z" fill="#BA1E26"/>
<path fill-rule="evenodd" clip-rule="evenodd" d="M156.421 61.6722L157.92 63.2694L157.744 63.4469L156.245 61.8496L156.421 61.6722Z" fill="#BA1E26"/>
<path fill-rule="evenodd" clip-rule="evenodd" d="M156.597 61.4948L158.096 63.1807L157.832 63.3582L156.421 61.761L156.597 61.4948Z" fill="#BA1E26"/>
<path fill-rule="evenodd" clip-rule="evenodd" d="M156.686 61.4061L158.185 63.0034L158.008 63.1809L156.509 61.5836L156.686 61.4061Z" fill="#BB1E26"/>
<path fill-rule="evenodd" clip-rule="evenodd" d="M156.862 61.2286L158.361 62.9147L158.185 63.0922L156.686 61.4061L156.862 61.2286Z" fill="#BB1E26"/>
<path fill-rule="evenodd" clip-rule="evenodd" d="M156.95 61.0511L158.537 62.7372L158.273 62.9147L156.774 61.3174L156.95 61.0511Z" fill="#BB1E26"/>
<path fill-rule="evenodd" clip-rule="evenodd" d="M157.126 60.9623L158.625 62.6484L158.449 62.8259L156.95 61.1398L157.126 60.9623Z" fill="#BB1E26"/>
<path fill-rule="evenodd" clip-rule="evenodd" d="M157.214 60.7849L158.801 62.4709L158.537 62.7371L157.038 60.9623L157.214 60.7849Z" fill="#BB1E26"/>
<path fill-rule="evenodd" clip-rule="evenodd" d="M157.392 60.6075L158.89 62.3822L158.713 62.5596L157.214 60.8737L157.392 60.6075Z" fill="#BB1E26"/>
<path fill-rule="evenodd" clip-rule="evenodd" d="M157.48 60.5189L159.066 62.2049L158.89 62.4711L157.302 60.6963L157.48 60.5189Z" fill="#BB1E26"/>
<path fill-rule="evenodd" clip-rule="evenodd" d="M157.656 60.3414L159.243 62.1162L158.978 62.2936L157.392 60.6076L157.656 60.3414Z" fill="#BB1E26"/>
<path fill-rule="evenodd" clip-rule="evenodd" d="M157.744 60.1639L159.331 61.9387L159.154 62.2049L157.568 60.4301L157.744 60.1639Z" fill="#BC1E26"/>
<path fill-rule="evenodd" clip-rule="evenodd" d="M157.832 60.075L159.507 61.8498L159.243 62.0273L157.656 60.2525L157.832 60.075Z" fill="#BC1E26"/>
<path fill-rule="evenodd" clip-rule="evenodd" d="M158.008 59.8976L159.596 61.6724L159.419 61.9386L157.832 60.1638L158.008 59.8976Z" fill="#BC1E26"/>
<path fill-rule="evenodd" clip-rule="evenodd" d="M158.097 59.7201L159.772 61.5836L159.596 61.7611L157.92 59.9863L158.097 59.7201Z" fill="#BC1E26"/>
<path fill-rule="evenodd" clip-rule="evenodd" d="M158.273 59.6312L159.86 61.406L159.684 61.6722L158.097 59.8087L158.273 59.6312Z" fill="#BC1E26"/>
<path fill-rule="evenodd" clip-rule="evenodd" d="M158.361 59.4539L160.036 61.3173L159.86 61.4947L158.185 59.72L158.361 59.4539Z" fill="#BC1E26"/>
<path fill-rule="evenodd" clip-rule="evenodd" d="M158.537 59.2764L160.212 61.1398L159.948 61.406L158.273 59.5426L158.537 59.2764Z" fill="#BC1E26"/>
<path fill-rule="evenodd" clip-rule="evenodd" d="M158.625 59.1877L160.301 61.0513L160.124 61.2287L158.449 59.3652L158.625 59.1877Z" fill="#BC1E27"/>
<path fill-rule="evenodd" clip-rule="evenodd" d="M158.714 59.0103L160.478 60.8738L160.213 61.14L158.538 59.2765L158.714 59.0103Z" fill="#BD1E27"/>
<path fill-rule="evenodd" clip-rule="evenodd" d="M158.892 58.8328L160.566 60.7851L160.39 60.9626L158.714 59.099L158.892 58.8328Z" fill="#BD1E27"/>
<path fill-rule="evenodd" clip-rule="evenodd" d="M158.98 58.744L160.742 60.6075L160.478 60.8737L158.803 58.9214L158.98 58.744Z" fill="#BD1E27"/>
<path fill-rule="evenodd" clip-rule="evenodd" d="M159.068 58.5665L160.83 60.5187L160.654 60.6962L158.891 58.7439L159.068 58.5665Z" fill="#BD1E27"/>
<path fill-rule="evenodd" clip-rule="evenodd" d="M159.244 58.3891L161.008 60.3412L160.742 60.6075L159.068 58.6553L159.244 58.3891Z" fill="#BD1E27"/>
<path fill-rule="evenodd" clip-rule="evenodd" d="M159.332 58.2116L161.096 60.2525L160.918 60.43L159.156 58.4778L159.332 58.2116Z" fill="#BD1E27"/>
<path fill-rule="evenodd" clip-rule="evenodd" d="M159.42 58.123L161.272 60.0752L161.096 60.2527L159.244 58.3005L159.42 58.123Z" fill="#BD1E27"/>
<path fill-rule="evenodd" clip-rule="evenodd" d="M159.597 57.9453L161.36 59.9862L161.184 60.1637L159.42 58.1228L159.597 57.9453Z" fill="#BD1E27"/>
<path fill-rule="evenodd" clip-rule="evenodd" d="M159.685 57.7681L161.536 59.8091L161.36 59.9865L159.509 58.0343L159.685 57.7681Z" fill="#BE1E27"/>
<path fill-rule="evenodd" clip-rule="evenodd" d="M159.861 57.5903L161.624 59.6313L161.448 59.8975L159.685 57.8565L159.861 57.5903Z" fill="#BE1E27"/>
<path fill-rule="evenodd" clip-rule="evenodd" d="M159.949 57.5017L161.801 59.5427L161.624 59.7202L159.773 57.6792L159.949 57.5017Z" fill="#BE1E27"/>
<path fill-rule="evenodd" clip-rule="evenodd" d="M160.037 57.3243L161.889 59.3652L161.713 59.6314L159.861 57.5018L160.037 57.3243Z" fill="#BE1E27"/>
<path fill-rule="evenodd" clip-rule="evenodd" d="M160.125 57.1469L162.065 59.2765L161.889 59.454L160.037 57.4131L160.125 57.1469Z" fill="#BE1E27"/>
<path fill-rule="evenodd" clip-rule="evenodd" d="M160.302 56.9694L162.153 59.0992L161.977 59.2766L160.125 57.2356L160.302 56.9694Z" fill="#BE1E27"/>
<path fill-rule="evenodd" clip-rule="evenodd" d="M160.39 56.7919L162.329 58.9217L162.065 59.1879L160.214 57.0581L160.39 56.7919Z" fill="#BE1E27"/>
<path fill-rule="evenodd" clip-rule="evenodd" d="M160.478 56.7031L162.418 58.8328L162.241 59.0103L160.302 56.8805L160.478 56.7031Z" fill="#BE1E27"/>
<path fill-rule="evenodd" clip-rule="evenodd" d="M160.654 56.5256L162.594 58.6553L162.329 58.8328L160.478 56.7918L160.654 56.5256Z" fill="#BF1E27"/>
<path fill-rule="evenodd" clip-rule="evenodd" d="M160.742 56.3481L162.682 58.4778L162.506 58.744L160.566 56.6143L160.742 56.3481Z" fill="#BF1E27"/>
<path fill-rule="evenodd" clip-rule="evenodd" d="M160.83 56.1707L162.771 58.3891L162.594 58.5666L160.654 56.4368L160.83 56.1707Z" fill="#BF1E27"/>
<path fill-rule="evenodd" clip-rule="evenodd" d="M161.008 55.9933L162.947 58.2116L162.771 58.4779L160.83 56.2595L161.008 55.9933Z" fill="#BF1E27"/>
<path fill-rule="evenodd" clip-rule="evenodd" d="M161.095 55.9044L163.035 58.034L162.859 58.3003L160.918 56.0819L161.095 55.9044Z" fill="#BF1F27"/>
<path fill-rule="evenodd" clip-rule="evenodd" d="M161.184 55.7272L163.212 57.9457L163.035 58.1231L161.008 55.9047L161.184 55.7272Z" fill="#BF1F27"/>
<path fill-rule="evenodd" clip-rule="evenodd" d="M161.272 55.5494L163.3 57.7678L163.124 58.034L161.096 55.8157L161.272 55.5494Z" fill="#C01F27"/>
<path fill-rule="evenodd" clip-rule="evenodd" d="M161.448 55.3719L163.476 57.5904L163.211 57.8566L161.272 55.6382L161.448 55.3719Z" fill="#C01F27"/>
<path fill-rule="evenodd" clip-rule="evenodd" d="M161.536 55.1945L163.564 57.5017L163.388 57.6792L161.36 55.4607L161.536 55.1945Z" fill="#C01F27"/>
<path fill-rule="evenodd" clip-rule="evenodd" d="M161.624 55.017L163.652 57.3242L163.476 57.5905L161.448 55.2832L161.624 55.017Z" fill="#C01F27"/>
<path fill-rule="evenodd" clip-rule="evenodd" d="M161.712 54.8397L163.828 57.1468L163.652 57.413L161.536 55.1059L161.712 54.8397Z" fill="#C11F27"/>
<path fill-rule="evenodd" clip-rule="evenodd" d="M161.888 54.751L163.916 57.0581L163.74 57.2356L161.712 54.9285L161.888 54.751Z" fill="#C11F27"/>
<path fill-rule="evenodd" clip-rule="evenodd" d="M161.977 54.5735L164.092 56.8808L163.916 57.147L161.8 54.8398L161.977 54.5735Z" fill="#C11F27"/>
<path fill-rule="evenodd" clip-rule="evenodd" d="M162.065 54.3961L164.181 56.7033L164.004 56.9695L161.888 54.6623L162.065 54.3961Z" fill="#C11F27"/>
<path fill-rule="evenodd" clip-rule="evenodd" d="M162.153 54.2184L164.269 56.6143L164.092 56.7917L161.977 54.4846L162.153 54.2184Z" fill="#C21F27"/>
<path fill-rule="evenodd" clip-rule="evenodd" d="M162.241 54.0412L164.445 56.437L164.269 56.6145L162.153 54.3074L162.241 54.0412Z" fill="#C21F28"/>
<path fill-rule="evenodd" clip-rule="evenodd" d="M162.417 53.8634L164.533 56.2594L164.357 56.5256L162.241 54.1296L162.417 53.8634Z" fill="#C21F28"/>
<path fill-rule="evenodd" clip-rule="evenodd" d="M162.505 53.6863L164.621 56.0822L164.445 56.3483L162.329 53.9525L162.505 53.6863Z" fill="#C21F28"/>
<path fill-rule="evenodd" clip-rule="evenodd" d="M162.593 53.5085L164.797 55.9931C164.709 55.9931 164.621 56.0819 164.621 56.1706L162.417 53.7748L162.593 53.5085Z" fill="#C31F28"/>
<path fill-rule="evenodd" clip-rule="evenodd" d="M162.682 53.3311L164.887 55.8157L164.709 55.9932L162.593 53.5973L162.682 53.3311Z" fill="#C31F28"/>
<path fill-rule="evenodd" clip-rule="evenodd" d="M162.859 53.2424L164.975 55.6384L164.797 55.9046L162.682 53.4199L162.859 53.2424Z" fill="#C31F28"/>
<path fill-rule="evenodd" clip-rule="evenodd" d="M162.947 53.065L165.151 55.461L164.975 55.7272L162.771 53.2425L162.947 53.065Z" fill="#C31F28"/>
<path fill-rule="evenodd" clip-rule="evenodd" d="M163.035 52.8876L165.239 55.3722L165.063 55.5497L162.859 53.1539L163.035 52.8876Z" fill="#C41F28"/>
<path fill-rule="evenodd" clip-rule="evenodd" d="M163.123 52.7101L165.327 55.1947L165.151 55.3722L162.947 52.9764L163.123 52.7101Z" fill="#C41F28"/>
<path fill-rule="evenodd" clip-rule="evenodd" d="M163.211 52.5327L165.503 55.0172L165.327 55.2835L163.035 52.7989L163.211 52.5327Z" fill="#C41F28"/>
<path fill-rule="evenodd" clip-rule="evenodd" d="M163.299 52.3552L165.592 54.8399L165.415 55.1061L163.211 52.6214L163.299 52.3552Z" fill="#C41F28"/>
<path fill-rule="evenodd" clip-rule="evenodd" d="M163.476 52.1777L165.68 54.6624L165.503 54.9286L163.299 52.444L163.476 52.1777Z" fill="#C41F28"/>
<path fill-rule="evenodd" clip-rule="evenodd" d="M163.564 52.0002L165.856 54.5737L165.68 54.7512L163.388 52.2665L163.564 52.0002Z" fill="#C51F28"/>
<path fill-rule="evenodd" clip-rule="evenodd" d="M163.652 51.8225L165.944 54.3959L165.768 54.5734L163.476 52.0887L163.652 51.8225Z" fill="#C51F28"/>
<path fill-rule="evenodd" clip-rule="evenodd" d="M163.74 51.6454L166.032 54.2187L165.856 54.4849L163.564 51.9116L163.74 51.6454Z" fill="#C52028"/>
<path fill-rule="evenodd" clip-rule="evenodd" d="M163.828 51.4677L166.12 54.041L166.032 54.3072L163.652 51.7338L163.828 51.4677Z" fill="#C52028"/>
<path fill-rule="evenodd" clip-rule="evenodd" d="M163.916 51.2902L166.297 53.8635L166.12 54.1298L163.828 51.5564L163.916 51.2902Z" fill="#C62028"/>
<path fill-rule="evenodd" clip-rule="evenodd" d="M164.004 51.1127L166.385 53.6861L166.208 53.9523L163.916 51.3789L164.004 51.1127Z" fill="#C62028"/>
<path fill-rule="evenodd" clip-rule="evenodd" d="M164.181 50.9352L166.473 53.5974L166.297 53.7749L164.004 51.2015L164.181 50.9352Z" fill="#C62028"/>
<path fill-rule="evenodd" clip-rule="evenodd" d="M164.269 50.7578L166.562 53.4199L166.473 53.5974L164.093 51.024L164.269 50.7578Z" fill="#C62028"/>
<path fill-rule="evenodd" clip-rule="evenodd" d="M164.357 50.5803L166.738 53.2424L166.561 53.5087L164.181 50.8465L164.357 50.5803Z" fill="#C72028"/>
<path fill-rule="evenodd" clip-rule="evenodd" d="M164.445 50.4029L166.826 53.065L166.65 53.3312L164.269 50.6691L164.445 50.4029Z" fill="#C72029"/>
<path fill-rule="evenodd" clip-rule="evenodd" d="M164.533 50.2255L166.914 52.8875L166.738 53.1537L164.357 50.4917L164.533 50.2255Z" fill="#C72029"/>
<path fill-rule="evenodd" clip-rule="evenodd" d="M164.621 50.048L167.003 52.71L166.914 52.9763L164.533 50.3142L164.621 50.048Z" fill="#C72029"/>
<path fill-rule="evenodd" clip-rule="evenodd" d="M164.709 49.8705L167.179 52.5327L167.003 52.7989L164.621 50.1367L164.709 49.8705Z" fill="#C82029"/>
<path fill-rule="evenodd" clip-rule="evenodd" d="M164.799 49.693L167.267 52.3552L167.091 52.6214L164.709 49.9592L164.799 49.693Z" fill="#C82029"/>
<path fill-rule="evenodd" clip-rule="evenodd" d="M164.975 49.5155L167.355 52.1777L167.179 52.4439L164.799 49.7817L164.975 49.5155Z" fill="#C82029"/>
<path fill-rule="evenodd" clip-rule="evenodd" d="M165.063 49.3381L167.443 52.0889C167.443 52.0889 167.355 52.1777 167.267 52.2664L164.887 49.6043L165.063 49.3381Z" fill="#C82029"/>
<path fill-rule="evenodd" clip-rule="evenodd" d="M165.151 49.1607L167.531 51.9115L167.443 52.089L164.975 49.4269L165.151 49.1607Z" fill="#C92029"/>
<path fill-rule="evenodd" clip-rule="evenodd" d="M165.239 48.9832L167.707 51.734L167.531 52.0002L165.063 49.2494L165.239 48.9832Z" fill="#C92029"/>
<path fill-rule="evenodd" clip-rule="evenodd" d="M163.652 46.9423L163.74 47.0311H163.652V46.9423ZM165.327 48.8057L167.796 51.5566L167.619 51.8229L165.151 49.0719L165.327 48.8057Z" fill="#C92029"/>
<path fill-rule="evenodd" clip-rule="evenodd" d="M163.74 46.7648L164.357 47.386L163.652 47.031L163.74 46.7648ZM165.415 48.6284L167.884 51.3792L167.707 51.6454L165.239 48.8946L165.415 48.6284Z" fill="#C92029"/>
<path fill-rule="evenodd" clip-rule="evenodd" d="M163.916 46.676L164.887 47.7408L164.004 47.2084L163.74 46.8534L163.916 46.676ZM165.503 48.4507L167.972 51.2016L167.796 51.4678L165.327 48.7169L165.503 48.4507Z" fill="#CA2029"/>
<path fill-rule="evenodd" clip-rule="evenodd" d="M164.004 46.4985L165.592 48.1846L165.239 48.0071L164.621 47.5634L163.828 46.676L164.004 46.4985ZM165.592 48.2733L168.06 51.0241L167.884 51.2903L165.415 48.5395L165.592 48.2733Z" fill="#CA2029"/>
<path fill-rule="evenodd" clip-rule="evenodd" d="M164.093 46.321L168.148 50.8466L168.06 51.1128L165.592 48.362V48.2733L165.239 48.0071V47.9184L163.916 46.5873L164.093 46.321Z" fill="#CA2029"/>
<path fill-rule="evenodd" clip-rule="evenodd" d="M164.181 46.1436L168.236 50.6692L168.148 50.9354L164.093 46.4098L164.181 46.1436Z" fill="#CA2029"/>
<path fill-rule="evenodd" clip-rule="evenodd" d="M164.357 45.9662L168.412 50.4918L168.236 50.758L164.181 46.2323L164.357 45.9662Z" fill="#CB2029"/>
<path fill-rule="evenodd" clip-rule="evenodd" d="M164.445 45.7887L168.502 50.3143L168.324 50.5805L164.269 46.0549L164.445 45.7887Z" fill="#CB2029"/>
<path fill-rule="evenodd" clip-rule="evenodd" d="M164.533 45.6112L168.59 50.1368L168.412 50.403L164.357 45.8774L164.533 45.6112Z" fill="#CB2129"/>
<path fill-rule="evenodd" clip-rule="evenodd" d="M164.621 45.4338L168.678 49.9594L168.502 50.2256L164.533 45.7L164.621 45.4338Z" fill="#CB2129"/>
<path fill-rule="evenodd" clip-rule="evenodd" d="M164.799 45.3449L168.766 49.7818L168.59 50.048L164.621 45.5224L164.799 45.3449Z" fill="#CC2129"/>
<path fill-rule="evenodd" clip-rule="evenodd" d="M164.887 45.1674L168.942 49.6043H168.854L168.678 49.8705L164.709 45.4336L164.887 45.1674Z" fill="#CC2129"/>
<path fill-rule="evenodd" clip-rule="evenodd" d="M164.975 44.9899L169.471 49.9592L168.854 49.6042V49.693L164.799 45.2561L164.975 44.9899Z" fill="#CC2129"/>
<path fill-rule="evenodd" clip-rule="evenodd" d="M165.063 44.8125L170 50.3142L169.207 49.7819L164.975 45.0787L165.063 44.8125Z" fill="#CC212A"/>
<path fill-rule="evenodd" clip-rule="evenodd" d="M165.239 44.6351L170.441 50.4917V50.5804L169.735 50.1368L165.063 44.9013L165.239 44.6351Z" fill="#CC212A"/>
<path fill-rule="evenodd" clip-rule="evenodd" d="M165.327 44.4576L170.441 50.2256V50.5805L170.352 50.4918L165.151 44.7239L165.327 44.4576Z" fill="#CD212A"/>
<path fill-rule="evenodd" clip-rule="evenodd" d="M165.415 44.2796L170.44 49.9588V50.3138L165.239 44.5458L165.415 44.2796Z" fill="#CD212A"/>
<path fill-rule="evenodd" clip-rule="evenodd" d="M165.504 44.1907L170.44 49.6037V50.0474L165.415 44.3682L165.504 44.1907Z" fill="#CD212A"/>
<path fill-rule="evenodd" clip-rule="evenodd" d="M165.68 44.0132L170.44 49.3375V49.7812L165.504 44.2795L165.68 44.0132Z" fill="#CD212A"/>
<path fill-rule="evenodd" clip-rule="evenodd" d="M165.768 43.8358L170.441 49.0712V49.5149L165.592 44.102L165.768 43.8358Z" fill="#CE212A"/>
<path fill-rule="evenodd" clip-rule="evenodd" d="M165.856 43.6583L170.441 48.8052V49.16L165.68 43.9245L165.856 43.6583Z" fill="#CE212A"/>
<path fill-rule="evenodd" clip-rule="evenodd" d="M165.944 43.481L170.441 48.4502V48.8939L165.856 43.7472L165.944 43.481Z" fill="#CE212A"/>
<path fill-rule="evenodd" clip-rule="evenodd" d="M166.12 43.3035L170.44 48.184V48.6277L165.944 43.5697L166.12 43.3035Z" fill="#CE212A"/>
<path fill-rule="evenodd" clip-rule="evenodd" d="M166.209 43.126L170.44 47.9178V48.3615L166.032 43.3922L166.209 43.126Z" fill="#CF212A"/>
<path fill-rule="evenodd" clip-rule="evenodd" d="M166.297 43.0371L170.441 47.6514V48.0064L166.12 43.2146L166.297 43.0371Z" fill="#CF212A"/>
<path fill-rule="evenodd" clip-rule="evenodd" d="M166.385 42.86L170.441 47.2968V47.7405L166.209 43.1261L166.385 42.86Z" fill="#CF212A"/>
<path fill-rule="evenodd" clip-rule="evenodd" d="M166.562 42.6822L170.441 47.0303V47.474L166.385 42.9484L166.562 42.6822Z" fill="#CF212A"/>
<path fill-rule="evenodd" clip-rule="evenodd" d="M166.65 42.5047L170.44 46.7642V47.2079L166.473 42.7709L166.65 42.5047Z" fill="#D0212A"/>
<path fill-rule="evenodd" clip-rule="evenodd" d="M166.738 42.3273L170.44 46.498V46.8529L166.561 42.5935L166.738 42.3273Z" fill="#D0212A"/>
<path fill-rule="evenodd" clip-rule="evenodd" d="M166.826 42.1498L170.441 46.143V46.5867L166.65 42.4161L166.826 42.1498Z" fill="#D0212A"/>
<path fill-rule="evenodd" clip-rule="evenodd" d="M167.003 41.9724L170.44 45.8768V46.3205L166.826 42.2386L167.003 41.9724Z" fill="#D0212A"/>
<path fill-rule="evenodd" clip-rule="evenodd" d="M167.091 41.8837L170.44 45.6108V46.0544L166.915 42.0612L167.091 41.8837Z" fill="#D1212A"/>
<path fill-rule="evenodd" clip-rule="evenodd" d="M167.179 41.7062L170.44 45.3445V45.6995L167.003 41.8837L167.179 41.7062Z" fill="#D1212A"/>
<path fill-rule="evenodd" clip-rule="evenodd" d="M167.267 41.5289L170.441 44.9896V45.4333L167.091 41.7951L167.267 41.5289Z" fill="#D1222A"/>
<path fill-rule="evenodd" clip-rule="evenodd" d="M167.443 41.3514L170.441 44.7234V45.1671L167.267 41.6177L167.443 41.3514Z" fill="#D1222A"/>
<path fill-rule="evenodd" clip-rule="evenodd" d="M167.531 41.174L170.441 44.4572V44.9009L167.355 41.4402L167.531 41.174Z" fill="#D2222B"/>
<path fill-rule="evenodd" clip-rule="evenodd" d="M167.62 40.9962L170.44 44.1907V44.5457L167.443 41.2624L167.62 40.9962Z" fill="#D2222B"/>
<path fill-rule="evenodd" clip-rule="evenodd" d="M167.708 40.819L170.44 43.8361V44.2798L167.531 41.0852L167.708 40.819Z" fill="#D2222B"/>
<path fill-rule="evenodd" clip-rule="evenodd" d="M167.883 40.7301L170.441 43.5698V44.0135L167.707 40.9076L167.883 40.7301Z" fill="#D2222B"/>
<path fill-rule="evenodd" clip-rule="evenodd" d="M167.972 40.5527L170.44 43.3036V43.7473L167.796 40.7301L167.972 40.5527Z" fill="#D3222B"/>
<path fill-rule="evenodd" clip-rule="evenodd" d="M168.06 40.3753L170.44 42.9486V43.3923L167.883 40.6414L168.06 40.3753Z" fill="#D3222B"/>
<path fill-rule="evenodd" clip-rule="evenodd" d="M168.148 40.1978L170.44 42.6824V43.1261L167.972 40.464L168.148 40.1978Z" fill="#D3222B"/>
<path fill-rule="evenodd" clip-rule="evenodd" d="M168.324 40.0203L170.44 42.4162V42.8599L168.148 40.2865L168.324 40.0203Z" fill="#D3222B"/>
<path fill-rule="evenodd" clip-rule="evenodd" d="M168.412 39.8428L170.44 42.15V42.5937L168.236 40.109L168.412 39.8428Z" fill="#D4222B"/>
<path fill-rule="evenodd" clip-rule="evenodd" d="M168.5 39.6654L170.441 41.7951V42.2388L168.324 39.9316L168.5 39.6654Z" fill="#D4222B"/>
<path fill-rule="evenodd" clip-rule="evenodd" d="M170.441 41.9726L168.412 39.7541L170.441 36.8258V41.9726Z" fill="#D4222B"/>
<path fill-rule="evenodd" clip-rule="evenodd" d="M163.299 46.7644L164.269 47.3855L170.441 36.8258L163.299 46.7644Z" fill="#F62834"/>
<path d="M175.025 35.8497V31.2354H173.35V30.4367H177.758V31.2354H175.995V35.8497H175.025ZM178.288 35.8497V30.4367H179.61L181.021 34.7848L182.343 30.4367H183.665V35.8497H182.784V31.3241L181.373 35.8497H180.58L179.169 31.2354V35.8497H178.288Z" fill="#2B2A29"/>
</g>
<defs>
<clipPath id="clip0_102_1142">
<rect width="183.962" height="78" fill="white"/>
</clipPath>
</defs>
</svg>
