<svg width="130" height="56" viewBox="0 0 130 56" fill="none" xmlns="http://www.w3.org/2000/svg">
<g clip-path="url(#clip0_99_705)">
<path fill-rule="evenodd" clip-rule="evenodd" d="M8.795 49.4764C8.795 49.4764 1.31852 42.265 0.19705 34.4892C-1.54746 22.1358 9.10653 9.3434 15.8353 0C15.8353 0 13.9662 6.14535 18.3898 11.162C22.7511 16.2413 30.6637 17.4954 31.7852 18.4988C31.9098 18.6242 30.3522 21.885 27.7354 23.6408C22.6888 27.0897 13.4055 28.532 8.67043 33.5486C3.62377 39.0041 9.54262 50.2915 8.795 49.4764ZM17.2684 15.6142C18.7637 16.1159 19.6359 17.6208 19.5736 17.8717C19.5113 18.1225 18.016 18.7496 16.5208 18.2479C15.0254 17.6835 14.1532 16.1159 14.2154 15.9278C14.2777 15.7396 15.7731 15.0498 17.2684 15.6142ZM4.80755 33.9876C4.93216 20.2546 20.5704 23.2018 29.293 20.7562C29.48 20.6935 26.8632 23.2018 23.0626 24.1424C16.3961 25.7101 9.29347 27.4033 5.18138 33.3605C4.80755 33.9876 4.80755 33.9876 4.80755 33.9876Z" fill="#E31E24"/>
<path fill-rule="evenodd" clip-rule="evenodd" d="M17.8918 7.52517C19.2002 5.70665 25.5552 1.37982 25.1814 1.50523C24.9945 1.56794 22.8762 8.6539 23.3123 13.796C23.3746 13.9841 18.0788 10.7233 17.8918 7.52517Z" fill="#B92322"/>
<path fill-rule="evenodd" clip-rule="evenodd" d="M8.85791 49.539C9.04486 49.7898 2.68981 39.5058 4.68354 34.4265C8.29716 25.0204 23.9355 26.1491 31.8481 18.4988C31.8481 18.4988 31.9727 19.8783 28.4837 23.0765C24.9947 26.3372 12.4715 29.0964 8.35945 33.9249C4.24741 38.7533 8.85791 49.539 8.85791 49.539Z" fill="#B92322"/>
<path d="M30.7263 31.7299L28.7948 37.3736C27.4864 35.6178 26.0535 34.7399 24.3712 34.7399C23.4367 34.7399 23.0005 35.1161 23.0005 35.8059C23.0005 36.0568 23.1252 36.2449 23.4367 36.4957C23.7482 36.6838 24.4959 37.06 25.7419 37.5617C27.0503 38.0634 28.1095 38.565 28.8572 39.004C29.6048 39.443 30.1032 40.0073 30.4771 40.6971C30.8509 41.3869 31.0378 42.2021 31.0378 43.08C31.0378 45.0239 30.2901 46.4662 28.8572 47.4696C27.4241 48.4728 25.3058 48.9745 22.5021 48.9745C19.3869 48.9745 16.7078 48.5355 14.4026 47.595L16.334 41.6377C16.8948 42.5156 17.5801 43.2054 18.3901 43.7698C19.2 44.2714 20.01 44.5222 20.7576 44.5222C21.1314 44.5222 21.4429 44.3968 21.6922 44.2087C21.9414 44.0206 22.066 43.7698 22.066 43.519C22.066 43.2681 21.9414 42.9546 21.7544 42.7665C21.5052 42.5156 20.8199 42.1394 19.823 41.7631C18.8262 41.3869 18.0786 41.0106 17.4555 40.6344C16.8325 40.2582 16.2717 39.7565 15.8355 39.0667C15.3994 38.3769 15.1502 37.5617 15.1502 36.5584C15.1502 34.5517 15.8355 33.0467 17.2686 32.0435C18.7016 31.0401 20.8199 30.5385 23.6236 30.5385C26.178 30.5385 28.5456 30.9774 30.7263 31.7299Z" fill="white"/>
<path d="M33.1565 48.6608V30.8518H40.7576L43.9975 34.5516L47.175 30.8518H54.7761V48.6608H46.9257V39.7563L43.9975 43.2052L41.0068 39.7563V48.6608H33.1565Z" fill="white"/>
<path d="M58.1404 48.6608V30.8518H65.8038L68.9813 34.5516L72.2211 30.8518H79.8225V48.6608H71.9719V39.7563L68.9813 43.2052L65.9907 39.7563V48.6608H58.1404Z" fill="white"/>
<path d="M83.3108 32.3573H91.9713V34.4266H85.6165V39.0043H91.9713V41.0736H85.6165V48.6612H83.3108V32.3573Z" fill="white"/>
<path d="M98.887 37.8755C100.507 37.8755 101.878 38.4399 102.937 39.5058C104.058 40.5092 104.557 41.8888 104.557 43.4564C104.557 45.0242 103.996 46.2783 102.937 47.3443C101.816 48.3476 100.445 48.8493 98.8248 48.8493C97.205 48.8493 95.897 48.3476 94.7748 47.2816C93.7157 46.2783 93.155 44.9614 93.155 43.3937C93.155 41.8261 93.7157 40.5092 94.8371 39.4431C95.897 38.4399 97.2672 37.8755 98.887 37.8755ZM98.8248 39.8194C97.7656 39.8194 96.9561 40.1329 96.2702 40.8227C95.6474 41.5125 95.3355 42.3277 95.3355 43.3937C95.3355 44.3971 95.6474 45.275 96.3325 45.9021C96.9561 46.5292 97.8278 46.9054 98.887 46.9054C99.9461 46.9054 100.756 46.5292 101.442 45.9021C102.127 45.2123 102.438 44.3971 102.438 43.331C102.438 42.3277 102.064 41.5125 101.379 40.8227C100.694 40.1329 99.8217 39.8194 98.8248 39.8194Z" fill="white"/>
<path d="M116.955 48.6612H114.276C107.61 40.9482 113.466 47.7206 105.055 37.9382H107.734C113.653 44.7734 108.793 39.1297 116.955 48.6612Z" fill="white"/>
<path fill-rule="evenodd" clip-rule="evenodd" d="M88.9185 55.1199C102.688 50.7303 110.289 46.4662 116.769 33.9247L115.398 33.0468L120.445 26.0236V35.7432L119.323 35.0534C113.591 46.0272 100.943 53.4895 88.9185 55.1199Z" fill="#F62834"/>
<path fill-rule="evenodd" clip-rule="evenodd" d="M95.2741 53.1764L95.6473 53.6154C93.9031 54.117 92.1588 54.556 90.4138 54.8695C92.1588 54.3052 93.7787 53.7408 95.2741 53.1764Z" fill="#AA1B23"/>
<path fill-rule="evenodd" clip-rule="evenodd" d="M95.3986 53.1135L95.8349 53.5525L95.5852 53.6152L95.2112 53.1762L95.3986 53.1135Z" fill="#AA1B23"/>
<path fill-rule="evenodd" clip-rule="evenodd" d="M95.5221 53.0509L95.9583 53.4899L95.7095 53.5526L95.3354 53.1136L95.5221 53.0509Z" fill="#AA1B23"/>
<path fill-rule="evenodd" clip-rule="evenodd" d="M95.7096 52.9882L96.0836 53.4271L95.8962 53.5525L95.46 53.0509L95.7096 52.9882Z" fill="#AA1B23"/>
<path fill-rule="evenodd" clip-rule="evenodd" d="M95.8341 52.9255L96.2081 53.4272L96.0207 53.4899L95.6475 53.051L95.8341 52.9255Z" fill="#AA1B23"/>
<path fill-rule="evenodd" clip-rule="evenodd" d="M95.9584 52.8627L96.3946 53.3643L96.1458 53.427L95.7717 52.9881L95.9584 52.8627Z" fill="#AB1B23"/>
<path fill-rule="evenodd" clip-rule="evenodd" d="M96.0837 52.8627L96.5191 53.3016L96.3325 53.3643L95.8962 52.9254L96.0837 52.8627Z" fill="#AB1B23"/>
<path fill-rule="evenodd" clip-rule="evenodd" d="M96.2081 52.8L96.6444 53.239L96.4569 53.3644L96.0215 52.8628L96.2081 52.8Z" fill="#AB1B23"/>
<path fill-rule="evenodd" clip-rule="evenodd" d="M96.3324 52.7373L96.7686 53.239L96.582 53.3017L96.1458 52.8L96.3324 52.7373Z" fill="#AB1B23"/>
<path fill-rule="evenodd" clip-rule="evenodd" d="M96.5191 52.6746L96.9554 53.1762L96.7065 53.2389L96.2703 52.7373L96.5191 52.6746Z" fill="#AB1B23"/>
<path fill-rule="evenodd" clip-rule="evenodd" d="M96.6442 52.6119L97.0804 53.1135L96.893 53.1762L96.3945 52.7373L96.6442 52.6119Z" fill="#AB1B23"/>
<path fill-rule="evenodd" clip-rule="evenodd" d="M96.7687 52.5491L97.2049 53.0507L97.0175 53.1762L96.582 52.6745L96.7687 52.5491Z" fill="#AB1B23"/>
<path fill-rule="evenodd" clip-rule="evenodd" d="M96.8932 52.4862L97.3294 53.0506L97.1428 53.1133L96.7065 52.6116L96.8932 52.4862Z" fill="#AB1B23"/>
<path fill-rule="evenodd" clip-rule="evenodd" d="M97.0174 52.4862L97.5159 52.9879L97.2671 53.0506L96.8308 52.5489L97.0174 52.4862Z" fill="#AC1B23"/>
<path fill-rule="evenodd" clip-rule="evenodd" d="M97.1427 52.4233L97.6412 52.925L97.4538 52.9877L96.9553 52.486L97.1427 52.4233Z" fill="#AC1B23"/>
<path fill-rule="evenodd" clip-rule="evenodd" d="M97.2672 52.3607L97.7657 52.8624L97.579 52.9251L97.0806 52.4234L97.2672 52.3607Z" fill="#AC1B23"/>
<path fill-rule="evenodd" clip-rule="evenodd" d="M97.4537 52.298L97.8899 52.7996L97.7033 52.9251L97.2048 52.3607L97.4537 52.298Z" fill="#AC1B23"/>
<path fill-rule="evenodd" clip-rule="evenodd" d="M97.579 52.2354L98.0144 52.7997L97.8278 52.8624L97.3293 52.2981L97.579 52.2354Z" fill="#AC1B23"/>
<path fill-rule="evenodd" clip-rule="evenodd" d="M97.7035 52.1725L98.2019 52.7369L97.9523 52.7996L97.5168 52.2979L97.7035 52.1725Z" fill="#AC1B23"/>
<path fill-rule="evenodd" clip-rule="evenodd" d="M97.8277 52.1097L98.3262 52.6741L98.1396 52.7368L97.6411 52.2352L97.8277 52.1097Z" fill="#AC1B23"/>
<path fill-rule="evenodd" clip-rule="evenodd" d="M97.9523 52.0471L98.4507 52.6115L98.2641 52.6742L97.7656 52.1725L97.9523 52.0471Z" fill="#AC1B23"/>
<path fill-rule="evenodd" clip-rule="evenodd" d="M98.0776 51.9845L98.576 52.5488L98.3886 52.6742L97.8901 52.1098L98.0776 51.9845Z" fill="#AD1B23"/>
<path fill-rule="evenodd" clip-rule="evenodd" d="M98.2018 51.9845L98.7002 52.5488L98.5128 52.6115L98.0151 52.0472L98.2018 51.9845Z" fill="#AD1B24"/>
<path fill-rule="evenodd" clip-rule="evenodd" d="M98.3263 51.9216L98.8247 52.486L98.6381 52.5487L98.1396 51.9843L98.3263 51.9216Z" fill="#AD1B24"/>
<path fill-rule="evenodd" clip-rule="evenodd" d="M98.4508 51.8589L99.0115 52.4233L98.7626 52.486L98.2642 51.9216L98.4508 51.8589Z" fill="#AD1B24"/>
<path fill-rule="evenodd" clip-rule="evenodd" d="M98.6381 51.7964L99.1365 52.3607L98.9491 52.4234L98.3884 51.8591L98.6381 51.7964Z" fill="#AD1C24"/>
<path fill-rule="evenodd" clip-rule="evenodd" d="M98.7625 51.7335L99.261 52.2979L99.0743 52.3606L98.5137 51.7962L98.7625 51.7335Z" fill="#AD1C24"/>
<path fill-rule="evenodd" clip-rule="evenodd" d="M98.8871 51.6709L99.3855 52.2353L99.1989 52.3607L98.7004 51.7336L98.8871 51.6709Z" fill="#AD1C24"/>
<path fill-rule="evenodd" clip-rule="evenodd" d="M99.0113 51.6082L99.5098 52.1725L99.3232 52.2979L98.8247 51.6709L99.0113 51.6082Z" fill="#AD1C24"/>
<path fill-rule="evenodd" clip-rule="evenodd" d="M99.1366 51.5455L99.6351 52.1099L99.4477 52.2353L98.9492 51.6082L99.1366 51.5455Z" fill="#AE1C24"/>
<path fill-rule="evenodd" clip-rule="evenodd" d="M99.2611 51.4827L99.7596 52.1098L99.5729 52.1725L99.0745 51.6081L99.2611 51.4827Z" fill="#AE1C24"/>
<path fill-rule="evenodd" clip-rule="evenodd" d="M99.3854 51.42L99.946 52.0471L99.6972 52.1098L99.1987 51.5455L99.3854 51.42Z" fill="#AE1C24"/>
<path fill-rule="evenodd" clip-rule="evenodd" d="M99.5099 51.3573L100.071 51.9844L99.8839 52.0471L99.3232 51.4827L99.5099 51.3573Z" fill="#AE1C24"/>
<path fill-rule="evenodd" clip-rule="evenodd" d="M99.6344 51.2947L100.195 51.9218L100.008 51.9845L99.4478 51.4201L99.6344 51.2947Z" fill="#AE1C24"/>
<path fill-rule="evenodd" clip-rule="evenodd" d="M99.7594 51.2319L100.32 51.859L100.133 51.9217L99.5728 51.3574L99.7594 51.2319Z" fill="#AE1C24"/>
<path fill-rule="evenodd" clip-rule="evenodd" d="M99.884 51.1692L100.445 51.7963L100.257 51.859L99.6965 51.2946L99.884 51.1692Z" fill="#AE1C24"/>
<path fill-rule="evenodd" clip-rule="evenodd" d="M100.008 51.1064L100.569 51.7335L100.382 51.7962L99.8218 51.2319L100.008 51.1064Z" fill="#AE1C24"/>
<path fill-rule="evenodd" clip-rule="evenodd" d="M100.133 51.0439L100.693 51.671L100.507 51.7964L99.946 51.1694L100.133 51.0439Z" fill="#AF1C24"/>
<path fill-rule="evenodd" clip-rule="evenodd" d="M100.258 50.9811L100.819 51.6082L100.631 51.7336L100.071 51.1065L100.258 50.9811Z" fill="#AF1C24"/>
<path fill-rule="evenodd" clip-rule="evenodd" d="M100.382 50.9185L100.943 51.5455L100.756 51.671L100.195 51.0439L100.382 50.9185Z" fill="#AF1C24"/>
<path fill-rule="evenodd" clip-rule="evenodd" d="M100.507 50.8557L101.067 51.4827L100.881 51.6081L100.32 50.9811L100.507 50.8557Z" fill="#AF1C24"/>
<path fill-rule="evenodd" clip-rule="evenodd" d="M100.631 50.7931L101.254 51.4202L101.005 51.5456L100.445 50.9185L100.631 50.7931Z" fill="#AF1C24"/>
<path fill-rule="evenodd" clip-rule="evenodd" d="M100.757 50.7303L101.379 51.3574L101.13 51.4829L100.569 50.8558L100.757 50.7303Z" fill="#AF1C24"/>
<path fill-rule="evenodd" clip-rule="evenodd" d="M100.881 50.6675L101.504 51.2946L101.317 51.4199L100.693 50.7929L100.881 50.6675Z" fill="#AF1C24"/>
<path fill-rule="evenodd" clip-rule="evenodd" d="M101.005 50.6049L101.628 51.2947L101.441 51.3574L100.819 50.7303L101.005 50.6049Z" fill="#AF1C24"/>
<path fill-rule="evenodd" clip-rule="evenodd" d="M101.192 50.5422L101.753 51.232L101.566 51.2947L100.943 50.6677L101.192 50.5422Z" fill="#B01C24"/>
<path fill-rule="evenodd" clip-rule="evenodd" d="M101.255 50.4795L101.878 51.1693L101.69 51.232L101.13 50.6049L101.255 50.4795Z" fill="#B01C24"/>
<path fill-rule="evenodd" clip-rule="evenodd" d="M101.379 50.4166L102.002 51.1064L101.816 51.1691L101.255 50.542L101.379 50.4166Z" fill="#B01C24"/>
<path fill-rule="evenodd" clip-rule="evenodd" d="M101.504 50.354L102.127 51.0438L101.94 51.1065L101.317 50.4794L101.504 50.354Z" fill="#B01C24"/>
<path fill-rule="evenodd" clip-rule="evenodd" d="M101.628 50.2915L102.251 50.9812L102.064 51.0439L101.441 50.4169L101.628 50.2915Z" fill="#B01C24"/>
<path fill-rule="evenodd" clip-rule="evenodd" d="M101.753 50.2288L102.376 50.9185L102.189 50.9812L101.566 50.3542L101.753 50.2288Z" fill="#B01C24"/>
<path fill-rule="evenodd" clip-rule="evenodd" d="M101.878 50.1658L102.501 50.8556L102.314 50.9183L101.69 50.2912L101.878 50.1658Z" fill="#B01C24"/>
<path fill-rule="evenodd" clip-rule="evenodd" d="M102.002 50.1033L102.625 50.7931L102.438 50.8558L101.815 50.2287L102.002 50.1033Z" fill="#B01C24"/>
<path fill-rule="evenodd" clip-rule="evenodd" d="M102.127 50.0405L102.749 50.7302L102.563 50.793L101.94 50.1659L102.127 50.0405Z" fill="#B11C24"/>
<path fill-rule="evenodd" clip-rule="evenodd" d="M102.252 49.9779L102.875 50.6677L102.687 50.7304L102.064 50.0406L102.252 49.9779Z" fill="#B11C24"/>
<path fill-rule="evenodd" clip-rule="evenodd" d="M102.376 49.915L102.999 50.6048L102.812 50.6675L102.189 49.9777L102.376 49.915Z" fill="#B11C24"/>
<path fill-rule="evenodd" clip-rule="evenodd" d="M102.501 49.8524L103.123 50.5422L102.937 50.6049L102.314 49.9151L102.501 49.8524Z" fill="#B11C24"/>
<path fill-rule="evenodd" clip-rule="evenodd" d="M102.625 49.7897L103.248 50.4168L103.061 50.5422L102.438 49.8524L102.625 49.7897Z" fill="#B11C24"/>
<path fill-rule="evenodd" clip-rule="evenodd" d="M102.75 49.7271L103.373 50.3541L103.186 50.4796L102.563 49.7898L102.75 49.7271Z" fill="#B11C24"/>
<path fill-rule="evenodd" clip-rule="evenodd" d="M102.875 49.6016L103.498 50.2914L103.311 50.4168L102.687 49.727L102.875 49.6016Z" fill="#B11C24"/>
<path fill-rule="evenodd" clip-rule="evenodd" d="M102.999 49.5388L103.622 50.2286L103.435 50.354L102.812 49.6642L102.999 49.5388Z" fill="#B11C24"/>
<path fill-rule="evenodd" clip-rule="evenodd" d="M103.124 49.4763L103.747 50.166L103.56 50.2915L102.937 49.6017L103.124 49.4763Z" fill="#B21C24"/>
<path fill-rule="evenodd" clip-rule="evenodd" d="M103.249 49.4135L103.872 50.1032L103.684 50.2287L103.061 49.5389L103.249 49.4135Z" fill="#B21C24"/>
<path fill-rule="evenodd" clip-rule="evenodd" d="M103.373 49.3508L103.996 50.0406L103.809 50.166L103.186 49.4762L103.373 49.3508Z" fill="#B21C24"/>
<path fill-rule="evenodd" clip-rule="evenodd" d="M103.498 49.2881L104.121 49.9778L103.934 50.1032L103.311 49.4135L103.498 49.2881Z" fill="#B21C25"/>
<path fill-rule="evenodd" clip-rule="evenodd" d="M103.622 49.2252L104.245 49.915L104.058 50.0404L103.435 49.2879L103.622 49.2252Z" fill="#B21C25"/>
<path fill-rule="evenodd" clip-rule="evenodd" d="M103.684 49.1626L104.37 49.8524L104.183 49.9778L103.56 49.2253L103.684 49.1626Z" fill="#B21C25"/>
<path fill-rule="evenodd" clip-rule="evenodd" d="M103.809 49.0372L104.495 49.7897L104.308 49.8524L103.622 49.1626L103.809 49.0372Z" fill="#B21C25"/>
<path fill-rule="evenodd" clip-rule="evenodd" d="M103.934 48.9745L104.619 49.727L104.432 49.7897L103.747 49.0999L103.934 48.9745Z" fill="#B21C25"/>
<path fill-rule="evenodd" clip-rule="evenodd" d="M104.058 48.9119L104.681 49.6644L104.557 49.7271L103.872 49.0373L104.058 48.9119Z" fill="#B31C25"/>
<path fill-rule="evenodd" clip-rule="evenodd" d="M104.183 48.849L104.806 49.6015L104.681 49.6642L103.996 48.9744L104.183 48.849Z" fill="#B31C25"/>
<path fill-rule="evenodd" clip-rule="evenodd" d="M104.308 48.7864L104.931 49.4762L104.743 49.6016L104.12 48.8491L104.308 48.7864Z" fill="#B31C25"/>
<path fill-rule="evenodd" clip-rule="evenodd" d="M104.431 48.7236L105.055 49.4134L104.868 49.5388L104.245 48.7863L104.431 48.7236Z" fill="#B31C25"/>
<path fill-rule="evenodd" clip-rule="evenodd" d="M104.495 48.5981L105.18 49.3507L104.992 49.4761L104.369 48.7236L104.495 48.5981Z" fill="#B31D25"/>
<path fill-rule="evenodd" clip-rule="evenodd" d="M104.619 48.5356L105.304 49.2881L105.118 49.4135L104.495 48.6611L104.619 48.5356Z" fill="#B31D25"/>
<path fill-rule="evenodd" clip-rule="evenodd" d="M104.743 48.4729L105.428 49.2253L105.242 49.3507L104.557 48.5983L104.743 48.4729Z" fill="#B31D25"/>
<path fill-rule="evenodd" clip-rule="evenodd" d="M104.868 48.4102L105.554 49.1627L105.366 49.2254L104.681 48.5356L104.868 48.4102Z" fill="#B31D25"/>
<path fill-rule="evenodd" clip-rule="evenodd" d="M104.993 48.3474L105.678 49.0999L105.491 49.1625L104.806 48.4101L104.993 48.3474Z" fill="#B41D25"/>
<path fill-rule="evenodd" clip-rule="evenodd" d="M105.117 48.222L105.802 48.9746L105.616 49.1L104.93 48.3475L105.117 48.222Z" fill="#B41D25"/>
<path fill-rule="evenodd" clip-rule="evenodd" d="M105.18 48.1594L105.927 48.9119L105.74 49.0374L105.055 48.2848L105.18 48.1594Z" fill="#B41D25"/>
<path fill-rule="evenodd" clip-rule="evenodd" d="M105.304 48.0966L105.989 48.8491L105.865 48.9745L105.18 48.222L105.304 48.0966Z" fill="#B41D25"/>
<path fill-rule="evenodd" clip-rule="evenodd" d="M105.428 48.0339L106.114 48.7864L105.927 48.9119L105.242 48.0966L105.428 48.0339Z" fill="#B41D25"/>
<path fill-rule="evenodd" clip-rule="evenodd" d="M105.554 47.9086L106.239 48.7237L106.052 48.8491L105.366 48.034L105.554 47.9086Z" fill="#B41D25"/>
<path fill-rule="evenodd" clip-rule="evenodd" d="M105.678 47.8457L106.363 48.6609L106.177 48.7236L105.491 47.9711L105.678 47.8457Z" fill="#B41D25"/>
<path fill-rule="evenodd" clip-rule="evenodd" d="M105.74 47.783L106.488 48.5355L106.301 48.6609L105.616 47.9084L105.74 47.783Z" fill="#B41D25"/>
<path fill-rule="evenodd" clip-rule="evenodd" d="M105.865 47.7205L106.613 48.4729L106.425 48.5983L105.74 47.7832L105.865 47.7205Z" fill="#B51D25"/>
<path fill-rule="evenodd" clip-rule="evenodd" d="M105.99 47.595L106.737 48.4102L106.551 48.5356L105.802 47.7204L105.99 47.595Z" fill="#B51D25"/>
<path fill-rule="evenodd" clip-rule="evenodd" d="M106.114 47.5322L106.8 48.3474L106.675 48.4728L105.927 47.6576L106.114 47.5322Z" fill="#B51D25"/>
<path fill-rule="evenodd" clip-rule="evenodd" d="M106.239 47.4696L106.924 48.2848L106.8 48.4102L106.052 47.595L106.239 47.4696Z" fill="#B51D25"/>
<path fill-rule="evenodd" clip-rule="evenodd" d="M106.301 47.3441L107.049 48.222L106.862 48.2847L106.177 47.4695L106.301 47.3441Z" fill="#B51D25"/>
<path fill-rule="evenodd" clip-rule="evenodd" d="M106.425 47.2814L107.173 48.0966L106.986 48.222L106.239 47.4068L106.425 47.2814Z" fill="#B51D25"/>
<path fill-rule="evenodd" clip-rule="evenodd" d="M106.551 47.2188L107.298 48.034L107.111 48.1594L106.363 47.3442L106.551 47.2188Z" fill="#B51D25"/>
<path fill-rule="evenodd" clip-rule="evenodd" d="M106.675 47.156L107.422 47.9712L107.236 48.0966L106.488 47.2187L106.675 47.156Z" fill="#B51D25"/>
<path fill-rule="evenodd" clip-rule="evenodd" d="M106.737 47.0305L107.485 47.9084L107.36 47.9712L106.613 47.1559L106.737 47.0305Z" fill="#B61D25"/>
<path fill-rule="evenodd" clip-rule="evenodd" d="M106.862 46.968L107.61 47.7832L107.485 47.9086L106.675 47.0934L106.862 46.968Z" fill="#B61D25"/>
<path fill-rule="evenodd" clip-rule="evenodd" d="M106.987 46.9052L107.734 47.7203L107.547 47.8457L106.799 47.0305L106.987 46.9052Z" fill="#B61D25"/>
<path fill-rule="evenodd" clip-rule="evenodd" d="M107.049 46.7798L107.859 47.6577L107.672 47.7831L106.924 46.9052L107.049 46.7798Z" fill="#B61D25"/>
<path fill-rule="evenodd" clip-rule="evenodd" d="M107.173 46.7172L107.983 47.5951L107.796 47.7205L107.049 46.8426L107.173 46.7172Z" fill="#B61D25"/>
<path fill-rule="evenodd" clip-rule="evenodd" d="M107.298 46.5917L108.108 47.4696L107.921 47.595L107.111 46.7171L107.298 46.5917Z" fill="#B61D25"/>
<path fill-rule="evenodd" clip-rule="evenodd" d="M107.422 46.5289L108.17 47.4069L108.046 47.5323L107.236 46.6543L107.422 46.5289Z" fill="#B61D25"/>
<path fill-rule="evenodd" clip-rule="evenodd" d="M107.485 46.4663L108.295 47.3442L108.108 47.4697L107.36 46.5917L107.485 46.4663Z" fill="#B61D25"/>
<path fill-rule="evenodd" clip-rule="evenodd" d="M107.61 46.3407L108.419 47.2813L108.233 47.4068L107.422 46.4661L107.61 46.3407Z" fill="#B71D25"/>
<path fill-rule="evenodd" clip-rule="evenodd" d="M107.734 46.2781L108.545 47.156L108.357 47.2814L107.548 46.4035L107.734 46.2781Z" fill="#B71D25"/>
<path fill-rule="evenodd" clip-rule="evenodd" d="M107.796 46.2153L108.607 47.0933L108.481 47.2187L107.672 46.3407L107.796 46.2153Z" fill="#B71D25"/>
<path fill-rule="evenodd" clip-rule="evenodd" d="M107.921 46.0898L108.731 47.0305L108.607 47.1559L107.734 46.2153L107.921 46.0898Z" fill="#B71D25"/>
<path fill-rule="evenodd" clip-rule="evenodd" d="M108.046 46.0273L108.856 46.9052L108.669 47.0306L107.859 46.1528L108.046 46.0273Z" fill="#B71D25"/>
<path fill-rule="evenodd" clip-rule="evenodd" d="M108.108 45.902L108.98 46.8426L108.793 46.968L107.984 46.0274L108.108 45.902Z" fill="#B71D26"/>
<path fill-rule="evenodd" clip-rule="evenodd" d="M108.233 45.8391L109.043 46.7797L108.918 46.9051L108.046 45.9645L108.233 45.8391Z" fill="#B71D26"/>
<path fill-rule="evenodd" clip-rule="evenodd" d="M108.357 45.7137L109.167 46.7171L109.042 46.8425L108.17 45.9019L108.357 45.7137Z" fill="#B71D26"/>
<path fill-rule="evenodd" clip-rule="evenodd" d="M108.419 45.6511L109.292 46.5918L109.105 46.7172L108.295 45.7765L108.419 45.6511Z" fill="#B81D26"/>
<path fill-rule="evenodd" clip-rule="evenodd" d="M108.544 45.5883L109.416 46.5289L109.229 46.6543L108.357 45.7137L108.544 45.5883Z" fill="#B81D26"/>
<path fill-rule="evenodd" clip-rule="evenodd" d="M108.607 45.4629L109.478 46.4662L109.354 46.5917L108.482 45.5883L108.607 45.4629Z" fill="#B81D26"/>
<path fill-rule="evenodd" clip-rule="evenodd" d="M108.731 45.4004L109.603 46.3409L109.478 46.4664L108.606 45.5258L108.731 45.4004Z" fill="#B81D26"/>
<path fill-rule="evenodd" clip-rule="evenodd" d="M108.856 45.2749L109.728 46.2782L109.541 46.4037L108.669 45.4003L108.856 45.2749Z" fill="#B81D26"/>
<path fill-rule="evenodd" clip-rule="evenodd" d="M108.918 45.2122L109.852 46.2154L109.665 46.3408L108.793 45.3376L108.918 45.2122Z" fill="#B81D26"/>
<path fill-rule="evenodd" clip-rule="evenodd" d="M109.042 45.0867L109.915 46.09L109.79 46.2154L108.855 45.2748L109.042 45.0867Z" fill="#B81D26"/>
<path fill-rule="evenodd" clip-rule="evenodd" d="M109.104 45.024L110.039 46.0274L109.853 46.1528L108.98 45.1495L109.104 45.024Z" fill="#B81D26"/>
<path fill-rule="evenodd" clip-rule="evenodd" d="M109.229 44.8986L110.163 45.9646L109.977 46.09L109.104 45.0867L109.229 44.8986Z" fill="#B91D26"/>
<path fill-rule="evenodd" clip-rule="evenodd" d="M109.354 44.8359L110.226 45.8393L110.101 45.9647L109.167 44.9614L109.354 44.8359Z" fill="#B91D26"/>
<path fill-rule="evenodd" clip-rule="evenodd" d="M109.416 44.7104L110.351 45.7765L110.226 45.9019L109.292 44.8986L109.416 44.7104Z" fill="#B91D26"/>
<path fill-rule="evenodd" clip-rule="evenodd" d="M109.541 44.6477L110.475 45.7138L110.289 45.8392L109.354 44.7731L109.541 44.6477Z" fill="#B91D26"/>
<path fill-rule="evenodd" clip-rule="evenodd" d="M109.603 44.5222L110.537 45.5883L110.413 45.7137L109.478 44.7103L109.603 44.5222Z" fill="#B91E26"/>
<path fill-rule="evenodd" clip-rule="evenodd" d="M109.728 44.4597L110.662 45.5257L110.537 45.6511L109.541 44.5851L109.728 44.4597Z" fill="#B91E26"/>
<path fill-rule="evenodd" clip-rule="evenodd" d="M109.79 44.3342L110.787 45.4003L110.6 45.5257L109.665 44.5224L109.79 44.3342Z" fill="#B91E26"/>
<path fill-rule="evenodd" clip-rule="evenodd" d="M109.915 44.2715L110.912 45.3375L110.724 45.4629L109.79 44.3969L109.915 44.2715Z" fill="#B91E26"/>
<path fill-rule="evenodd" clip-rule="evenodd" d="M109.977 44.1461L110.974 45.2749L110.849 45.4003L109.853 44.2715L109.977 44.1461Z" fill="#BA1E26"/>
<path fill-rule="evenodd" clip-rule="evenodd" d="M110.101 44.0835L111.098 45.1495L110.912 45.275L109.977 44.2089L110.101 44.0835Z" fill="#BA1E26"/>
<path fill-rule="evenodd" clip-rule="evenodd" d="M110.163 43.958L111.16 45.0868L111.036 45.2122L110.039 44.0834L110.163 43.958Z" fill="#BA1E26"/>
<path fill-rule="evenodd" clip-rule="evenodd" d="M110.289 43.8326L111.286 44.9613L111.161 45.0867L110.164 44.0208L110.289 43.8326Z" fill="#BA1E26"/>
<path fill-rule="evenodd" clip-rule="evenodd" d="M110.351 43.7698L111.41 44.8985L111.223 45.024L110.227 43.8952L110.351 43.7698Z" fill="#BA1E26"/>
<path fill-rule="evenodd" clip-rule="evenodd" d="M110.475 43.6445L111.472 44.8359L111.348 44.9613L110.351 43.8327L110.475 43.6445Z" fill="#BA1E26"/>
<path fill-rule="evenodd" clip-rule="evenodd" d="M110.538 43.5817L111.597 44.7103L111.472 44.8358L110.413 43.707L110.538 43.5817Z" fill="#BA1E26"/>
<path fill-rule="evenodd" clip-rule="evenodd" d="M110.662 43.4563L111.721 44.6477L111.535 44.7731L110.538 43.6444L110.662 43.4563Z" fill="#BA1E26"/>
<path fill-rule="evenodd" clip-rule="evenodd" d="M110.725 43.3937L111.784 44.5224L111.659 44.6479L110.6 43.5191L110.725 43.3937Z" fill="#BB1E26"/>
<path fill-rule="evenodd" clip-rule="evenodd" d="M110.849 43.2682L111.908 44.4597L111.784 44.5851L110.725 43.3936L110.849 43.2682Z" fill="#BB1E26"/>
<path fill-rule="evenodd" clip-rule="evenodd" d="M110.912 43.1428L112.033 44.3343L111.846 44.4597L110.787 43.3309L110.912 43.1428Z" fill="#BB1E26"/>
<path fill-rule="evenodd" clip-rule="evenodd" d="M111.036 43.0801L112.095 44.2715L111.971 44.397L110.912 43.2055L111.036 43.0801Z" fill="#BB1E26"/>
<path fill-rule="evenodd" clip-rule="evenodd" d="M111.098 42.9546L112.22 44.1461L112.033 44.3342L110.974 43.08L111.098 42.9546Z" fill="#BB1E26"/>
<path fill-rule="evenodd" clip-rule="evenodd" d="M111.223 42.8292L112.283 44.0833L112.157 44.2087L111.098 43.0174L111.223 42.8292Z" fill="#BB1E26"/>
<path fill-rule="evenodd" clip-rule="evenodd" d="M111.286 42.7666L112.407 43.9581L112.283 44.1462L111.16 42.892L111.286 42.7666Z" fill="#BB1E26"/>
<path fill-rule="evenodd" clip-rule="evenodd" d="M111.41 42.6412L112.531 43.8954L112.345 44.0208L111.223 42.8294L111.41 42.6412Z" fill="#BB1E26"/>
<path fill-rule="evenodd" clip-rule="evenodd" d="M111.472 42.5159L112.594 43.77L112.469 43.9582L111.348 42.704L111.472 42.5159Z" fill="#BC1E26"/>
<path fill-rule="evenodd" clip-rule="evenodd" d="M111.534 42.453L112.718 43.7072L112.531 43.8326L111.41 42.5784L111.534 42.453Z" fill="#BC1E26"/>
<path fill-rule="evenodd" clip-rule="evenodd" d="M111.659 42.3276L112.781 43.5818L112.656 43.7699L111.534 42.5158L111.659 42.3276Z" fill="#BC1E26"/>
<path fill-rule="evenodd" clip-rule="evenodd" d="M111.722 42.2021L112.905 43.519L112.781 43.6445L111.597 42.3903L111.722 42.2021Z" fill="#BC1E26"/>
<path fill-rule="evenodd" clip-rule="evenodd" d="M111.846 42.1394L112.968 43.3936L112.843 43.5817L111.722 42.2648L111.846 42.1394Z" fill="#BC1E26"/>
<path fill-rule="evenodd" clip-rule="evenodd" d="M111.909 42.014L113.092 43.3308L112.968 43.4563L111.784 42.2021L111.909 42.014Z" fill="#BC1E26"/>
<path fill-rule="evenodd" clip-rule="evenodd" d="M112.033 41.8887L113.216 43.2055L113.03 43.3936L111.846 42.0768L112.033 41.8887Z" fill="#BC1E26"/>
<path fill-rule="evenodd" clip-rule="evenodd" d="M112.095 41.826L113.279 43.1429L113.154 43.2684L111.971 41.9515L112.095 41.826Z" fill="#BC1E27"/>
<path fill-rule="evenodd" clip-rule="evenodd" d="M112.158 41.7006L113.405 43.0174L113.217 43.2056L112.034 41.8887L112.158 41.7006Z" fill="#BD1E27"/>
<path fill-rule="evenodd" clip-rule="evenodd" d="M112.283 41.5752L113.467 42.9548L113.343 43.0802L112.158 41.7633L112.283 41.5752Z" fill="#BD1E27"/>
<path fill-rule="evenodd" clip-rule="evenodd" d="M112.346 41.5123L113.591 42.8292L113.405 43.0173L112.221 41.6377L112.346 41.5123Z" fill="#BD1E27"/>
<path fill-rule="evenodd" clip-rule="evenodd" d="M112.408 41.387L113.654 42.7666L113.529 42.892L112.283 41.5124L112.408 41.387Z" fill="#BD1E27"/>
<path fill-rule="evenodd" clip-rule="evenodd" d="M112.532 41.2616L113.779 42.6411L113.591 42.8292L112.408 41.4497L112.532 41.2616Z" fill="#BD1E27"/>
<path fill-rule="evenodd" clip-rule="evenodd" d="M112.594 41.1362L113.841 42.5785L113.716 42.7039L112.47 41.3244L112.594 41.1362Z" fill="#BD1E27"/>
<path fill-rule="evenodd" clip-rule="evenodd" d="M112.657 41.0736L113.965 42.4532L113.841 42.5786L112.532 41.199L112.657 41.0736Z" fill="#BD1E27"/>
<path fill-rule="evenodd" clip-rule="evenodd" d="M112.782 40.948L114.027 42.3902L113.903 42.5156L112.656 41.0734L112.782 40.948Z" fill="#BD1E27"/>
<path fill-rule="evenodd" clip-rule="evenodd" d="M112.844 40.8228L114.152 42.2651L114.027 42.3905L112.719 41.0109L112.844 40.8228Z" fill="#BE1E27"/>
<path fill-rule="evenodd" clip-rule="evenodd" d="M112.968 40.6971L114.214 42.1395L114.09 42.3276L112.844 40.8853L112.968 40.6971Z" fill="#BE1E27"/>
<path fill-rule="evenodd" clip-rule="evenodd" d="M113.031 40.6345L114.339 42.0768L114.214 42.2022L112.906 40.7599L113.031 40.6345Z" fill="#BE1E27"/>
<path fill-rule="evenodd" clip-rule="evenodd" d="M113.093 40.5092L114.402 41.9514L114.277 42.1395L112.969 40.6346L113.093 40.5092Z" fill="#BE1E27"/>
<path fill-rule="evenodd" clip-rule="evenodd" d="M113.155 40.3838L114.526 41.8887L114.402 42.0141L113.093 40.5719L113.155 40.3838Z" fill="#BE1E27"/>
<path fill-rule="evenodd" clip-rule="evenodd" d="M113.28 40.2584L114.588 41.7634L114.464 41.8889L113.155 40.4466L113.28 40.2584Z" fill="#BE1E27"/>
<path fill-rule="evenodd" clip-rule="evenodd" d="M113.342 40.1329L114.713 41.638L114.526 41.8261L113.218 40.3211L113.342 40.1329Z" fill="#BE1E27"/>
<path fill-rule="evenodd" clip-rule="evenodd" d="M113.405 40.0702L114.776 41.5752L114.65 41.7006L113.28 40.1956L113.405 40.0702Z" fill="#BE1E27"/>
<path fill-rule="evenodd" clip-rule="evenodd" d="M113.529 39.9447L114.9 41.4497L114.713 41.5751L113.405 40.1328L113.529 39.9447Z" fill="#BF1E27"/>
<path fill-rule="evenodd" clip-rule="evenodd" d="M113.591 39.8193L114.962 41.3244L114.838 41.5125L113.467 40.0075L113.591 39.8193Z" fill="#BF1E27"/>
<path fill-rule="evenodd" clip-rule="evenodd" d="M113.653 39.694L115.024 41.2616L114.9 41.387L113.529 39.882L113.653 39.694Z" fill="#BF1E27"/>
<path fill-rule="evenodd" clip-rule="evenodd" d="M113.779 39.5686L115.149 41.1362L115.025 41.3244L113.654 39.7567L113.779 39.5686Z" fill="#BF1E27"/>
<path fill-rule="evenodd" clip-rule="evenodd" d="M113.84 39.5057L115.211 41.0107L115.087 41.1988L113.716 39.6312L113.84 39.5057Z" fill="#BF1F27"/>
<path fill-rule="evenodd" clip-rule="evenodd" d="M113.903 39.3805L115.336 40.9482L115.211 41.0736L113.779 39.5059L113.903 39.3805Z" fill="#BF1F27"/>
<path fill-rule="evenodd" clip-rule="evenodd" d="M113.965 39.2549L115.398 40.8225L115.274 41.0107L113.841 39.443L113.965 39.2549Z" fill="#C01F27"/>
<path fill-rule="evenodd" clip-rule="evenodd" d="M114.09 39.1295L115.523 40.6972L115.336 40.8854L113.965 39.3176L114.09 39.1295Z" fill="#C01F27"/>
<path fill-rule="evenodd" clip-rule="evenodd" d="M114.152 39.0042L115.585 40.6346L115.461 40.76L114.028 39.1923L114.152 39.0042Z" fill="#C01F27"/>
<path fill-rule="evenodd" clip-rule="evenodd" d="M114.214 38.8787L115.647 40.5091L115.523 40.6972L114.09 39.0668L114.214 38.8787Z" fill="#C01F27"/>
<path fill-rule="evenodd" clip-rule="evenodd" d="M114.277 38.7534L115.772 40.3838L115.647 40.5719L114.152 38.9415L114.277 38.7534Z" fill="#C11F27"/>
<path fill-rule="evenodd" clip-rule="evenodd" d="M114.401 38.6907L115.834 40.321L115.71 40.4464L114.276 38.8161L114.401 38.6907Z" fill="#C11F27"/>
<path fill-rule="evenodd" clip-rule="evenodd" d="M114.464 38.5653L115.958 40.1957L115.834 40.3839L114.339 38.7534L114.464 38.5653Z" fill="#C11F27"/>
<path fill-rule="evenodd" clip-rule="evenodd" d="M114.526 38.4399L116.022 40.0704L115.896 40.2585L114.401 38.6281L114.526 38.4399Z" fill="#C11F27"/>
<path fill-rule="evenodd" clip-rule="evenodd" d="M114.588 38.3143L116.084 40.0075L115.958 40.1328L114.464 38.5025L114.588 38.3143Z" fill="#C21F27"/>
<path fill-rule="evenodd" clip-rule="evenodd" d="M114.65 38.1891L116.208 39.8821L116.084 40.0076L114.588 38.3772L114.65 38.1891Z" fill="#C21F28"/>
<path fill-rule="evenodd" clip-rule="evenodd" d="M114.775 38.0635L116.27 39.7566L116.146 39.9447L114.65 38.2516L114.775 38.0635Z" fill="#C21F28"/>
<path fill-rule="evenodd" clip-rule="evenodd" d="M114.837 37.9382L116.332 39.6314L116.208 39.8194L114.713 38.1264L114.837 37.9382Z" fill="#C21F28"/>
<path fill-rule="evenodd" clip-rule="evenodd" d="M114.899 37.8127L116.457 39.5685C116.395 39.5685 116.333 39.6312 116.333 39.6939L114.775 38.0009L114.899 37.8127Z" fill="#C31F28"/>
<path fill-rule="evenodd" clip-rule="evenodd" d="M114.962 37.6873L116.52 39.443L116.395 39.5684L114.899 37.8754L114.962 37.6873Z" fill="#C31F28"/>
<path fill-rule="evenodd" clip-rule="evenodd" d="M115.087 37.6246L116.582 39.3178L116.457 39.5059L114.962 37.7501L115.087 37.6246Z" fill="#C31F28"/>
<path fill-rule="evenodd" clip-rule="evenodd" d="M115.149 37.4993L116.706 39.1924L116.582 39.3805L115.024 37.6247L115.149 37.4993Z" fill="#C31F28"/>
<path fill-rule="evenodd" clip-rule="evenodd" d="M115.211 37.3739L116.769 39.1297L116.644 39.2551L115.087 37.562L115.211 37.3739Z" fill="#C41F28"/>
<path fill-rule="evenodd" clip-rule="evenodd" d="M115.273 37.2485L116.831 39.0043L116.707 39.1297L115.149 37.4367L115.273 37.2485Z" fill="#C41F28"/>
<path fill-rule="evenodd" clip-rule="evenodd" d="M115.336 37.123L116.955 38.8788L116.831 39.0669L115.211 37.3112L115.336 37.123Z" fill="#C41F28"/>
<path fill-rule="evenodd" clip-rule="evenodd" d="M115.398 36.9977L117.018 38.7535L116.893 38.9417L115.335 37.1858L115.398 36.9977Z" fill="#C41F28"/>
<path fill-rule="evenodd" clip-rule="evenodd" d="M115.523 36.8722L117.081 38.628L116.955 38.8162L115.398 37.0603L115.523 36.8722Z" fill="#C41F28"/>
<path fill-rule="evenodd" clip-rule="evenodd" d="M115.585 36.7468L117.205 38.5654L117.081 38.6908L115.461 36.935L115.585 36.7468Z" fill="#C51F28"/>
<path fill-rule="evenodd" clip-rule="evenodd" d="M115.647 36.6212L117.267 38.4398L117.143 38.5652L115.523 36.8093L115.647 36.6212Z" fill="#C51F28"/>
<path fill-rule="evenodd" clip-rule="evenodd" d="M115.71 36.4961L117.329 38.3146L117.205 38.5027L115.585 36.6842L115.71 36.4961Z" fill="#C52028"/>
<path fill-rule="evenodd" clip-rule="evenodd" d="M115.772 36.3705L117.392 38.189L117.329 38.3771L115.647 36.5585L115.772 36.3705Z" fill="#C52028"/>
<path fill-rule="evenodd" clip-rule="evenodd" d="M115.834 36.2451L117.517 38.0636L117.392 38.2517L115.772 36.4332L115.834 36.2451Z" fill="#C62028"/>
<path fill-rule="evenodd" clip-rule="evenodd" d="M115.896 36.1196L117.579 37.9381L117.454 38.1262L115.834 36.3078L115.896 36.1196Z" fill="#C62028"/>
<path fill-rule="evenodd" clip-rule="evenodd" d="M116.021 35.9943L117.641 37.8755L117.517 38.0009L115.896 36.1824L116.021 35.9943Z" fill="#C62028"/>
<path fill-rule="evenodd" clip-rule="evenodd" d="M116.084 35.8688L117.703 37.75L117.641 37.8755L115.959 36.0569L116.084 35.8688Z" fill="#C62028"/>
<path fill-rule="evenodd" clip-rule="evenodd" d="M116.146 35.7434L117.828 37.6247L117.704 37.8128L116.021 35.9315L116.146 35.7434Z" fill="#C72028"/>
<path fill-rule="evenodd" clip-rule="evenodd" d="M116.208 35.618L117.89 37.4992L117.766 37.6874L116.084 35.8062L116.208 35.618Z" fill="#C72029"/>
<path fill-rule="evenodd" clip-rule="evenodd" d="M116.27 35.4927L117.952 37.3739L117.828 37.562L116.146 35.6808L116.27 35.4927Z" fill="#C72029"/>
<path fill-rule="evenodd" clip-rule="evenodd" d="M116.332 35.3672L118.015 37.2484L117.952 37.4365L116.27 35.5553L116.332 35.3672Z" fill="#C72029"/>
<path fill-rule="evenodd" clip-rule="evenodd" d="M116.395 35.2418L118.14 37.1231L118.015 37.3112L116.333 35.4299L116.395 35.2418Z" fill="#C82029"/>
<path fill-rule="evenodd" clip-rule="evenodd" d="M116.458 35.1163L118.202 36.9976L118.078 37.1857L116.395 35.3045L116.458 35.1163Z" fill="#C82029"/>
<path fill-rule="evenodd" clip-rule="evenodd" d="M116.582 34.991L118.264 36.8722L118.14 37.0604L116.458 35.1791L116.582 34.991Z" fill="#C82029"/>
<path fill-rule="evenodd" clip-rule="evenodd" d="M116.644 34.8656L118.326 36.8095C118.326 36.8095 118.264 36.8722 118.202 36.9349L116.52 35.0537L116.644 34.8656Z" fill="#C82029"/>
<path fill-rule="evenodd" clip-rule="evenodd" d="M116.706 34.7402L118.388 36.6841L118.326 36.8096L116.582 34.9284L116.706 34.7402Z" fill="#C92029"/>
<path fill-rule="evenodd" clip-rule="evenodd" d="M116.769 34.6147L118.513 36.5586L118.389 36.7468L116.644 34.8029L116.769 34.6147Z" fill="#C92029"/>
<path fill-rule="evenodd" clip-rule="evenodd" d="M115.647 33.1726L115.71 33.2353H115.647V33.1726ZM116.831 34.4894L118.576 36.4334L118.451 36.6215L116.707 34.6775L116.831 34.4894Z" fill="#C92029"/>
<path fill-rule="evenodd" clip-rule="evenodd" d="M115.71 33.0471L116.146 33.4861L115.647 33.2352L115.71 33.0471ZM116.893 34.364L118.638 36.3079L118.513 36.496L116.769 34.5521L116.893 34.364Z" fill="#C92029"/>
<path fill-rule="evenodd" clip-rule="evenodd" d="M115.834 32.9844L116.52 33.7369L115.896 33.3606L115.71 33.1098L115.834 32.9844ZM116.955 34.2386L118.701 36.1825L118.576 36.3706L116.831 34.4266L116.955 34.2386Z" fill="#CA2029"/>
<path fill-rule="evenodd" clip-rule="evenodd" d="M115.896 32.859L117.018 34.0505L116.769 33.9251L116.332 33.6115L115.772 32.9844L115.896 32.859ZM117.018 34.1132L118.763 36.0571L118.638 36.2452L116.893 34.3013L117.018 34.1132Z" fill="#CA2029"/>
<path fill-rule="evenodd" clip-rule="evenodd" d="M115.959 32.7335L118.825 35.9316L118.763 36.1197L117.018 34.1758V34.1131L116.769 33.925V33.8623L115.834 32.9216L115.959 32.7335Z" fill="#CA2029"/>
<path fill-rule="evenodd" clip-rule="evenodd" d="M116.021 32.6082L118.887 35.8063L118.825 35.9944L115.959 32.7963L116.021 32.6082Z" fill="#CA2029"/>
<path fill-rule="evenodd" clip-rule="evenodd" d="M116.146 32.4828L119.011 35.6809L118.887 35.869L116.021 32.6708L116.146 32.4828Z" fill="#CB2029"/>
<path fill-rule="evenodd" clip-rule="evenodd" d="M116.208 32.3573L119.075 35.5554L118.949 35.7435L116.084 32.5454L116.208 32.3573Z" fill="#CB2029"/>
<path fill-rule="evenodd" clip-rule="evenodd" d="M116.27 32.2319L119.137 35.43L119.011 35.6181L116.146 32.4201L116.27 32.2319Z" fill="#CB2129"/>
<path fill-rule="evenodd" clip-rule="evenodd" d="M116.332 32.1066L119.199 35.3046L119.074 35.4928L116.27 32.2947L116.332 32.1066Z" fill="#CB2129"/>
<path fill-rule="evenodd" clip-rule="evenodd" d="M116.458 32.0437L119.261 35.1791L119.137 35.3672L116.333 32.1691L116.458 32.0437Z" fill="#CC2129"/>
<path fill-rule="evenodd" clip-rule="evenodd" d="M116.52 31.9183L119.386 35.0537H119.323L119.199 35.2418L116.395 32.1065L116.52 31.9183Z" fill="#CC2129"/>
<path fill-rule="evenodd" clip-rule="evenodd" d="M116.582 31.7928L119.76 35.3045L119.323 35.0536V35.1163L116.458 31.981L116.582 31.7928Z" fill="#CC2129"/>
<path fill-rule="evenodd" clip-rule="evenodd" d="M116.644 31.6675L120.134 35.5554L119.573 35.1792L116.582 31.8556L116.644 31.6675Z" fill="#CC212A"/>
<path fill-rule="evenodd" clip-rule="evenodd" d="M116.769 31.5421L120.445 35.6807V35.7435L119.946 35.43L116.644 31.7302L116.769 31.5421Z" fill="#CC212A"/>
<path fill-rule="evenodd" clip-rule="evenodd" d="M116.831 31.4167L120.445 35.4928V35.7436L120.382 35.6809L116.707 31.6049L116.831 31.4167Z" fill="#CD212A"/>
<path fill-rule="evenodd" clip-rule="evenodd" d="M116.893 31.2909L120.445 35.3042V35.555L116.769 31.479L116.893 31.2909Z" fill="#CD212A"/>
<path fill-rule="evenodd" clip-rule="evenodd" d="M116.956 31.2281L120.445 35.0533V35.3669L116.893 31.3536L116.956 31.2281Z" fill="#CD212A"/>
<path fill-rule="evenodd" clip-rule="evenodd" d="M117.08 31.1027L120.445 34.8651V35.1787L116.956 31.2908L117.08 31.1027Z" fill="#CD212A"/>
<path fill-rule="evenodd" clip-rule="evenodd" d="M117.143 30.9773L120.445 34.677V34.9906L117.018 31.1654L117.143 30.9773Z" fill="#CE212A"/>
<path fill-rule="evenodd" clip-rule="evenodd" d="M117.205 30.8518L120.445 34.4889V34.7397L117.081 31.0399L117.205 30.8518Z" fill="#CE212A"/>
<path fill-rule="evenodd" clip-rule="evenodd" d="M117.267 30.7266L120.445 34.2382V34.5517L117.205 30.9147L117.267 30.7266Z" fill="#CE212A"/>
<path fill-rule="evenodd" clip-rule="evenodd" d="M117.392 30.6011L120.445 34.05V34.3635L117.267 30.7892L117.392 30.6011Z" fill="#CE212A"/>
<path fill-rule="evenodd" clip-rule="evenodd" d="M117.455 30.4757L120.445 33.8619V34.1755L117.329 30.6638L117.455 30.4757Z" fill="#CF212A"/>
<path fill-rule="evenodd" clip-rule="evenodd" d="M117.517 30.4128L120.445 33.6736V33.9245L117.392 30.5383L117.517 30.4128Z" fill="#CF212A"/>
<path fill-rule="evenodd" clip-rule="evenodd" d="M117.579 30.2877L120.445 33.4231V33.7366L117.455 30.4758L117.579 30.2877Z" fill="#CF212A"/>
<path fill-rule="evenodd" clip-rule="evenodd" d="M117.704 30.1621L120.445 33.2348V33.5483L117.579 30.3502L117.704 30.1621Z" fill="#CF212A"/>
<path fill-rule="evenodd" clip-rule="evenodd" d="M117.766 30.0366L120.445 33.0467V33.3602L117.641 30.2247L117.766 30.0366Z" fill="#D0212A"/>
<path fill-rule="evenodd" clip-rule="evenodd" d="M117.828 29.9113L120.445 32.8585V33.1093L117.703 30.0994L117.828 29.9113Z" fill="#D0212A"/>
<path fill-rule="evenodd" clip-rule="evenodd" d="M117.89 29.7859L120.445 32.6077V32.9213L117.766 29.974L117.89 29.7859Z" fill="#D0212A"/>
<path fill-rule="evenodd" clip-rule="evenodd" d="M118.015 29.6605L120.445 32.4196V32.7332L117.89 29.8486L118.015 29.6605Z" fill="#D0212A"/>
<path fill-rule="evenodd" clip-rule="evenodd" d="M118.078 29.5979L120.445 32.2317V32.5451L117.953 29.7233L118.078 29.5979Z" fill="#D1212A"/>
<path fill-rule="evenodd" clip-rule="evenodd" d="M118.14 29.4724L120.445 32.0435V32.2943L118.015 29.5978L118.14 29.4724Z" fill="#D1212A"/>
<path fill-rule="evenodd" clip-rule="evenodd" d="M118.202 29.347L120.445 31.7926V32.1062L118.078 29.5352L118.202 29.347Z" fill="#D1222A"/>
<path fill-rule="evenodd" clip-rule="evenodd" d="M118.326 29.2217L120.445 31.6045V31.9181L118.202 29.4098L118.326 29.2217Z" fill="#D1222A"/>
<path fill-rule="evenodd" clip-rule="evenodd" d="M118.389 29.0962L120.445 31.4163V31.7299L118.264 29.2843L118.389 29.0962Z" fill="#D2222B"/>
<path fill-rule="evenodd" clip-rule="evenodd" d="M118.452 28.9707L120.445 31.2281V31.479L118.326 29.1588L118.452 28.9707Z" fill="#D2222B"/>
<path fill-rule="evenodd" clip-rule="evenodd" d="M118.514 28.8455L120.445 30.9776V31.2911L118.389 29.0336L118.514 28.8455Z" fill="#D2222B"/>
<path fill-rule="evenodd" clip-rule="evenodd" d="M118.637 28.7826L120.445 30.7893V31.1028L118.513 28.908L118.637 28.7826Z" fill="#D2222B"/>
<path fill-rule="evenodd" clip-rule="evenodd" d="M118.7 28.6572L120.445 30.6012V30.9148L118.576 28.7826L118.7 28.6572Z" fill="#D3222B"/>
<path fill-rule="evenodd" clip-rule="evenodd" d="M118.763 28.5319L120.445 30.3503V30.6639L118.637 28.7199L118.763 28.5319Z" fill="#D3222B"/>
<path fill-rule="evenodd" clip-rule="evenodd" d="M118.825 28.4065L120.445 30.1623V30.4758L118.7 28.5946L118.825 28.4065Z" fill="#D3222B"/>
<path fill-rule="evenodd" clip-rule="evenodd" d="M118.949 28.281L120.445 29.9741V30.2876L118.825 28.4691L118.949 28.281Z" fill="#D3222B"/>
<path fill-rule="evenodd" clip-rule="evenodd" d="M119.011 28.1556L120.445 29.7861V30.0996L118.887 28.3438L119.011 28.1556Z" fill="#D4222B"/>
<path fill-rule="evenodd" clip-rule="evenodd" d="M119.074 28.0302L120.445 29.5352V29.8487L118.949 28.2183L119.074 28.0302Z" fill="#D4222B"/>
<path fill-rule="evenodd" clip-rule="evenodd" d="M120.445 29.6606L119.011 28.0929L120.445 26.0236V29.6606Z" fill="#D4222B"/>
<path fill-rule="evenodd" clip-rule="evenodd" d="M115.398 33.0468L116.084 33.4858L120.445 26.0236L115.398 33.0468Z" fill="#F62834"/>
<path d="M123.684 25.3338V22.073H122.501V21.5087H125.616V22.073H124.37V25.3338H123.684ZM125.99 25.3338V21.5087H126.925L127.922 24.5813L128.856 21.5087H129.79V25.3338H129.167V22.1358L128.17 25.3338H127.61L126.613 22.073V25.3338H125.99Z" fill="white"/>
</g>
<defs>
<clipPath id="clip0_99_705">
<rect width="130" height="55.12" fill="white"/>
</clipPath>
</defs>
</svg>
