<svg width="28" height="28" viewBox="0 0 28 28" fill="none" xmlns="http://www.w3.org/2000/svg">
<path d="M13.8624 27.713C21.4855 27.713 27.6653 21.5333 27.6653 13.9102C27.6653 6.28707 21.4855 0.1073 13.8624 0.1073C6.23934 0.1073 0.0595703 6.28707 0.0595703 13.9102C0.0595703 21.5333 6.23934 27.713 13.8624 27.713Z" fill="white"/>
<path d="M5.97659 13.6078C5.97659 13.6078 12.8138 10.699 15.1851 9.67479C16.0941 9.26512 19.1768 7.95407 19.1768 7.95407C19.1768 7.95407 20.5996 7.38053 20.481 8.77346C20.4415 9.34705 20.1253 11.3545 19.8091 13.5259C19.3349 16.5986 18.8211 19.9581 18.8211 19.9581C18.8211 19.9581 18.742 20.9004 18.0702 21.0643C17.3983 21.2281 16.2917 20.4907 16.0941 20.3268C15.936 20.2039 13.13 18.3603 12.1024 17.4589C11.8258 17.2131 11.5096 16.7215 12.1419 16.1479C13.5647 14.796 15.2641 13.1162 16.2917 12.051C16.766 11.5594 17.2402 10.4122 15.2641 11.8052C12.4581 13.8127 9.69162 15.6973 9.69162 15.6973C9.69162 15.6973 9.05925 16.107 7.87362 15.7382C6.68793 15.3695 5.30468 14.8779 5.30468 14.8779C5.30468 14.8779 4.35621 14.2634 5.97659 13.6078Z" fill="#212121"/>
</svg>
